<svg width="482" height="494" viewBox="0 0 482 494" fill="none" xmlns="http://www.w3.org/2000/svg">
<path d="M105.274 133.573L219.97 195.588L177.736 246.846L105.274 133.573Z" fill="#C52113"/>
<path d="M197.135 86.076L259.623 202.786L259.623 278.925L197.463 223.301L197.135 86.076Z" fill="#C52113"/>
<path d="M303.922 101.066L280.062 232.009L219.97 205.621L303.922 101.066Z" fill="#C52113"/>
<path d="M393.017 143.918L288.233 268.795L237.552 202.786L393.017 143.918Z" fill="#C52113"/>
<path d="M78.9044 232.009L207.313 214.029L201.885 280.97L78.9044 232.009Z" fill="#C52113"/>
<path d="M55.3041 324.53L197.463 223.301L264.213 277.9L159.758 301.215L55.3041 324.53Z" fill="#C52113"/>
<path d="M168.738 368.747L193.912 258.17L245.888 280.313L207.313 324.53L168.738 368.747Z" fill="#C52113"/>
<path d="M259.646 423.038L202.872 268.795L283.484 254.499L259.646 423.038Z" fill="#C52113"/>
<path d="M396.638 330.371L254.403 286.44L256.03 210.172L396.638 330.371Z" fill="#C52113"/>
<path d="M316.479 350.586L229.823 280.147L271.42 241.202L316.479 350.586Z" fill="#C52113"/>
<path d="M383.252 242.955L280.647 285.048L268.549 228.563L383.252 242.955Z" fill="#C52113"/>
<path d="M145.232 166.731L226.544 210.696L196.603 247.033L145.232 166.731Z" fill="#DC291B"/>
<path d="M210.356 133.059L254.655 215.799L254.655 269.775L210.588 230.342L210.356 133.059Z" fill="#DC291B"/>
<path d="M286.059 143.686L269.145 236.515L226.544 217.808L286.059 143.686Z" fill="#DC291B"/>
<path d="M349.221 174.065L274.937 262.594L239.008 215.799L349.221 174.065Z" fill="#DC291B"/>
<path d="M126.539 236.515L217.571 223.769L213.723 271.225L126.539 236.515Z" fill="#DC291B"/>
<path d="M109.808 302.106L210.588 230.342L257.909 269.049L183.858 285.578L109.808 302.106Z" fill="#DC291B"/>
<path d="M190.224 333.453L208.07 255.062L244.918 270.76L217.571 302.106L190.224 333.453Z" fill="#DC291B"/>
<path d="M254.671 371.941L214.423 262.594L271.571 252.459L254.671 371.941Z" fill="#DC291B"/>
<path d="M351.789 306.247L250.955 275.103L252.108 221.034L351.789 306.247Z" fill="#DC291B"/>
<path d="M294.962 320.578L233.529 270.642L263.018 243.033L294.962 320.578Z" fill="#DC291B"/>
<path d="M342.299 244.275L269.56 274.116L260.983 234.073L342.299 244.275Z" fill="#DC291B"/>
<path d="M167.921 184.936L230.144 218.58L207.232 246.387L167.921 184.936Z" fill="#F07D05"/>
<path d="M217.756 159.169L251.656 222.485L251.656 263.79L217.934 233.614L217.756 159.169Z" fill="#F07D05"/>
<path d="M275.688 167.301L262.744 238.338L230.144 224.023L275.688 167.301Z" fill="#F07D05"/>
<path d="M324.023 190.549L267.177 258.295L239.682 222.485L324.023 190.549Z" fill="#F07D05"/>
<path d="M153.615 238.338L223.278 228.584L220.333 264.9L153.615 238.338Z" fill="#F07D05"/>
<path d="M140.812 288.531L217.934 233.614L254.146 263.235L197.479 275.883L140.812 288.531Z" fill="#F07D05"/>
<path d="M202.35 312.519L216.007 252.531L244.205 264.544L223.278 288.531L202.35 312.519Z" fill="#F07D05"/>
<path d="M251.668 341.972L220.868 258.295L264.601 250.539L251.668 341.972Z" fill="#F07D05"/>
<path d="M325.987 291.7L248.824 267.867L249.707 226.491L325.987 291.7Z" fill="#F07D05"/>
<path d="M282.5 302.667L235.489 264.453L258.056 243.326L282.5 302.667Z" fill="#F07D05"/>
<path d="M318.725 244.276L263.062 267.112L256.498 236.469L318.725 244.276Z" fill="#F07D05"/>
</svg>
