<svg width="971" height="437" viewBox="0 0 971 437" fill="none" xmlns="http://www.w3.org/2000/svg">
<ellipse cx="424.5" cy="139.5" rx="153.5" ry="139.5" fill="url(#paint0_linear_95_418)"/>
<ellipse cx="298" cy="177" rx="111" ry="102" fill="url(#paint1_linear_95_418)"/>
<ellipse cx="466.5" cy="312" rx="111.5" ry="102" fill="url(#paint2_linear_95_418)"/>
<ellipse cx="610" cy="328" rx="111" ry="102" fill="url(#paint3_linear_95_418)"/>
<ellipse cx="328.5" cy="330.5" rx="111.5" ry="102.5" fill="url(#paint4_linear_95_418)"/>
<ellipse cx="774" cy="295.5" rx="111" ry="102.5" fill="url(#paint5_linear_95_418)"/>
<ellipse cx="461.5" cy="228.5" rx="111.5" ry="102.5" fill="url(#paint6_linear_95_418)"/>
<ellipse cx="613.5" cy="193" rx="111.5" ry="102" fill="url(#paint7_linear_95_418)"/>
<ellipse cx="894.5" cy="286.5" rx="76.5" ry="72.5" fill="url(#paint8_linear_95_418)"/>
<ellipse cx="274" cy="289.5" rx="76" ry="72.5" fill="url(#paint9_linear_95_418)"/>
<ellipse cx="662.5" cy="265.5" rx="76.5" ry="72.5" fill="url(#paint10_linear_95_418)"/>
<ellipse cx="537.5" cy="286.5" rx="76.5" ry="72.5" fill="url(#paint11_linear_95_418)"/>
<ellipse cx="76.5" cy="320" rx="76.5" ry="73" fill="url(#paint12_linear_95_418)"/>
<ellipse cx="205.5" cy="337" rx="103.5" ry="100" fill="url(#paint13_linear_95_418)"/>
<ellipse cx="182.5" cy="269" rx="78.5" ry="74" fill="url(#paint14_linear_95_418)"/>
<ellipse cx="382" cy="289.5" rx="111" ry="102.5" fill="url(#paint15_linear_95_418)"/>
<defs>
<linearGradient id="paint0_linear_95_418" x1="424.5" y1="0" x2="424.5" y2="279" gradientUnits="userSpaceOnUse">
<stop stop-color="white"/>
<stop offset="1" stop-color="#EFF9F9"/>
</linearGradient>
<linearGradient id="paint1_linear_95_418" x1="298" y1="75" x2="298" y2="279" gradientUnits="userSpaceOnUse">
<stop stop-color="white"/>
<stop offset="1" stop-color="#EFF9F9"/>
</linearGradient>
<linearGradient id="paint2_linear_95_418" x1="466.5" y1="210" x2="466.5" y2="414" gradientUnits="userSpaceOnUse">
<stop stop-color="white"/>
<stop offset="1" stop-color="#EFF9F9"/>
</linearGradient>
<linearGradient id="paint3_linear_95_418" x1="610" y1="226" x2="610" y2="430" gradientUnits="userSpaceOnUse">
<stop stop-color="white"/>
<stop offset="1" stop-color="#EFF9F9"/>
</linearGradient>
<linearGradient id="paint4_linear_95_418" x1="328.5" y1="228" x2="328.5" y2="433" gradientUnits="userSpaceOnUse">
<stop stop-color="white"/>
<stop offset="1" stop-color="#EFF9F9"/>
</linearGradient>
<linearGradient id="paint5_linear_95_418" x1="774" y1="193" x2="774" y2="398" gradientUnits="userSpaceOnUse">
<stop stop-color="white"/>
<stop offset="1" stop-color="#EFF9F9"/>
</linearGradient>
<linearGradient id="paint6_linear_95_418" x1="461.5" y1="126" x2="461.5" y2="331" gradientUnits="userSpaceOnUse">
<stop stop-color="white"/>
<stop offset="1" stop-color="#EFF9F9"/>
</linearGradient>
<linearGradient id="paint7_linear_95_418" x1="613.5" y1="91" x2="613.5" y2="295" gradientUnits="userSpaceOnUse">
<stop stop-color="white"/>
<stop offset="1" stop-color="#EFF9F9"/>
</linearGradient>
<linearGradient id="paint8_linear_95_418" x1="894.5" y1="214" x2="894.5" y2="359" gradientUnits="userSpaceOnUse">
<stop stop-color="white"/>
<stop offset="1" stop-color="#EFF9F9"/>
</linearGradient>
<linearGradient id="paint9_linear_95_418" x1="274" y1="217" x2="274" y2="362" gradientUnits="userSpaceOnUse">
<stop stop-color="white"/>
<stop offset="1" stop-color="#EFF9F9"/>
</linearGradient>
<linearGradient id="paint10_linear_95_418" x1="662.5" y1="193" x2="662.5" y2="338" gradientUnits="userSpaceOnUse">
<stop stop-color="white"/>
<stop offset="1" stop-color="#EFF9F9"/>
</linearGradient>
<linearGradient id="paint11_linear_95_418" x1="537.5" y1="214" x2="537.5" y2="359" gradientUnits="userSpaceOnUse">
<stop stop-color="white"/>
<stop offset="1" stop-color="#EFF9F9"/>
</linearGradient>
<linearGradient id="paint12_linear_95_418" x1="76.5" y1="247" x2="76.5" y2="393" gradientUnits="userSpaceOnUse">
<stop stop-color="white"/>
<stop offset="1" stop-color="#EFF9F9"/>
</linearGradient>
<linearGradient id="paint13_linear_95_418" x1="205.5" y1="237" x2="205.5" y2="437" gradientUnits="userSpaceOnUse">
<stop stop-color="white"/>
<stop offset="1" stop-color="#EFF9F9"/>
</linearGradient>
<linearGradient id="paint14_linear_95_418" x1="182.5" y1="195" x2="182.5" y2="343" gradientUnits="userSpaceOnUse">
<stop stop-color="white"/>
<stop offset="1" stop-color="#EFF9F9"/>
</linearGradient>
<linearGradient id="paint15_linear_95_418" x1="382" y1="187" x2="382" y2="392" gradientUnits="userSpaceOnUse">
<stop stop-color="white"/>
<stop offset="1" stop-color="#EFF9F9"/>
</linearGradient>
</defs>
</svg>
