<svg width="341" height="413" viewBox="0 0 341 413" fill="none" xmlns="http://www.w3.org/2000/svg">
<path d="M272.085 231.36C272.085 254.738 238.772 303.912 197.678 303.912C156.585 303.912 65.3026 237.003 65.3026 239.422C65.3026 239.422 12.527 65.2968 213.252 0C213.252 3.22453 148.393 54.0109 272.085 231.36Z" fill="#FF755E"/>
<path d="M269.75 236.987C269.75 236.987 194.88 245.716 159.074 236.987C123.269 228.258 102.707 190.295 113.147 152.194C123.588 114.092 195.943 68.1179 196.09 69.5441C201.697 123.794 280.19 198.885 269.75 236.987Z" fill="#FF755E"/>
<path d="M109.962 265.115C109.962 294.577 85.7305 318.461 55.8399 318.461C25.9493 318.461 0 280.837 0 251.374C0 221.912 1.71815 175.396 44.6719 130.133C55.8399 202.878 109.962 235.653 109.962 265.115Z" fill="#FF755E"/>
<path d="M230.232 297.057C230.232 331.198 254.463 358.875 284.354 358.875C314.245 358.875 340.194 315.276 340.194 281.135C340.194 246.994 338.476 193.091 295.522 140.64C284.354 224.937 230.232 262.916 230.232 297.057Z" fill="#FF755E"/>
<path d="M339.335 292.596C339.335 347.95 282.636 415.454 162.365 412.221C48.9673 405.755 1.71814 317.235 1.71814 261.882C1.71814 206.528 103.058 211.769 162.365 211.769C221.672 211.769 339.335 237.243 339.335 292.596Z" fill="#FF755E"/>
<path d="M67.0079 286.163C67.0079 301.194 87.3661 332.811 112.479 332.811C137.592 332.811 193.375 289.791 193.375 291.346C193.375 291.346 225.627 179.391 102.961 137.407C102.961 139.48 187.953 210.152 67.0079 286.163Z" fill="#FF9A5C"/>
<path d="M257.068 315.607C257.068 315.607 205.701 322.03 181.135 315.607C156.57 309.184 142.462 281.249 149.625 253.211C156.789 225.174 206.43 191.345 206.531 192.394C210.378 232.314 264.231 287.57 257.068 315.607Z" fill="#FF9A5C"/>
<path d="M130.77 314.333C130.77 333.276 115.962 348.632 97.6959 348.632C79.4294 348.632 63.5715 324.441 63.5715 305.498C63.5715 286.555 64.6215 256.647 90.8711 227.544C97.6959 274.316 130.77 295.389 130.77 314.333Z" fill="#FF9A5C"/>
<path d="M204.269 334.87C204.269 356.821 219.077 374.616 237.343 374.616C255.61 374.616 271.468 346.583 271.468 324.632C271.468 302.681 270.418 268.024 244.168 234.299C237.343 288.499 204.269 312.918 204.269 334.87Z" fill="#FF9A5C"/>
<path d="M270.943 332.002C270.943 367.592 236.293 410.995 162.795 408.916C93.496 404.759 64.6215 347.844 64.6215 312.254C64.6215 276.663 126.552 280.033 162.795 280.033C199.038 280.033 270.943 296.412 270.943 332.002Z" fill="#FF9A5C"/>
<path d="M209.231 335.824C209.231 345.15 197.117 364.768 182.174 364.768C167.231 364.768 134.037 338.075 134.037 339.04C134.037 339.04 113.398 296.062 184.701 262.114C184.701 262.114 180.456 296.247 209.231 335.824Z" fill="#FFD15C"/>
<path d="M196.8 351.048C196.8 351.048 166.235 355.033 151.617 351.048C137 347.063 128.605 329.729 132.867 312.333C137.13 294.937 166.669 273.946 166.729 274.597C169.018 299.366 201.062 333.652 196.8 351.048Z" fill="#FFD15C"/>
<path d="M148.23 350.258C148.23 362.012 139.418 371.54 128.549 371.54C117.68 371.54 108.244 356.53 108.244 344.776C108.244 333.022 108.868 314.465 124.488 296.407C128.549 325.429 148.23 338.504 148.23 350.258Z" fill="#FFD15C"/>
<path d="M191.964 363.001C191.964 376.622 200.776 387.663 211.645 387.663C222.514 387.663 231.95 370.269 231.95 356.649C231.95 343.029 231.326 321.524 215.706 300.599C211.645 334.229 191.964 349.381 191.964 363.001Z" fill="#FFD15C"/>
<path d="M231.638 361.222C231.638 383.305 211.02 410.236 167.285 408.946C126.05 406.366 108.868 371.051 108.868 348.968C108.868 326.885 145.719 328.976 167.285 328.976C188.852 328.976 231.638 339.139 231.638 361.222Z" fill="#FFD15C"/>
</svg>
