<svg width="424" height="429" viewBox="0 0 424 429" fill="none" xmlns="http://www.w3.org/2000/svg">
<path d="M285.532 188.979C217.269 190.981 222.334 244.371 218.421 130.644C216.259 67.8351 192.647 -10.3953 279.267 6.92661C365.887 24.2483 396.74 95.5236 401.111 106.537C449.951 229.604 353.795 186.977 285.532 188.979Z" fill="url(#paint0_linear_95_378)"/>
<path d="M224.198 198.264C224.198 198.264 229.16 203.769 272.74 294.098C292.482 335.016 294.208 378.892 254.819 395.864C186.163 425.445 153.773 360.293 149.265 353.127C81.757 245.813 224.198 198.264 224.198 198.264Z" fill="url(#paint1_linear_95_378)"/>
<path d="M213.237 198.646C240.918 212.752 160.663 184.483 133.788 272.567C104.335 369.105 63.9214 298.764 45.3997 275.213C2.28929 220.397 38.3783 177.301 44.2149 170.864C60.8622 152.504 106.712 144.36 213.237 198.646Z" fill="url(#paint2_linear_95_378)"/>
<path d="M262.998 251.666C238.283 202.623 170.743 199.46 306.689 197.188C353.454 196.406 383.69 203.982 399.675 263.909C415.659 323.835 370.949 337.624 363.905 339.471C285.203 360.109 287.713 300.71 262.998 251.666Z" fill="url(#paint3_linear_95_378)"/>
<path d="M148.204 164.708C252.443 204.065 219.937 240.555 220.835 124.666C221.212 76.0048 222.979 44.5386 151.785 22.4661C80.5913 0.393402 57.6365 45.2704 54.4183 52.3702C18.4586 131.703 91.5199 134.634 148.204 164.708Z" fill="url(#paint4_linear_95_378)"/>
<path d="M215.348 170.471C225.561 187.471 230.292 203.069 225.914 205.31C221.536 207.552 209.707 195.587 199.494 178.587C165.321 114.314 110.811 50.2842 109.98 45.2026C108.487 40.4589 159.911 87.8511 215.348 170.471Z" fill="url(#paint5_linear_95_378)"/>
<path d="M215.459 169.746C211.394 188.819 213.28 205.223 219.672 206.384C226.064 207.545 234.542 193.024 238.607 173.95C248.602 102.887 283.328 27.2537 281.856 22.0775C281.347 17.0762 242.237 75.6763 215.459 169.746Z" fill="url(#paint6_linear_95_378)"/>
<path d="M202.748 180.217C206.304 196.75 216.094 208.887 224.614 207.325C233.135 205.764 237.159 191.095 233.603 174.562C213.91 114.955 223.079 42.1982 218.892 38.7077C215.991 34.9813 193.622 96.0731 202.748 180.217Z" fill="url(#paint7_linear_95_378)"/>
<defs>
<linearGradient id="paint0_linear_95_378" x1="412.867" y1="113.581" x2="162.927" y2="4.82958" gradientUnits="userSpaceOnUse">
<stop stop-color="#FFC7F3"/>
<stop offset="1" stop-color="#F987E0"/>
</linearGradient>
<linearGradient id="paint1_linear_95_378" x1="93.9642" y1="387.154" x2="365.895" y2="343.967" gradientUnits="userSpaceOnUse">
<stop stop-color="#FFC7F3"/>
<stop offset="1" stop-color="#F987E0"/>
</linearGradient>
<linearGradient id="paint2_linear_95_378" x1="175.413" y1="69.5418" x2="83.4461" y2="233.296" gradientUnits="userSpaceOnUse">
<stop stop-color="#FFC7F3"/>
<stop offset="1" stop-color="#F987E0"/>
</linearGradient>
<linearGradient id="paint3_linear_95_378" x1="315.519" y1="377.396" x2="330.817" y2="174.491" gradientUnits="userSpaceOnUse">
<stop stop-color="#FFC7F3"/>
<stop offset="1" stop-color="#F987E0"/>
</linearGradient>
<linearGradient id="paint4_linear_95_378" x1="1.87633" y1="121.023" x2="251.208" y2="79.6667" gradientUnits="userSpaceOnUse">
<stop stop-color="#FFC7F3"/>
<stop offset="1" stop-color="#F987E0"/>
</linearGradient>
<linearGradient id="paint5_linear_95_378" x1="121.279" y1="39.1292" x2="210.415" y2="213.245" gradientUnits="userSpaceOnUse">
<stop stop-color="#FEFFF4"/>
<stop offset="1" stop-color="#FFEFB1"/>
</linearGradient>
<linearGradient id="paint6_linear_95_378" x1="265.217" y1="18.798" x2="230.781" y2="208.401" gradientUnits="userSpaceOnUse">
<stop stop-color="#FEFFF4"/>
<stop offset="1" stop-color="#FFEFB1"/>
</linearGradient>
<linearGradient id="paint7_linear_95_378" x1="196.597" y1="42.5704" x2="226.721" y2="206.939" gradientUnits="userSpaceOnUse">
<stop stop-color="#FEFFF4"/>
<stop offset="1" stop-color="#FFEFB1"/>
</linearGradient>
</defs>
</svg>
