<svg width="258" height="360" viewBox="0 0 258 360" fill="none" xmlns="http://www.w3.org/2000/svg">
<path d="M94.6287 0L111.357 84.8535L189.257 103.075L111.357 121.296L94.6287 206.149L77.9005 121.296L0 103.075L77.9005 84.8535L94.6287 0Z" fill="url(#paint0_radial_95_377)"/>
<path d="M129.641 234.102L139.845 285.877L187.365 296.995L139.845 308.113L129.641 359.888L119.437 308.113L71.9178 296.995L119.437 285.877L129.641 234.102Z" fill="url(#paint1_radial_95_377)"/>
<path d="M210.076 148.498L218.44 190.924L257.39 200.035L218.44 209.146L210.076 251.572L201.712 209.146L162.761 200.035L201.712 190.924L210.076 148.498Z" fill="url(#paint2_radial_95_377)"/>
<defs>
<radialGradient id="paint0_radial_95_377" cx="0" cy="0" r="1" gradientUnits="userSpaceOnUse" gradientTransform="translate(94.6287 103.075) rotate(90) scale(180.817 166.001)">
<stop stop-color="white"/>
<stop offset="0.192308" stop-color="#FFF587"/>
<stop offset="1" stop-color="#FF8000" stop-opacity="0.6"/>
</radialGradient>
<radialGradient id="paint1_radial_95_377" cx="0" cy="0" r="1" gradientUnits="userSpaceOnUse" gradientTransform="translate(129.641 296.995) rotate(90) scale(110.329 101.261)">
<stop stop-color="white"/>
<stop offset="0.192308" stop-color="#FFF587"/>
<stop offset="1" stop-color="#FF8000" stop-opacity="0.6"/>
</radialGradient>
<radialGradient id="paint2_radial_95_377" cx="0" cy="0" r="1" gradientUnits="userSpaceOnUse" gradientTransform="translate(210.076 200.035) rotate(90) scale(90.4087 83.0006)">
<stop stop-color="white"/>
<stop offset="0.192308" stop-color="#FFF587"/>
<stop offset="1" stop-color="#FF8000" stop-opacity="0.6"/>
</radialGradient>
</defs>
</svg>
