<svg width="536" height="499" viewBox="0 0 536 499" fill="none" xmlns="http://www.w3.org/2000/svg">
<path d="M258.135 256.152C100.284 313.428 36.4337 202.492 44.4566 130.448C52.4794 58.4035 127.211 7.59789 211.374 16.9703C295.537 26.3427 520.605 184.225 520.605 184.225C520.605 184.225 454.769 158.283 258.135 256.152Z" fill="#96D3FF"/>
<path d="M237.375 203.542C120.671 245.888 73.4642 163.869 79.3958 110.605C85.3273 57.3401 140.579 19.7778 202.803 26.7072C265.028 33.6365 431.428 150.364 431.428 150.364C431.428 150.364 382.753 131.184 237.375 203.542Z" fill="#A6DAFF"/>
<path d="M227.194 168.473C137.647 200.965 101.425 138.032 105.977 97.1622C110.528 56.2921 152.923 27.4706 200.668 32.7875C248.413 38.1044 376.091 127.669 376.091 127.669C376.091 127.669 338.743 112.953 227.194 168.473Z" fill="#C0E5FF"/>
<path d="M398.511 396.79C352.283 493.08 273.89 471.094 245.466 434.788C217.042 398.481 228.383 342.131 270.797 308.926C313.211 275.721 485.755 247.274 485.755 247.274C485.755 247.274 444.293 264.792 398.511 396.79Z" fill="#96D3FF"/>
<path d="M365.66 382.126C331.482 453.316 273.523 437.062 252.509 410.219C231.494 383.376 239.879 341.715 271.237 317.165C302.595 292.616 430.162 271.584 430.162 271.584C430.162 271.584 399.508 284.536 365.66 382.126Z" fill="#A6DAFF"/>
<path d="M345.424 370.723C319.199 425.347 274.727 412.875 258.603 392.279C242.478 371.683 248.912 339.716 272.973 320.879C297.034 302.042 394.916 285.904 394.916 285.904C394.916 285.904 371.396 295.842 345.424 370.723Z" fill="#C0E5FF"/>
<path d="M150.87 425.205C112.795 496.365 55.4027 476.602 35.6911 447.959C15.9794 419.315 26.5882 377.05 59.3865 353.557C92.1847 330.064 221.481 315.32 221.481 315.32C221.481 315.32 189.998 326.96 150.87 425.205Z" fill="#96D3FF"/>
<path d="M127.031 412.791C98.8805 465.402 56.4488 450.791 41.8753 429.614C27.3019 408.437 35.1453 377.189 59.3941 359.82C83.6429 342.45 179.236 331.55 179.236 331.55C179.236 331.55 155.959 340.156 127.031 412.791Z" fill="#A6DAFF"/>
<path d="M112.438 403.348C90.838 443.717 58.2802 432.506 47.0979 416.256C35.9157 400.007 41.934 376.031 60.5401 362.703C79.1463 349.375 152.495 341.011 152.495 341.011C152.495 341.011 134.635 347.615 112.438 403.348Z" fill="#C0E5FF"/>
<path d="M222.592 91.6347C180.005 94.1466 164.169 73.258 167.05 61.838C169.931 50.4181 190.339 45.3595 212.632 50.5394C234.925 55.7192 293.164 91.2657 293.164 91.2657C293.164 91.2657 275.918 84.174 222.592 91.6347Z" fill="white"/>
<path d="M329.769 331.588C302.061 358.367 279.089 354.268 274.432 345.209C269.775 336.151 280.815 320.835 299.089 311.001C317.364 301.166 377.886 289.656 377.886 289.656C377.886 289.656 361.958 295.276 329.769 331.588Z" fill="white"/>
<path d="M111.713 368.909C93.8872 382.971 80.869 380.729 78.7809 375.926C76.6927 371.124 84.1059 363.066 95.3386 357.928C106.571 352.791 142.362 346.906 142.362 346.906C142.362 346.906 132.769 349.824 111.713 368.909Z" fill="white"/>
</svg>
