<svg width="57" height="62" viewBox="0 0 57 62" fill="none" xmlns="http://www.w3.org/2000/svg">
<rect x="37.6923" y="49.6131" width="3.76923" height="3.81639" fill="black"/>
<rect x="41.4615" y="53.4295" width="3.76923" height="3.81639" fill="black"/>
<rect x="33.923" y="49.6131" width="3.76923" height="3.81639" fill="black"/>
<rect x="45.2308" y="53.4295" width="3.76923" height="3.81639" fill="black"/>
<rect x="45.2308" y="49.6131" width="3.76923" height="3.81639" fill="black"/>
<rect x="41.4615" y="49.6131" width="3.76923" height="3.81639" fill="black"/>
<rect x="37.6923" y="53.4295" width="3.76923" height="3.81639" fill="black"/>
<rect x="33.923" y="53.4295" width="3.76923" height="3.81639" fill="black"/>
<rect x="49" y="49.6131" width="3.76923" height="3.81639" fill="black"/>
<rect x="45.2308" y="45.7967" width="3.76923" height="3.81639" fill="black"/>
<rect x="41.4615" y="45.7967" width="3.76923" height="3.81639" fill="black"/>
<rect x="18.8462" y="57.2458" width="3.76923" height="3.81639" fill="black"/>
<rect x="30.1538" y="53.4295" width="3.76923" height="3.81639" fill="black"/>
<rect x="22.6154" y="53.4295" width="3.76923" height="3.81639" fill="black"/>
<rect x="18.8462" y="49.6131" width="3.76923" height="3.81639" fill="black"/>
<rect x="7.53845" y="53.4295" width="3.76923" height="3.81639" fill="black"/>
<rect x="11.3077" y="53.4295" width="3.76923" height="3.81639" fill="black"/>
<rect x="15.077" y="53.4295" width="3.76923" height="3.81639" fill="black"/>
<rect x="18.8462" y="53.4295" width="3.76923" height="3.81639" fill="black"/>
<rect x="22.6154" y="57.2458" width="3.76923" height="3.81639" fill="black"/>
<rect x="30.1538" y="57.2458" width="3.76923" height="3.81639" fill="black"/>
<rect x="15.077" y="49.6131" width="3.76923" height="3.81639" fill="black"/>
<rect x="7.53845" y="49.6131" width="3.76923" height="3.81639" fill="black"/>
<rect x="11.3077" y="49.6131" width="3.76923" height="3.81639" fill="black"/>
<rect x="11.3077" y="45.7967" width="3.76923" height="3.81639" fill="black"/>
<rect x="7.53845" y="45.7967" width="3.76923" height="3.81639" fill="black"/>
<rect x="3.76923" y="49.6131" width="3.76923" height="3.81639" fill="black"/>
<rect x="49" y="53.4295" width="3.76923" height="3.81639" fill="black"/>
<rect x="3.76923" y="53.4295" width="3.76923" height="3.81639" fill="black"/>
<rect x="7.53845" y="57.2458" width="3.76923" height="3.81639" fill="black"/>
<rect x="45.2308" y="57.2458" width="3.76923" height="3.81639" fill="black"/>
<rect x="11.3077" y="57.2458" width="3.76923" height="3.81639" fill="black"/>
<rect x="41.4615" y="57.2458" width="3.76923" height="3.81639" fill="black"/>
<rect x="15.077" y="57.2458" width="3.76923" height="3.81639" fill="black"/>
<rect x="37.6923" y="57.2458" width="3.76923" height="3.81639" fill="black"/>
<rect x="33.923" y="57.2458" width="3.76923" height="3.81639" fill="black"/>
<rect x="15.077" y="45.7967" width="3.76923" height="3.81639" fill="#FDDFC6"/>
<rect x="33.923" y="38.1639" width="3.76923" height="3.81639" fill="#FDDFC6"/>
<rect x="30.1538" y="38.1639" width="3.76923" height="3.81639" fill="#FDDFC6"/>
<rect x="26.3846" y="38.1639" width="3.76923" height="3.81639" fill="#FDDFC6"/>
<rect x="22.6154" y="38.1639" width="3.76923" height="3.81639" fill="#FDDFC6"/>
<rect x="18.8462" y="38.1639" width="3.76923" height="3.81639" fill="#FDDFC6"/>
<rect x="37.6923" y="41.9803" width="3.76923" height="3.81639" fill="#FDDFC6"/>
<rect x="30.1538" y="41.9803" width="3.76923" height="3.81639" fill="#FDDFC6"/>
<rect x="33.923" y="41.9803" width="3.76923" height="3.81639" fill="#FDDFC6"/>
<rect x="26.3846" y="41.9803" width="3.76923" height="3.81639" fill="#FDDFC6"/>
<rect x="22.6154" y="41.9803" width="3.76923" height="3.81639" fill="#FDDFC6"/>
<rect x="18.8462" y="41.9803" width="3.76923" height="3.81639" fill="#FDDFC6"/>
<rect x="15.077" y="41.9803" width="3.76923" height="3.81639" fill="#FDDFC6"/>
<rect x="22.6154" y="49.6131" width="3.76923" height="3.81639" fill="#FDDFC6"/>
<rect x="26.3846" y="49.6131" width="3.76923" height="3.81639" fill="#FDDFC6"/>
<rect x="30.1538" y="49.6131" width="3.76923" height="3.81639" fill="#FDDFC6"/>
<rect x="18.8462" y="45.7967" width="3.76923" height="3.81639" fill="#FDDFC6"/>
<rect x="22.6154" y="45.7967" width="3.76923" height="3.81639" fill="#FDDFC6"/>
<rect x="26.3846" y="45.7967" width="3.76923" height="3.81639" fill="#FDDFC6"/>
<rect x="30.1538" y="45.7967" width="3.76923" height="3.81639" fill="#FDDFC6"/>
<rect x="33.923" y="45.7967" width="3.76923" height="3.81639" fill="#FDDFC6"/>
<rect x="37.6923" y="45.7967" width="3.76923" height="3.81639" fill="#FDDFC6"/>
<rect x="49" y="22.8983" width="3.76923" height="3.81639" fill="#963906"/>
<rect x="3.76923" y="22.8983" width="3.76923" height="3.81639" fill="#963906"/>
<rect x="3.76923" y="30.5311" width="49" height="3.81639" fill="#963906"/>
<rect x="3.76923" y="26.7147" width="49" height="3.81639" fill="#963906"/>
<rect x="3.76923" y="19.082" width="49" height="3.81639" fill="#963906"/>
<rect x="7.53845" y="15.2656" width="41.4615" height="3.81639" fill="#963906"/>
<rect x="11.3077" y="11.4492" width="33.9231" height="3.81639" fill="#963906"/>
<rect x="15.077" y="7.63278" width="26.3846" height="3.81639" fill="#963906"/>
<rect x="18.8462" y="3.81638" width="18.8462" height="3.81639" fill="#963906"/>
<rect x="22.6154" width="11.3077" height="3.81639" fill="#963906"/>
<rect x="3.76923" y="22.8983" width="49" height="3.81639" fill="#963906"/>
<rect y="26.7147" width="3.76923" height="3.81639" fill="#963906"/>
<rect x="52.7692" y="26.7147" width="3.76923" height="3.81639" fill="#963906"/>
<rect x="52.7692" y="30.5311" width="3.76923" height="3.81639" fill="#963906"/>
<rect y="30.5311" width="3.76923" height="3.81639" fill="#963906"/>
<rect x="3.76923" y="34.3475" width="49" height="3.81639" fill="#963906"/>
<rect x="52.7692" y="34.3475" width="3.76923" height="3.81639" fill="#963906"/>
<rect x="11.3077" y="34.3475" width="3.76923" height="3.81639" fill="#FFD7F0"/>
<rect x="11.3077" y="30.5311" width="3.76923" height="3.81639" fill="#FFD7F0"/>
<rect x="15.077" y="34.3475" width="3.76923" height="3.81639" fill="#FFD7F0"/>
<rect x="37.6923" y="34.3475" width="3.76923" height="3.81639" fill="#FFD7F0"/>
<rect x="41.4615" y="30.5311" width="3.76923" height="3.81639" fill="#FFD7F0"/>
<rect x="41.4615" y="34.3475" width="3.76923" height="3.81639" fill="#FFD7F0"/>
<rect x="45.2308" y="30.5311" width="3.76923" height="3.81639" fill="#FFD7F0"/>
<rect x="7.53845" y="30.5311" width="3.76923" height="3.81639" fill="#FFD7F0"/>
<rect y="34.3475" width="3.76923" height="3.81639" fill="#963906"/>
<rect x="3.76923" y="38.1639" width="3.76923" height="3.81639" fill="#963906"/>
<rect x="7.53845" y="38.1639" width="3.76923" height="3.81639" fill="#963906"/>
<rect x="11.3077" y="38.1639" width="3.76923" height="3.81639" fill="#963906"/>
<rect x="49" y="38.1639" width="3.76923" height="3.81639" fill="#963906"/>
<rect x="45.2308" y="38.1639" width="3.76923" height="3.81639" fill="#963906"/>
<rect x="41.4615" y="38.1639" width="3.76923" height="3.81639" fill="#963906"/>
<rect x="37.6923" y="38.1639" width="3.76923" height="3.81639" fill="#963906"/>
<rect x="15.077" y="38.1639" width="3.76923" height="3.81639" fill="#963906"/>
<rect x="22.6154" y="22.8983" width="11.3077" height="3.81639" fill="black"/>
<rect x="41.4615" y="15.2656" width="3.76923" height="3.81639" fill="black"/>
<rect x="33.923" y="19.082" width="3.76923" height="3.81639" fill="black"/>
<rect x="18.8462" y="19.082" width="3.76923" height="3.81639" fill="black"/>
<rect x="37.6923" y="15.2656" width="3.76923" height="3.81639" fill="black"/>
<rect x="11.3077" y="15.2656" width="3.76923" height="3.81639" fill="black"/>
<rect x="15.077" y="15.2656" width="3.76923" height="3.81639" fill="black"/>
<rect x="18.8462" y="22.8983" width="3.76923" height="3.81639" fill="black"/>
<rect x="18.8462" y="26.7147" width="3.76923" height="3.81639" fill="black"/>
<rect x="33.923" y="26.7147" width="3.76923" height="3.81639" fill="black"/>
<rect x="33.923" y="22.8983" width="3.76923" height="3.81639" fill="black"/>
<rect x="22.6154" y="30.5311" width="3.76923" height="3.81639" fill="white"/>
<rect x="30.1538" y="26.7147" width="3.76923" height="3.81639" fill="white"/>
<rect x="37.6923" y="30.5311" width="3.76923" height="3.81639" fill="white"/>
<rect x="18.8462" y="30.5311" width="3.76923" height="3.81639" fill="white"/>
<rect x="30.1538" y="30.5311" width="3.76923" height="3.81639" fill="white"/>
<rect x="15.077" y="19.082" width="3.76923" height="3.81639" fill="white"/>
<rect x="33.923" y="30.5311" width="3.76923" height="3.81639" fill="white"/>
<rect x="15.077" y="30.5311" width="3.76923" height="3.81639" fill="white"/>
<rect x="15.077" y="22.8983" width="3.76923" height="3.81639" fill="white"/>
<rect x="22.6154" y="26.7147" width="3.76923" height="3.81639" fill="white"/>
<rect x="37.6923" y="26.7147" width="3.76923" height="3.81639" fill="white"/>
<rect x="37.6923" y="22.8983" width="3.76923" height="3.81639" fill="white"/>
<rect x="37.6923" y="19.082" width="3.76923" height="3.81639" fill="white"/>
<rect x="15.077" y="26.7147" width="3.76923" height="3.81639" fill="white"/>
</svg>
