<svg width="61" height="62" viewBox="0 0 61 62" fill="none" xmlns="http://www.w3.org/2000/svg">
<rect x="3.76923" y="3.81641" width="52.7692" height="53.4295" fill="#FFC252"/>
<rect y="57.2459" width="60.3077" height="3.81639" fill="#792F00"/>
<rect x="7.53845" y="7.63278" width="3.76923" height="3.81639" fill="#792F00"/>
<rect x="48.9999" y="7.63278" width="3.76923" height="3.81639" fill="#792F00"/>
<rect x="48.9999" y="49.6132" width="3.76923" height="3.81639" fill="#792F00"/>
<rect x="7.53845" y="49.6132" width="3.76923" height="3.81639" fill="#792F00"/>
<rect x="56.5384" width="3.76923" height="57.2459" fill="#792F00"/>
<rect y="3.81641" width="3.76923" height="53.4295" fill="#FF9452"/>
<rect width="56.5385" height="3.81639" fill="#FF9452"/>
<rect x="18.8461" y="19.082" width="7.53846" height="11.4492" fill="#792F00"/>
<rect x="30.1538" y="45.7967" width="7.53846" height="7.63279" fill="#792F00"/>
<rect x="30.1538" y="34.3476" width="7.53846" height="7.63279" fill="#792F00"/>
<rect x="33.923" y="30.5312" width="11.3077" height="3.81639" fill="#792F00"/>
<rect x="37.6923" y="19.082" width="7.53846" height="11.4492" fill="#792F00"/>
<rect x="22.6154" y="15.2656" width="18.8462" height="3.81639" fill="#792F00"/>
<rect x="15.0768" y="15.2656" width="7.53846" height="11.4492" fill="#FF9452"/>
<rect x="26.3846" y="41.9804" width="7.53846" height="7.63279" fill="#FF9452"/>
<rect x="26.3846" y="30.5312" width="7.53846" height="7.63279" fill="#FF9452"/>
<rect x="30.1538" y="26.7148" width="11.3077" height="3.81639" fill="#FF9452"/>
<rect x="33.923" y="15.2656" width="7.53846" height="11.4492" fill="#FF9452"/>
<rect x="18.8461" y="11.4492" width="18.8462" height="3.81639" fill="#FF9452"/>
</svg>
