<svg width="53" height="70" viewBox="0 0 53 70" fill="none" xmlns="http://www.w3.org/2000/svg">
<rect y="65.8231" width="18.8462" height="3.87195" fill="black"/>
<rect x="3.76923" y="61.9512" width="15.0769" height="3.87195" fill="black"/>
<rect x="33.9231" y="61.9512" width="15.0769" height="3.87195" fill="black"/>
<rect x="33.9231" y="65.8231" width="18.8462" height="3.87195" fill="black"/>
<rect x="7.53845" y="54.2072" width="15.0769" height="7.74389" fill="#5CA0D0"/>
<rect x="11.3077" y="42.5914" width="30.1538" height="11.6158" fill="#5CA0D0"/>
<rect x="15.077" y="38.7195" width="22.6154" height="3.87195" fill="#5CA0D0"/>
<rect x="30.1538" y="54.2072" width="15.0769" height="7.74389" fill="#5CA0D0"/>
<rect x="18.8462" y="27.1036" width="3.76923" height="11.6158" fill="#5CA0D0"/>
<rect x="30.1538" y="30.9756" width="3.76923" height="7.74389" fill="#5CA0D0"/>
<rect x="18.8462" y="38.7195" width="3.76923" height="3.87195" fill="#FFEEB7"/>
<rect x="30.1538" y="38.7195" width="3.76923" height="3.87195" fill="#FFEEB7"/>
<rect x="22.6154" y="27.1036" width="7.53846" height="11.6158" fill="#FF8F8F"/>
<rect x="11.3077" y="27.1036" width="7.53846" height="11.6158" fill="#FF8F8F"/>
<rect x="33.9231" y="30.9756" width="7.53846" height="7.74389" fill="#FF8F8F"/>
<rect x="33.9231" y="30.9756" width="11.3077" height="7.74389" fill="#FF8F8F"/>
<rect x="37.6923" y="34.8475" width="11.3077" height="7.74389" fill="#FF8F8F"/>
<rect x="7.53845" y="3.87198" width="37.6923" height="3.87195" fill="#FF8F8F"/>
<rect x="11.3077" width="22.6154" height="3.87195" fill="#FF8F8F"/>
<rect x="41.4615" y="38.7195" width="11.3077" height="7.74389" fill="#FF8F8F"/>
<rect x="41.4615" y="38.7195" width="3.76923" height="11.6158" fill="#FF8F8F"/>
<rect x="7.53845" y="30.9756" width="3.76923" height="15.4878" fill="#FF8F8F"/>
<rect x="3.76923" y="34.8475" width="7.53846" height="15.4878" fill="#FF8F8F"/>
<rect y="38.7195" width="11.3077" height="7.74389" fill="#FF8F8F"/>
<rect x="11.3077" y="38.7195" width="3.76923" height="3.87195" fill="#FF8F8F"/>
<rect x="30.1538" y="27.1036" width="3.76923" height="3.87195" fill="#FF8F8F"/>
<rect x="45.2308" y="46.4633" width="7.53846" height="7.74389" fill="#FFD8A7"/>
<rect x="15.077" y="19.3597" width="26.3846" height="7.74389" fill="#FFD8A7"/>
<rect x="15.077" y="11.6158" width="30.1538" height="7.74389" fill="#FFD8A7"/>
<rect x="18.8462" y="15.4878" width="30.1538" height="3.87195" fill="#FFD8A7"/>
<rect x="7.53845" y="11.6158" width="7.53846" height="7.74389" fill="#FFD8A7"/>
<rect x="15.077" y="7.7439" width="22.6154" height="3.87195" fill="#FFD8A7"/>
<rect y="46.4633" width="3.76923" height="7.74389" fill="#FFD8A7"/>
<rect y="54.2072" width="7.53846" height="3.87195" fill="#FFD8A7"/>
<rect x="3.76923" y="50.3353" width="3.76923" height="3.87195" fill="#FFD8A7"/>
<rect x="45.2308" y="54.2072" width="7.53846" height="3.87195" fill="#FFD8A7"/>
<rect x="7.53845" y="50.3353" width="3.76923" height="3.87195" fill="#FFD8A7"/>
<rect x="41.4615" y="50.3353" width="3.76923" height="3.87195" fill="#FFD8A7"/>
<rect x="30.1538" y="11.6158" width="3.76923" height="3.87195" fill="black"/>
<rect x="30.1538" y="19.3597" width="15.0769" height="3.87195" fill="#9C4F39"/>
<rect x="7.53845" y="7.7439" width="11.3077" height="3.87195" fill="#9C4F39"/>
<rect x="11.3077" y="15.4878" width="7.53846" height="3.87195" fill="#9C4F39"/>
<rect x="7.53845" y="19.3597" width="7.53846" height="3.87195" fill="#9C4F39"/>
<rect x="11.3077" y="7.7439" width="3.76923" height="11.6158" fill="#9C4F39"/>
<rect x="3.76923" y="11.6158" width="3.76923" height="11.6158" fill="#9C4F39"/>
<rect x="33.9231" y="15.4878" width="3.76923" height="3.87195" fill="#9C4F39"/>
<rect x="30.1538" y="7.7439" width="3.76923" height="3.87195" fill="black"/>
</svg>
