<svg width="65" height="62" viewBox="0 0 65 62" fill="none" xmlns="http://www.w3.org/2000/svg">
<path d="M49 61.0625H15.0771V57.2461H49V61.0625ZM15.0771 57.2461H11.3076V53.4297H15.0771V57.2461ZM52.7695 57.2461H49V53.4297H52.7695V57.2461ZM15.0771 45.7969H11.3076V53.4297H7.53809V45.7969H3.76953V41.9805H15.0771V45.7969ZM60.3076 45.7969H56.5381V53.4297H52.7695V45.7969H49V41.9805H60.3076V45.7969ZM49 41.9805H41.4619V49.6133H37.6924V41.9805H26.3848V49.6133H22.6152V41.9805H15.0771V38.1641H49V41.9805ZM3.76953 41.9805H0V19.082H3.76953V41.9805ZM64.0771 41.9805H60.3076V19.082H64.0771V41.9805ZM7.53809 19.082H3.76953V11.4492H7.53809V19.082ZM60.3076 19.082H56.5381V11.4492H60.3076V19.082ZM11.3076 11.4492H7.53809V7.63281H11.3076V11.4492ZM56.5381 11.4492H52.7695V7.63281H56.5381V11.4492ZM18.8457 7.63281H11.3076V3.81641H18.8457V7.63281ZM52.7695 7.63281H45.2305V3.81641H52.7695V7.63281ZM45.2305 0V3.81641H18.8457V0H45.2305Z" fill="black"/>
<rect x="7.53845" y="19.082" width="3.76923" height="3.81639" fill="#FF007B"/>
<rect x="18.8461" y="3.81638" width="3.76923" height="3.81639" fill="#FF007B"/>
<rect x="26.3846" y="34.3475" width="3.76923" height="3.81639" fill="#FF007B"/>
<rect x="15.077" y="11.4492" width="3.76923" height="3.81639" fill="#FF007B"/>
<rect x="15.077" y="15.2656" width="3.76923" height="3.81639" fill="#FF007B"/>
<rect x="11.3077" y="15.2656" width="3.76923" height="3.81639" fill="#FF007B"/>
<rect x="18.8461" y="7.63278" width="3.76923" height="3.81639" fill="#FF00C8"/>
<rect x="33.9231" y="34.3475" width="3.76923" height="3.81639" fill="#FF00C8"/>
<rect x="18.8461" y="11.4492" width="3.76923" height="3.81639" fill="#FF00C8"/>
<rect x="30.1538" y="11.4492" width="3.76923" height="3.81639" fill="#FF00C8"/>
<rect x="26.3846" y="11.4492" width="3.76923" height="3.81639" fill="#FF00C8"/>
<rect x="33.9231" y="15.2656" width="3.76923" height="3.81639" fill="#FF00C8"/>
<rect x="37.6923" y="19.082" width="3.76923" height="3.81639" fill="#FF00C8"/>
<rect x="37.6923" y="22.8983" width="3.76923" height="3.81639" fill="#FF00C8"/>
<rect x="37.6923" y="26.7148" width="3.76923" height="3.81639" fill="#FF00C8"/>
<rect x="33.9231" y="30.5312" width="3.76923" height="3.81639" fill="#FF00C8"/>
<rect x="22.6154" y="3.81638" width="3.76923" height="3.81639" fill="#FF00C8"/>
<rect x="37.6923" y="30.5312" width="3.76923" height="3.81639" fill="#FF00C8"/>
<rect x="56.5385" y="38.1639" width="3.76923" height="3.81639" fill="#FF00C8"/>
<rect x="33.9231" y="3.81638" width="3.76923" height="3.81639" fill="#B700FF"/>
<rect x="45.2308" y="15.2656" width="3.76923" height="3.81639" fill="#EA00FF"/>
<rect x="49" y="15.2656" width="3.76923" height="3.81639" fill="#B700FF"/>
<rect x="41.4615" y="11.4492" width="3.76923" height="3.81639" fill="#EA00FF"/>
<rect x="37.6923" y="7.63278" width="3.76923" height="3.81639" fill="#EA00FF"/>
<rect x="41.4615" y="15.2656" width="3.76923" height="3.81639" fill="#EA00FF"/>
<rect x="26.3846" y="3.81638" width="3.76923" height="3.81639" fill="#EA00FF"/>
<rect x="37.6923" y="11.4492" width="3.76923" height="3.81639" fill="#EA00FF"/>
<rect x="45.2308" y="19.082" width="3.76923" height="3.81639" fill="#EA00FF"/>
<rect x="41.4615" y="19.082" width="3.76923" height="3.81639" fill="#EA00FF"/>
<rect x="41.4615" y="22.8983" width="3.76923" height="3.81639" fill="#EA00FF"/>
<rect x="37.6923" y="15.2656" width="3.76923" height="3.81639" fill="#EA00FF"/>
<rect x="33.9231" y="11.4492" width="3.76923" height="3.81639" fill="#EA00FF"/>
<rect x="30.1538" y="7.63278" width="3.76923" height="3.81639" fill="#EA00FF"/>
<rect x="33.9231" y="7.63278" width="3.76923" height="3.81639" fill="#EA00FF"/>
<rect x="30.1538" y="3.81638" width="3.76923" height="3.81639" fill="#EA00FF"/>
<rect x="56.5385" y="34.3475" width="3.76923" height="3.81639" fill="#EA00FF"/>
<rect x="52.7692" y="19.082" width="3.76923" height="3.81639" fill="#EA00FF"/>
<rect x="56.5385" y="22.8983" width="3.76923" height="3.81639" fill="#EA00FF"/>
<rect x="41.4615" y="26.7148" width="3.76923" height="3.81639" fill="#EA00FF"/>
<rect x="45.2308" y="22.8983" width="3.76923" height="3.81639" fill="#EA00FF"/>
<rect x="49" y="19.082" width="3.76923" height="3.81639" fill="#EA00FF"/>
<rect x="56.5385" y="19.082" width="3.76923" height="3.81639" fill="#B700FF"/>
<rect x="37.6923" y="34.3475" width="3.76923" height="3.81639" fill="#FF00C8"/>
<rect x="45.2308" y="34.3475" width="3.76923" height="3.81639" fill="#FF00C8"/>
<rect x="49" y="38.1639" width="3.76923" height="3.81639" fill="#FF00C8"/>
<rect x="41.4615" y="30.5312" width="3.76923" height="3.81639" fill="#FF00C8"/>
<rect x="52.7692" y="38.1639" width="3.76923" height="3.81639" fill="#FF00C8"/>
<rect x="41.4615" y="34.3475" width="3.76923" height="3.81639" fill="#FF00C8"/>
<rect x="26.3846" y="7.63278" width="3.76923" height="3.81639" fill="#FF00C8"/>
<rect x="30.1538" y="34.3475" width="3.76923" height="3.81639" fill="#FF00C8"/>
<rect x="22.6154" y="11.4492" width="3.76923" height="3.81639" fill="#FF00C8"/>
<rect x="22.6154" y="7.63278" width="3.76923" height="3.81639" fill="#FF00C8"/>
<rect x="18.8461" y="34.3475" width="3.76923" height="3.81639" fill="#FF007B"/>
<rect x="15.077" y="34.3475" width="3.76923" height="3.81639" fill="#FF007B"/>
<rect x="11.3077" y="34.3475" width="3.76923" height="3.81639" fill="#FF007B"/>
<rect x="15.077" y="30.5312" width="3.76923" height="3.81639" fill="#FF007B"/>
<rect x="11.3077" y="19.082" width="3.76923" height="3.81639" fill="#FF007B"/>
<rect x="7.53845" y="38.1639" width="3.76923" height="3.81639" fill="#FF0037"/>
<rect x="11.3077" y="22.8983" width="3.76923" height="3.81639" fill="#FF007B"/>
<rect x="11.3077" y="26.7148" width="3.76923" height="3.81639" fill="#FF007B"/>
<rect x="7.53845" y="22.8983" width="3.76923" height="3.81639" fill="#FF007B"/>
<rect x="3.76923" y="19.082" width="3.76923" height="3.81639" fill="#FF007B"/>
<rect x="3.76923" y="22.8983" width="3.76923" height="3.81639" fill="#FF0037"/>
<rect x="7.53845" y="26.7148" width="3.76923" height="3.81639" fill="#FF007B"/>
<rect x="11.3077" y="30.5312" width="3.76923" height="3.81639" fill="#FF007B"/>
<rect x="22.6154" y="34.3475" width="3.76923" height="3.81639" fill="#FF007B"/>
<rect x="11.3077" y="38.1639" width="3.76923" height="3.81639" fill="#FF007B"/>
<rect x="22.6154" y="53.4295" width="3.76923" height="3.81639" fill="white"/>
<rect x="30.1538" y="41.9803" width="3.76923" height="3.81639" fill="white"/>
<rect x="22.6154" y="53.4295" width="3.76923" height="3.81639" fill="white"/>
<rect x="18.8461" y="53.4295" width="3.76923" height="3.81639" fill="white"/>
<rect x="15.077" y="53.4295" width="3.76923" height="3.81639" fill="white"/>
<rect x="11.3077" y="49.6131" width="3.76923" height="3.81639" fill="white"/>
<rect x="26.3846" y="53.4295" width="3.76923" height="3.81639" fill="white"/>
<rect x="30.1538" y="53.4295" width="3.76923" height="3.81639" fill="white"/>
<rect x="41.4615" y="53.4295" width="3.76923" height="3.81639" fill="white"/>
<rect x="33.9231" y="53.4295" width="3.76923" height="3.81639" fill="white"/>
<rect x="37.6923" y="53.4295" width="3.76923" height="3.81639" fill="white"/>
<rect x="45.2308" y="53.4295" width="3.76923" height="3.81639" fill="white"/>
<rect x="49" y="49.6131" width="3.76923" height="3.81639" fill="white"/>
<rect x="45.2308" y="49.6131" width="3.76923" height="3.81639" fill="white"/>
<rect x="41.4615" y="49.6131" width="3.76923" height="3.81639" fill="white"/>
<rect x="37.6923" y="49.6131" width="3.76923" height="3.81639" fill="white"/>
<rect x="33.9231" y="49.6131" width="3.76923" height="3.81639" fill="white"/>
<rect x="30.1538" y="49.6131" width="3.76923" height="3.81639" fill="white"/>
<rect x="26.3846" y="49.6131" width="3.76923" height="3.81639" fill="white"/>
<rect x="22.6154" y="49.6131" width="3.76923" height="3.81639" fill="white"/>
<rect x="18.8461" y="49.6131" width="3.76923" height="3.81639" fill="white"/>
<rect x="15.077" y="49.6131" width="3.76923" height="3.81639" fill="white"/>
<rect x="15.077" y="41.9803" width="3.76923" height="3.81639" fill="white"/>
<rect x="33.9231" y="41.9803" width="3.76923" height="3.81639" fill="white"/>
<rect x="26.3846" y="41.9803" width="3.76923" height="3.81639" fill="white"/>
<rect x="41.4615" y="41.9803" width="3.76923" height="3.81639" fill="white"/>
<rect x="45.2308" y="41.9803" width="3.76923" height="3.81639" fill="white"/>
<rect x="18.8461" y="41.9803" width="3.76923" height="3.81639" fill="white"/>
<rect x="26.3846" y="19.082" width="3.76923" height="3.81639" fill="white"/>
<rect x="11.3077" y="45.7967" width="3.76923" height="3.81639" fill="white"/>
<rect x="49" y="45.7967" width="3.76923" height="3.81639" fill="white"/>
<rect x="45.2308" y="45.7967" width="3.76923" height="3.81639" fill="white"/>
<rect x="41.4615" y="45.7967" width="3.76923" height="3.81639" fill="white"/>
<rect x="33.9231" y="45.7967" width="3.76923" height="3.81639" fill="white"/>
<rect x="30.1538" y="45.7967" width="3.76923" height="3.81639" fill="white"/>
<rect x="26.3846" y="45.7967" width="3.76923" height="3.81639" fill="white"/>
<rect x="18.8461" y="45.7967" width="3.76923" height="3.81639" fill="white"/>
<rect x="15.077" y="45.7967" width="3.76923" height="3.81639" fill="white"/>
<rect x="3.76923" y="38.1639" width="3.76923" height="3.81639" fill="white"/>
<rect x="7.53845" y="34.3475" width="3.76923" height="3.81639" fill="white"/>
<rect x="3.76923" y="34.3475" width="3.76923" height="3.81639" fill="white"/>
<rect x="3.76923" y="30.5312" width="3.76923" height="3.81639" fill="white"/>
<rect x="7.53845" y="30.5312" width="3.76923" height="3.81639" fill="white"/>
<rect x="3.76923" y="26.7148" width="3.76923" height="3.81639" fill="white"/>
<rect x="15.077" y="19.082" width="3.76923" height="3.81639" fill="white"/>
<rect x="18.8461" y="15.2656" width="3.76923" height="3.81639" fill="white"/>
<rect x="22.6154" y="15.2656" width="3.76923" height="3.81639" fill="white"/>
<rect x="26.3846" y="15.2656" width="3.76923" height="3.81639" fill="white"/>
<rect x="30.1538" y="15.2656" width="3.76923" height="3.81639" fill="white"/>
<rect x="30.1538" y="19.082" width="3.76923" height="3.81639" fill="white"/>
<rect x="18.8461" y="30.5312" width="3.76923" height="3.81639" fill="white"/>
<rect x="22.6154" y="19.082" width="3.76923" height="3.81639" fill="white"/>
<rect x="18.8461" y="19.082" width="3.76923" height="3.81639" fill="white"/>
<rect x="15.077" y="7.63278" width="3.76923" height="3.81639" fill="white"/>
<rect x="11.3077" y="7.63278" width="3.76923" height="3.81639" fill="white"/>
<rect x="11.3077" y="11.4492" width="3.76923" height="3.81639" fill="white"/>
<rect x="7.53845" y="11.4492" width="3.76923" height="3.81639" fill="white"/>
<rect x="7.53845" y="15.2656" width="3.76923" height="3.81639" fill="white"/>
<rect x="15.077" y="19.082" width="3.76923" height="3.81639" fill="white"/>
<rect x="33.9231" y="19.082" width="3.76923" height="3.81639" fill="white"/>
<rect x="15.077" y="22.8983" width="3.76923" height="3.81639" fill="white"/>
<rect x="22.6154" y="22.8983" width="3.76923" height="3.81639" fill="white"/>
<rect x="18.8461" y="22.8983" width="3.76923" height="3.81639" fill="white"/>
<rect x="26.3846" y="22.8983" width="3.76923" height="3.81639" fill="white"/>
<rect x="30.1538" y="22.8983" width="3.76923" height="3.81639" fill="white"/>
<rect x="33.9231" y="22.8983" width="3.76923" height="3.81639" fill="white"/>
<rect x="26.3846" y="26.7148" width="3.76923" height="3.81639" fill="white"/>
<rect x="22.6154" y="26.7148" width="3.76923" height="3.81639" fill="white"/>
<rect x="18.8461" y="26.7148" width="3.76923" height="3.81639" fill="white"/>
<rect x="15.077" y="26.7148" width="3.76923" height="3.81639" fill="white"/>
<rect x="30.1538" y="26.7148" width="3.76923" height="3.81639" fill="white"/>
<rect x="33.9231" y="26.7148" width="3.76923" height="3.81639" fill="white"/>
<rect x="49" y="34.3475" width="3.76923" height="3.81639" fill="white"/>
<rect x="22.6154" y="30.5312" width="3.76923" height="3.81639" fill="white"/>
<rect x="26.3846" y="30.5312" width="3.76923" height="3.81639" fill="white"/>
<rect x="30.1538" y="30.5312" width="3.76923" height="3.81639" fill="white"/>
<rect x="37.6923" y="3.81638" width="3.76923" height="3.81639" fill="white"/>
<rect x="41.4615" y="3.81638" width="3.76923" height="3.81639" fill="white"/>
<rect x="41.4615" y="7.63278" width="3.76923" height="3.81639" fill="white"/>
<rect x="45.2308" y="7.63278" width="3.76923" height="3.81639" fill="white"/>
<rect x="49" y="7.63278" width="3.76923" height="3.81639" fill="white"/>
<rect x="45.2308" y="11.4492" width="3.76923" height="3.81639" fill="white"/>
<rect x="49" y="11.4492" width="3.76923" height="3.81639" fill="white"/>
<rect x="52.7692" y="11.4492" width="3.76923" height="3.81639" fill="white"/>
<rect x="52.7692" y="15.2656" width="3.76923" height="3.81639" fill="white"/>
<rect x="52.7692" y="22.8983" width="3.76923" height="3.81639" fill="white"/>
<rect x="49" y="22.8983" width="3.76923" height="3.81639" fill="white"/>
<rect x="56.5385" y="26.7148" width="3.76923" height="3.81639" fill="white"/>
<rect x="49" y="26.7148" width="3.76923" height="3.81639" fill="white"/>
<rect x="45.2308" y="26.7148" width="3.76923" height="3.81639" fill="white"/>
<rect x="52.7692" y="26.7148" width="3.76923" height="3.81639" fill="white"/>
<rect x="56.5385" y="30.5312" width="3.76923" height="3.81639" fill="white"/>
<rect x="52.7692" y="30.5312" width="3.76923" height="3.81639" fill="white"/>
<rect x="49" y="30.5312" width="3.76923" height="3.81639" fill="white"/>
<rect x="45.2308" y="30.5312" width="3.76923" height="3.81639" fill="white"/>
<rect x="52.7692" y="34.3475" width="3.76923" height="3.81639" fill="white"/>
</svg>
