<svg width="768" height="636" viewBox="0 0 768 636" fill="none" xmlns="http://www.w3.org/2000/svg">
<path d="M677 379.367C677 456.5 572 426 520 426C468 426 353 464.5 353 379.367C359 331 416 194.5 515 182C604 194.5 667 311 677 379.367Z" fill="black"/>
<path d="M364.584 167.398C382.786 204.62 397.543 234.795 354.73 255.732C311.918 276.668 297.162 246.493 278.959 209.27C260.756 172.047 246 141.872 288.812 120.936C331.625 100 346.381 130.175 364.584 167.398Z" fill="black"/>
<path d="M648.959 161.398C630.756 198.62 616 228.795 658.812 249.732C701.625 270.668 716.381 240.493 734.584 203.27C752.786 166.047 767.543 135.872 724.73 114.936C681.918 94 667.162 124.175 648.959 161.398Z" fill="black"/>
<path d="M486.845 79.6862C493.389 123.696 498.694 159.372 448.195 166.881C397.696 174.389 392.392 138.712 385.848 94.703C379.305 50.6936 374 15.0168 424.499 7.50842C474.997 -1.39226e-05 480.302 35.6767 486.845 79.6862Z" fill="black"/>
<path d="M526.848 79.6862C520.305 123.696 515 159.372 565.499 166.881C615.997 174.389 621.302 138.712 627.845 94.703C634.389 50.6936 639.694 15.0168 589.195 7.50842C538.696 -1.39226e-05 533.392 35.6767 526.848 79.6862Z" fill="black"/>
<path d="M306.985 513.466C327.284 559.133 259.697 569.917 230.2 584.201C200.704 598.485 145.603 652.867 123.198 602.464C113.872 572.181 110.282 475.709 163.149 441.114C216.923 424.068 283.32 475.736 306.985 513.466Z" fill="black"/>
<path d="M73.9834 473.786C94.1049 490.824 110.417 504.635 91.6416 528.791C72.8665 552.946 56.5548 539.134 36.4333 522.096C16.3117 505.059 0 491.247 18.7751 467.092C37.5501 442.937 53.8619 456.748 73.9834 473.786Z" fill="black"/>
<path d="M233.714 392.12C233.185 419.158 232.756 441.076 262.551 441.711C292.346 442.347 292.775 420.428 293.304 393.391C293.834 366.353 294.263 344.434 264.468 343.799C234.673 343.164 234.244 365.082 233.714 392.12Z" fill="black"/>
<path d="M120.252 388.273C135.546 412.531 147.944 432.196 121.275 450.513C94.6065 468.83 82.2082 449.164 66.9141 424.906C51.6201 400.648 39.2218 380.982 65.8907 362.666C92.5596 344.349 104.958 364.014 120.252 388.273Z" fill="black"/>
<path d="M142.943 377.285C150.814 405.138 157.194 427.717 187.815 418.291C218.436 408.866 212.056 386.286 204.185 358.433C196.315 330.58 189.935 308 159.314 317.426C128.693 326.852 135.073 349.431 142.943 377.285Z" fill="black"/>
</svg>
