<svg width="231" height="370" viewBox="0 0 231 370" fill="none" xmlns="http://www.w3.org/2000/svg">
<ellipse cx="115.5" cy="253" rx="115.5" ry="117" fill="url(#paint0_radial_122_289)"/>
<ellipse cx="117" cy="228.5" rx="76" ry="76.5" fill="url(#paint1_radial_122_289)"/>
<path d="M96.5 0H108L105 45H99L96.5 0Z" fill="#616161"/>
<path d="M99 17.5H105L107 80H97L99 17.5Z" fill="#616161"/>
<path d="M129 14C129.72 11.3858 130.156 11.3162 131 14L135 83H124L129 14Z" fill="#616161"/>
<path d="M42 145.193C100 150.5 133 151.5 191.5 145.193V153.193C133.116 166.778 101.883 166.88 43.5 153.193L42 145.193Z" fill="#D9D9D9"/>
<path d="M26.2274 132.178C26.1388 106.577 65.6111 56.3885 114.517 56.2663C163.422 56.1441 203.232 103.351 203.33 131.735C203.474 173.537 163.759 153.539 114.854 153.662C65.9483 153.784 26.3721 173.98 26.2274 132.178Z" fill="url(#paint2_radial_122_289)"/>
<path d="M0 242C90.2112 245.776 140.789 246.127 231 242V247.887C231 247.887 90.2105 254.73 0 247.887V242Z" fill="url(#paint3_linear_122_289)"/>
<path d="M164.016 157.666C167.822 115.489 169.16 115.677 165 73.5L169.5 76.5C169.5 76.5 175.399 115.824 168.5 158L164.016 157.666Z" fill="url(#paint4_linear_122_289)"/>
<path d="M57.049 354C53.2429 311.823 52.8886 288.177 57.049 246H51.115C51.115 246 44.1504 307.824 51.049 350L57.049 354Z" fill="url(#paint5_linear_122_289)"/>
<path d="M137 104.5C137 116.374 115.5 126 115.5 126C115.5 126 94 116.374 94 104.5C94 92.6259 115.5 83 115.5 83C115.5 83 137 92.6259 137 104.5Z" fill="url(#paint6_linear_122_289)"/>
<ellipse cx="115" cy="104.5" rx="15" ry="15.5" fill="url(#paint7_radial_122_289)"/>
<circle cx="139.5" cy="84.5" r="3.5" fill="url(#paint8_radial_122_289)"/>
<circle cx="87.5" cy="124.5" r="6.5" fill="url(#paint9_radial_122_289)"/>
<circle cx="115" cy="105" r="1" fill="#FF0084"/>
<defs>
<radialGradient id="paint0_radial_122_289" cx="0" cy="0" r="1" gradientUnits="userSpaceOnUse" gradientTransform="translate(89.5 220) rotate(80.1664) scale(152.237 150.285)">
<stop offset="0.591346" stop-color="white"/>
<stop offset="1" stop-color="#D8D8D8"/>
</radialGradient>
<radialGradient id="paint1_radial_122_289" cx="0" cy="0" r="1" gradientTransform="matrix(17.1082 98.0769 -97.4359 16.7821 99.8918 206.923)" gradientUnits="userSpaceOnUse">
<stop offset="0.591346" stop-color="white"/>
<stop offset="1" stop-color="#F0DBEC"/>
</radialGradient>
<radialGradient id="paint2_radial_122_289" cx="0" cy="0" r="1" gradientUnits="userSpaceOnUse" gradientTransform="translate(90.4289 108.051) rotate(64.1716) scale(56.0725 97.1149)">
<stop offset="0.475962" stop-color="white"/>
<stop offset="0.759615" stop-color="#F5F5F5"/>
<stop offset="1" stop-color="#E5E5E5"/>
</radialGradient>
<linearGradient id="paint3_linear_122_289" x1="0" y1="246.464" x2="231" y2="246.464" gradientUnits="userSpaceOnUse">
<stop offset="0.0144231" stop-color="white"/>
<stop offset="0.802885" stop-color="#D9D9D9"/>
<stop offset="1" stop-color="#737373"/>
</linearGradient>
<linearGradient id="paint4_linear_122_289" x1="167.933" y1="73.5" x2="167.933" y2="158" gradientUnits="userSpaceOnUse">
<stop offset="0.00961538" stop-color="white"/>
<stop offset="0.576923" stop-color="#D9D9D9"/>
<stop offset="1" stop-color="#737373"/>
</linearGradient>
<linearGradient id="paint5_linear_122_289" x1="52.5245" y1="354" x2="52.5245" y2="246" gradientUnits="userSpaceOnUse">
<stop stop-color="#737373"/>
<stop offset="0.456731" stop-color="#D9D9D9"/>
<stop offset="0.985577" stop-color="#F4F4F4"/>
</linearGradient>
<linearGradient id="paint6_linear_122_289" x1="115.5" y1="83" x2="115.5" y2="126" gradientUnits="userSpaceOnUse">
<stop/>
<stop offset="1" stop-color="#666666"/>
</linearGradient>
<radialGradient id="paint7_radial_122_289" cx="0" cy="0" r="1" gradientUnits="userSpaceOnUse" gradientTransform="translate(115 104.5) rotate(90) scale(15.5 15)">
<stop stop-color="#666666"/>
<stop offset="1"/>
</radialGradient>
<radialGradient id="paint8_radial_122_289" cx="0" cy="0" r="1" gradientUnits="userSpaceOnUse" gradientTransform="translate(139.5 84.5) rotate(90) scale(3.5)">
<stop stop-color="#666666"/>
<stop offset="1"/>
</radialGradient>
<radialGradient id="paint9_radial_122_289" cx="0" cy="0" r="1" gradientUnits="userSpaceOnUse" gradientTransform="translate(87.5 124.5) rotate(90) scale(6.5)">
<stop stop-color="#666666"/>
<stop offset="1"/>
</radialGradient>
</defs>
</svg>
