<svg width="231" height="331" viewBox="0 0 231 331" fill="none" xmlns="http://www.w3.org/2000/svg">
<path d="M170.367 12.7328L183.99 52.523L119 32.5143L170.367 12.7328Z" fill="#616161"/>
<path d="M58.6326 12.7328L45.0104 52.523L110 32.5143L58.6326 12.7328Z" fill="#616161"/>
<ellipse cx="115.5" cy="117" rx="115.5" ry="117" transform="matrix(-1 0 0 1 231 97)" fill="url(#paint0_radial_122_288)"/>
<ellipse cx="76" cy="76.5" rx="76" ry="76.5" transform="matrix(-1 0 0 1 193 113)" fill="url(#paint1_radial_122_288)"/>
<path d="M42 106.193C100 111.5 133 112.5 191.5 106.193V114.193C133.116 127.778 101.883 127.88 43.5 114.193L42 106.193Z" fill="#D9D9D9"/>
<path d="M203.182 93.1776C203.271 67.5765 163.799 17.3885 114.893 17.2663C65.9875 17.1441 26.1779 64.3513 26.0797 92.735C25.9351 134.537 65.6503 114.539 114.556 114.662C163.461 114.784 203.037 134.98 203.182 93.1776Z" fill="url(#paint2_radial_122_288)"/>
<path d="M231 203C140.789 206.776 90.2113 207.127 0 203V208.887C0 208.887 140.79 215.73 231 208.887V203Z" fill="url(#paint3_linear_122_288)"/>
<path d="M164.016 118.666C167.822 76.4891 169.16 77.1767 165 35L169.5 38.5C169.5 38.5 175.399 76.8237 168.5 119L164.016 118.666Z" fill="url(#paint4_linear_122_288)"/>
<path d="M66 118.66C62.5983 75.7344 61.2817 76.9254 65 34L61 37C61 37 55.8273 76.075 61.9928 119L66 118.66Z" fill="url(#paint5_linear_122_288)"/>
<path d="M175 315C178.806 272.823 179.16 249.177 175 207H180.934C180.934 207 187.899 268.824 181 311L175 315Z" fill="url(#paint6_linear_122_288)"/>
<path d="M56.049 315C52.2429 272.823 51.8886 249.177 56.049 207H50.115C50.115 207 43.1504 268.824 50.049 311L56.049 315Z" fill="url(#paint7_linear_122_288)"/>
<ellipse cx="116" cy="49.5" rx="15" ry="15.5" fill="url(#paint8_radial_122_288)"/>
<circle cx="116.5" cy="93.5" r="3.5" fill="url(#paint9_radial_122_288)"/>
<circle cx="116.5" cy="77.5" r="6.5" fill="url(#paint10_radial_122_288)"/>
<defs>
<radialGradient id="paint0_radial_122_288" cx="0" cy="0" r="1" gradientUnits="userSpaceOnUse" gradientTransform="translate(89.5 84) rotate(80.1664) scale(152.237 150.285)">
<stop offset="0.591346" stop-color="white"/>
<stop offset="1" stop-color="#D8D8D8"/>
</radialGradient>
<radialGradient id="paint1_radial_122_288" cx="0" cy="0" r="1" gradientTransform="matrix(17.1082 98.0769 -97.4359 16.7821 58.8918 54.9231)" gradientUnits="userSpaceOnUse">
<stop offset="0.591346" stop-color="white"/>
<stop offset="1" stop-color="#D8F4E4"/>
</radialGradient>
<radialGradient id="paint2_radial_122_288" cx="0" cy="0" r="1" gradientUnits="userSpaceOnUse" gradientTransform="translate(138.981 69.051) rotate(115.828) scale(56.0725 97.1149)">
<stop offset="0.475962" stop-color="white"/>
<stop offset="0.759615" stop-color="#F5F5F5"/>
<stop offset="1" stop-color="#E5E5E5"/>
</radialGradient>
<linearGradient id="paint3_linear_122_288" x1="231" y1="207.464" x2="0" y2="207.464" gradientUnits="userSpaceOnUse">
<stop offset="0.0144231" stop-color="white"/>
<stop offset="0.802885" stop-color="#D9D9D9"/>
<stop offset="1" stop-color="#737373"/>
</linearGradient>
<linearGradient id="paint4_linear_122_288" x1="167.933" y1="34.5" x2="167.933" y2="119" gradientUnits="userSpaceOnUse">
<stop offset="0.00961538" stop-color="white"/>
<stop offset="0.576923" stop-color="#D9D9D9"/>
<stop offset="1" stop-color="#737373"/>
</linearGradient>
<linearGradient id="paint5_linear_122_288" x1="62.5" y1="33" x2="62.5" y2="119" gradientUnits="userSpaceOnUse">
<stop offset="0.00961538" stop-color="white"/>
<stop offset="0.576923" stop-color="#D9D9D9"/>
<stop offset="1" stop-color="#737373"/>
</linearGradient>
<linearGradient id="paint6_linear_122_288" x1="179.525" y1="315" x2="179.525" y2="207" gradientUnits="userSpaceOnUse">
<stop stop-color="#737373"/>
<stop offset="0.456731" stop-color="#D9D9D9"/>
<stop offset="0.985577" stop-color="#F4F4F4"/>
</linearGradient>
<linearGradient id="paint7_linear_122_288" x1="51.5245" y1="315" x2="51.5245" y2="207" gradientUnits="userSpaceOnUse">
<stop stop-color="#737373"/>
<stop offset="0.456731" stop-color="#D9D9D9"/>
<stop offset="0.985577" stop-color="#DADADA"/>
</linearGradient>
<radialGradient id="paint8_radial_122_288" cx="0" cy="0" r="1" gradientUnits="userSpaceOnUse" gradientTransform="translate(116 49.5) rotate(90) scale(15.5 15)">
<stop stop-color="#666666"/>
<stop offset="1"/>
</radialGradient>
<radialGradient id="paint9_radial_122_288" cx="0" cy="0" r="1" gradientUnits="userSpaceOnUse" gradientTransform="translate(116.5 93.5) rotate(90) scale(3.5)">
<stop stop-color="#666666"/>
<stop offset="1"/>
</radialGradient>
<radialGradient id="paint10_radial_122_288" cx="0" cy="0" r="1" gradientUnits="userSpaceOnUse" gradientTransform="translate(116.5 77.5) rotate(90) scale(6.5)">
<stop stop-color="#666666"/>
<stop offset="1"/>
</radialGradient>
</defs>
</svg>
