<svg width="416" height="606" viewBox="0 0 416 606" fill="none" xmlns="http://www.w3.org/2000/svg">
<rect width="7.32084" height="87.0672" transform="matrix(0.984753 0.173957 -0.181012 0.983481 190.653 13.1144)" fill="url(#paint0_linear_122_293)"/>
<path d="M245.084 394.779L304.31 419.403L213.268 529.764L168.788 533.038L245.084 394.779Z" fill="url(#paint1_linear_122_293)"/>
<path d="M213.067 540.014L107.652 547.773L182.623 507.893L217.46 524.81L213.067 540.014Z" fill="url(#paint2_linear_122_293)"/>
<path d="M180.633 58.1843L191.007 60.3664L186.437 94.0572L169.531 90.5012L180.633 58.1843Z" fill="black"/>
<path d="M309.256 401.666C310.703 420.536 296.612 436.958 277.782 438.343C258.953 439.729 242.516 425.555 241.069 406.684C239.622 387.813 253.713 371.392 272.542 370.006C291.371 368.62 307.808 382.795 309.256 401.666Z" fill="url(#paint3_linear_122_293)"/>
<rect width="73.209" height="134.994" rx="36.6045" transform="matrix(0.820655 -0.571424 0.587221 0.809427 181.892 324.481)" fill="url(#paint4_linear_122_293)"/>
<path d="M137.475 74.0145L257.549 76.2449L363.54 125.389L264.328 146L137.475 74.0145Z" fill="url(#paint5_linear_122_293)"/>
<path d="M264.811 145.732L363.54 125.389L361.256 169.514L238.721 262.496L264.811 145.732Z" fill="url(#paint6_linear_122_293)"/>
<path d="M265.295 145.464L137.51 73.7802L96.3648 166.863L238.871 262.277L265.295 145.464Z" fill="url(#paint7_radial_122_293)"/>
<path d="M200.914 278.757L246.258 304.762L270.519 405.289L192.096 353.92L200.914 278.757Z" fill="url(#paint8_linear_122_293)"/>
<path d="M245.112 305.233L342.569 281.072L362.107 376.541L270.489 404.905L245.112 305.233Z" fill="url(#paint9_linear_122_293)"/>
<path d="M200.914 278.757L304.369 271.143L342.628 281.84L245.112 305.233L200.914 278.757Z" fill="url(#paint10_linear_122_293)"/>
<path d="M254.748 249.771L296.002 219.068L291.564 259.435L287.8 286.332L248.766 289.205L254.748 249.771Z" fill="url(#paint11_linear_122_293)"/>
<path d="M249.762 283.656L288.558 280.8L294.3 288.871L244.14 292.563L249.762 283.656Z" fill="url(#paint12_linear_122_293)"/>
<rect width="7.32084" height="87.0672" transform="matrix(0.984753 0.173957 -0.181012 0.983481 329.521 56.173)" fill="url(#paint13_linear_122_293)"/>
<rect width="67.7334" height="133.73" rx="33.8667" transform="matrix(0.736839 -0.676068 0.691014 0.722841 258.619 337.478)" fill="url(#paint14_linear_122_293)"/>
<path d="M331.635 406.856L398.053 414.511L345.358 544.739L301.95 547.934L331.635 406.856Z" fill="url(#paint15_linear_122_293)"/>
<path d="M344.897 547.824L233.604 556.015L308.576 516.136L349.705 533.432L344.897 547.824Z" fill="url(#paint16_linear_122_293)"/>
<path d="M316.82 117.656L327.194 119.838L322.624 153.529L305.718 149.973L316.82 117.656Z" fill="black"/>
<path d="M329.445 44.7101L340.803 46.978L336.341 63.8425L327.228 61.9296L329.445 44.7101Z" fill="black"/>
<path d="M190.459 0.115841L201.817 2.38367L197.354 19.2482L188.241 17.3353L190.459 0.115841Z" fill="black"/>
<ellipse cx="36.0444" cy="36.3042" rx="36.0444" ry="36.3042" transform="matrix(0.924213 -0.381877 0.395419 0.918501 315.474 382.195)" fill="url(#paint17_linear_122_293)"/>
<ellipse cx="27.5976" cy="28.1672" rx="27.5976" ry="28.1672" transform="matrix(0.924213 -0.381877 0.395419 0.918501 267.622 156.813)" fill="url(#paint18_linear_122_293)"/>
<ellipse cx="27.5976" cy="28.1672" rx="27.5976" ry="28.1672" transform="matrix(0.924213 -0.381877 0.395419 0.918501 140.101 138.401)" fill="url(#paint19_linear_122_293)"/>
<ellipse cx="20.0398" cy="20.0223" rx="20.0398" ry="20.0223" transform="matrix(0.997302 -0.0734034 0.0764614 0.997073 148.26 135.29)" fill="url(#paint20_radial_122_293)"/>
<path d="M282.66 315.482L286.637 311.757L342 371.817L338.023 375.541L282.66 315.482Z" fill="url(#paint21_linear_122_293)"/>
<path d="M350.253 435.727L355.595 437.018L329.818 525.047L325.102 523.122L350.253 435.727Z" fill="url(#paint22_linear_122_293)"/>
<path d="M254.876 431.504L250.574 427.717L195.811 514.267L200.134 516.577L254.876 431.504Z" fill="url(#paint23_linear_122_293)"/>
<defs>
<linearGradient id="paint0_linear_122_293" x1="3.66042" y1="0" x2="3.66042" y2="87.0672" gradientUnits="userSpaceOnUse">
<stop stop-color="#D9D9D9"/>
<stop offset="1" stop-color="#737373"/>
</linearGradient>
<linearGradient id="paint1_linear_122_293" x1="264.984" y1="398.555" x2="202.413" y2="547.193" gradientUnits="userSpaceOnUse">
<stop stop-color="#D9D9D9"/>
<stop offset="1" stop-color="#737373"/>
</linearGradient>
<linearGradient id="paint2_linear_122_293" x1="152.921" y1="550.259" x2="189.812" y2="503.156" gradientUnits="userSpaceOnUse">
<stop stop-color="#D9D9D9"/>
<stop offset="1" stop-color="#737373"/>
</linearGradient>
<linearGradient id="paint3_linear_122_293" x1="273.981" y1="440.168" x2="268.951" y2="371.815" gradientUnits="userSpaceOnUse">
<stop stop-color="#D9D9D9"/>
<stop offset="1" stop-color="#737373"/>
</linearGradient>
<linearGradient id="paint4_linear_122_293" x1="36.6045" y1="134.994" x2="36.9705" y2="102.814" gradientUnits="userSpaceOnUse">
<stop stop-color="#D9D9D9"/>
<stop offset="1" stop-color="#737373"/>
</linearGradient>
<linearGradient id="paint5_linear_122_293" x1="136.53" y1="77.3537" x2="359.307" y2="140.357" gradientUnits="userSpaceOnUse">
<stop stop-color="#737373"/>
<stop offset="0.634615" stop-color="#D9D9D9"/>
</linearGradient>
<linearGradient id="paint6_linear_122_293" x1="325.1" y1="114.955" x2="281.873" y2="274.209" gradientUnits="userSpaceOnUse">
<stop stop-color="#D9D9D9"/>
<stop offset="1" stop-color="#737373"/>
</linearGradient>
<radialGradient id="paint7_radial_122_293" cx="0" cy="0" r="1" gradientTransform="matrix(319.494 87.7798 -84.0819 -352.28 143.545 146.593)" gradientUnits="userSpaceOnUse">
<stop stop-color="#F6F3F3"/>
<stop offset="1" stop-color="#7B7676"/>
</radialGradient>
<linearGradient id="paint8_linear_122_293" x1="223.447" y1="277.099" x2="233.085" y2="408.044" gradientUnits="userSpaceOnUse">
<stop stop-color="#D9D9D9"/>
<stop offset="1" stop-color="#737373"/>
</linearGradient>
<linearGradient id="paint9_linear_122_293" x1="322.413" y1="401.083" x2="314.414" y2="292.41" gradientUnits="userSpaceOnUse">
<stop stop-color="#D9D9D9"/>
<stop offset="1" stop-color="#737373"/>
</linearGradient>
<linearGradient id="paint10_linear_122_293" x1="202.875" y1="294.056" x2="365.466" y2="281.588" gradientUnits="userSpaceOnUse">
<stop stop-color="#D9D9D9"/>
<stop offset="1" stop-color="#737373"/>
</linearGradient>
<linearGradient id="paint11_linear_122_293" x1="291.92" y1="256.198" x2="252.867" y2="251.904" gradientUnits="userSpaceOnUse">
<stop stop-color="#737373"/>
<stop offset="0.466346" stop-color="#D9D9D9"/>
<stop offset="1" stop-color="#7C7C7C"/>
</linearGradient>
<linearGradient id="paint12_linear_122_293" x1="243.816" y1="288.34" x2="293.965" y2="284.495" gradientUnits="userSpaceOnUse">
<stop stop-color="#7B7B7B"/>
<stop offset="0.538462" stop-color="#D9D9D9"/>
<stop offset="1" stop-color="#737373"/>
</linearGradient>
<linearGradient id="paint13_linear_122_293" x1="3.66042" y1="0" x2="3.66042" y2="87.0672" gradientUnits="userSpaceOnUse">
<stop stop-color="#D9D9D9"/>
<stop offset="1" stop-color="#737373"/>
</linearGradient>
<linearGradient id="paint14_linear_122_293" x1="33.8667" y1="0" x2="33.8667" y2="133.73" gradientUnits="userSpaceOnUse">
<stop stop-color="#D9D9D9"/>
<stop offset="1" stop-color="#737373"/>
</linearGradient>
<linearGradient id="paint15_linear_122_293" x1="351.726" y1="404.226" x2="338.869" y2="564.498" gradientUnits="userSpaceOnUse">
<stop stop-color="#D9D9D9"/>
<stop offset="1" stop-color="#737373"/>
</linearGradient>
<linearGradient id="paint16_linear_122_293" x1="278.873" y1="558.502" x2="315.765" y2="511.399" gradientUnits="userSpaceOnUse">
<stop stop-color="#D9D9D9"/>
<stop offset="1" stop-color="#737373"/>
</linearGradient>
<linearGradient id="paint17_linear_122_293" x1="36.0444" y1="0" x2="36.0444" y2="72.6085" gradientUnits="userSpaceOnUse">
<stop stop-color="#D9D9D9"/>
<stop offset="1" stop-color="#737373"/>
</linearGradient>
<linearGradient id="paint18_linear_122_293" x1="27.5976" y1="0" x2="27.5976" y2="56.3343" gradientUnits="userSpaceOnUse">
<stop stop-color="#D9D9D9"/>
<stop offset="1" stop-color="#737373"/>
</linearGradient>
<linearGradient id="paint19_linear_122_293" x1="27.5976" y1="2.53733e-06" x2="145.832" y2="76.5289" gradientUnits="userSpaceOnUse">
<stop stop-color="#D9D9D9"/>
<stop offset="1" stop-color="#737373"/>
</linearGradient>
<radialGradient id="paint20_radial_122_293" cx="0" cy="0" r="1" gradientUnits="userSpaceOnUse" gradientTransform="translate(20.0398 20.0223) rotate(90) scale(20.0223 20.0398)">
<stop stop-color="#666666"/>
<stop offset="1"/>
</radialGradient>
<linearGradient id="paint21_linear_122_293" x1="284.649" y1="313.62" x2="362.773" y2="397.042" gradientUnits="userSpaceOnUse">
<stop stop-color="#AF0000"/>
<stop offset="0.403846" stop-color="#FF0000"/>
<stop offset="0.495192" stop-color="#FFC3C3"/>
<stop offset="0.620192" stop-color="#FD0000"/>
<stop offset="1" stop-color="#990000"/>
</linearGradient>
<linearGradient id="paint22_linear_122_293" x1="284.649" y1="313.62" x2="362.773" y2="397.042" gradientUnits="userSpaceOnUse">
<stop stop-color="#AF0000"/>
<stop offset="0.403846" stop-color="#FF0000"/>
<stop offset="0.495192" stop-color="#FFC3C3"/>
<stop offset="0.620192" stop-color="#FD0000"/>
<stop offset="1" stop-color="#990000"/>
</linearGradient>
<linearGradient id="paint23_linear_122_293" x1="393.929" y1="399.725" x2="278.935" y2="388.752" gradientUnits="userSpaceOnUse">
<stop stop-color="#AF0000"/>
<stop offset="0.403846" stop-color="#FF0000"/>
<stop offset="0.495192" stop-color="#FFC3C3"/>
<stop offset="0.620192" stop-color="#FD0000"/>
<stop offset="1" stop-color="#990000"/>
</linearGradient>
</defs>
</svg>
