<svg width="306" height="499" viewBox="0 0 306 499" fill="none" xmlns="http://www.w3.org/2000/svg">
<rect x="78.7368" y="101.762" width="149.421" height="278.312" fill="url(#paint0_linear_122_292)"/>
<path d="M34.0659 379.326L78.9966 379.325L92.1579 438.311L18.7895 438.311L34.0659 379.326Z" fill="url(#paint1_linear_122_292)"/>
<path d="M109.414 407.201L202.232 407.621L228.334 379.735L77.9671 378.848L109.414 407.201Z" fill="url(#paint2_linear_122_292)"/>
<rect x="90" y="161" width="125" height="59" fill="url(#paint3_linear_122_292)"/>
<rect y="437.698" width="107.368" height="61.3022" rx="16" fill="url(#paint4_linear_122_292)"/>
<rect x="78.7368" y="120.152" width="149.421" height="25.7469" fill="url(#paint5_linear_122_292)"/>
<rect x="76.9474" y="362.909" width="150.316" height="17.1646" fill="url(#paint6_linear_122_292)"/>
<path d="M34 175.734C34 154.577 78.7368 161.801 78.7368 161.801C78.2895 188.634 78.7368 380.074 78.7368 380.074H34C34 380.074 34 196.89 34 175.734Z" fill="url(#paint7_linear_122_292)"/>
<path d="M272 379.326L227.263 379.326L213.842 438.311L287.211 438.311L272 379.326Z" fill="url(#paint8_linear_122_292)"/>
<rect width="107.368" height="61.3022" rx="19" transform="matrix(-1 0 0 1 306 437.698)" fill="url(#paint9_linear_122_292)"/>
<path d="M272 175.734C272 154.577 227.263 161.801 227.263 161.801C227.711 188.634 227.263 380.074 227.263 380.074H272C272 380.074 272 196.89 272 175.734Z" fill="url(#paint10_linear_122_292)"/>
<path d="M234.421 125.057H73.3684C73.3684 55.9897 85 0 153.895 0C222.789 0 234.421 55.9897 234.421 125.057Z" fill="url(#paint11_radial_122_292)"/>
<rect x="203" y="301" width="14.3158" height="51.4939" rx="4" fill="url(#paint12_linear_122_292)"/>
<rect x="203" y="230" width="14" height="40" rx="4" fill="url(#paint13_linear_122_292)"/>
<rect x="203" y="280" width="14" height="13" rx="4" fill="url(#paint14_linear_122_292)"/>
<ellipse cx="18.3896" cy="27.2924" rx="18.3896" ry="27.2924" transform="matrix(0.0113289 -0.999936 0.999774 0.0212686 126.158 84.5927)" fill="url(#paint15_radial_122_292)"/>
<ellipse cx="153.447" cy="39.8465" rx="3.13158" ry="4.29115" fill="url(#paint16_radial_122_292)"/>
<rect x="78.7368" y="145.899" width="149.421" height="4.90418" fill="url(#paint17_linear_122_292)"/>
<rect x="79" y="137" width="149.421" height="4.90418" fill="url(#paint18_linear_122_292)"/>
<rect x="73.3684" y="111.57" width="161.053" height="4.90418" fill="url(#paint19_linear_122_292)"/>
<path d="M95 25H212.5L216 29.5L91.5 30L95 25Z" fill="url(#paint20_linear_122_292)"/>
<rect x="78.7368" y="360.457" width="148.526" height="4.90418" fill="url(#paint21_linear_122_292)"/>
<path d="M51.4474 437.698L60.8421 380.074L64.4211 380.074L55.0263 437.698L51.4474 437.698Z" fill="url(#paint22_linear_122_292)"/>
<path d="M255.447 437.602L246.053 379.978L242.474 379.978L251.868 437.602L255.447 437.602Z" fill="url(#paint23_linear_122_292)"/>
<rect x="242.474" y="380.074" width="219.462" height="3.57895" transform="rotate(-90 242.474 380.074)" fill="url(#paint24_linear_122_292)"/>
<path d="M61 380V160.633H65V380L61 380Z" fill="url(#paint25_linear_122_292)"/>
<rect x="92" y="230" width="63" height="11" rx="4" fill="url(#paint26_linear_122_292)"/>
<rect x="92" y="250" width="63" height="11" rx="4" fill="url(#paint27_linear_122_292)"/>
<path d="M79 369H227.305V374H79V369Z" fill="url(#paint28_linear_122_292)"/>
<defs>
<linearGradient id="paint0_linear_122_292" x1="233.526" y1="236.16" x2="78.7009" y2="238.853" gradientUnits="userSpaceOnUse">
<stop stop-color="#C3C3C3"/>
<stop offset="0.769231" stop-color="white"/>
<stop offset="0.995192" stop-color="#DADADA"/>
</linearGradient>
<linearGradient id="paint1_linear_122_292" x1="98.0433" y1="407.186" x2="19.0211" y2="410.922" gradientUnits="userSpaceOnUse">
<stop stop-color="#C7C7C7"/>
<stop offset="0.274038" stop-color="#CACACA"/>
<stop offset="0.903846" stop-color="#F4F4F4"/>
</linearGradient>
<linearGradient id="paint2_linear_122_292" x1="241.384" y1="394.293" x2="83.1797" y2="364.675" gradientUnits="userSpaceOnUse">
<stop stop-color="#7E7E7E"/>
<stop offset="0.509615" stop-color="#D9D9D9"/>
<stop offset="0.995192" stop-color="#797878"/>
</linearGradient>
<linearGradient id="paint3_linear_122_292" x1="219.491" y1="189.491" x2="90.5383" y2="198.343" gradientUnits="userSpaceOnUse">
<stop stop-color="#B1B3B4"/>
<stop offset="0.725962" stop-color="white"/>
<stop offset="0.995192" stop-color="#C6CACD"/>
</linearGradient>
<linearGradient id="paint4_linear_122_292" x1="111.226" y1="467.301" x2="0.297708" y2="473.595" gradientUnits="userSpaceOnUse">
<stop stop-color="#555353"/>
<stop offset="0.230769" stop-color="#A2A2A2"/>
<stop offset="0.721154" stop-color="#E8E8E8"/>
</linearGradient>
<linearGradient id="paint5_linear_122_292" x1="153.447" y1="120.152" x2="153.447" y2="145.899" gradientUnits="userSpaceOnUse">
<stop stop-color="#C1C1C2"/>
<stop offset="1" stop-color="#F6F7F8"/>
</linearGradient>
<linearGradient id="paint6_linear_122_292" x1="152.105" y1="362.909" x2="152.105" y2="380.074" gradientUnits="userSpaceOnUse">
<stop stop-color="#9B9C9D"/>
<stop offset="1" stop-color="#EDEDED"/>
</linearGradient>
<linearGradient id="paint7_linear_122_292" x1="80.3441" y1="274.411" x2="33.9776" y2="274.74" gradientUnits="userSpaceOnUse">
<stop stop-color="#898989"/>
<stop offset="0.0001" stop-color="#B2B2B2"/>
<stop offset="0.735577" stop-color="#EEEEEE"/>
</linearGradient>
<linearGradient id="paint8_linear_122_292" x1="208.298" y1="407.188" x2="286.981" y2="410.894" gradientUnits="userSpaceOnUse">
<stop stop-color="#C7C7C7"/>
<stop offset="0.341346" stop-color="#DDDDDD"/>
<stop offset="0.995192" stop-color="#CACACA"/>
</linearGradient>
<linearGradient id="paint9_linear_122_292" x1="111.226" y1="29.6032" x2="0.297708" y2="35.8977" gradientUnits="userSpaceOnUse">
<stop stop-color="#616161"/>
<stop offset="0.461538" stop-color="#BABABA"/>
<stop offset="0.995192" stop-color="#A2A2A2"/>
</linearGradient>
<linearGradient id="paint10_linear_122_292" x1="225.656" y1="274.411" x2="272.022" y2="274.74" gradientUnits="userSpaceOnUse">
<stop stop-color="#898989"/>
<stop offset="0.245192" stop-color="#D6D6D6"/>
<stop offset="0.995192" stop-color="#B2B2B2"/>
</linearGradient>
<radialGradient id="paint11_radial_122_292" cx="0" cy="0" r="1" gradientTransform="matrix(86.3421 210.88 -271.579 208.788 104.684 58.2371)" gradientUnits="userSpaceOnUse">
<stop offset="0.0240385" stop-color="white"/>
<stop offset="0.418269" stop-color="#CFCFCF"/>
<stop offset="1" stop-color="#B1B1B1"/>
</radialGradient>
<linearGradient id="paint12_linear_122_292" x1="197.376" y1="326.747" x2="217.316" y2="326.747" gradientUnits="userSpaceOnUse">
<stop offset="0.264423" stop-color="#FF4D00"/>
<stop offset="0.355769" stop-color="#FFF9D7"/>
<stop offset="0.995192" stop-color="#FF4400"/>
</linearGradient>
<linearGradient id="paint13_linear_122_292" x1="197.5" y1="250" x2="217" y2="250" gradientUnits="userSpaceOnUse">
<stop offset="0.264423" stop-color="#FF4D00"/>
<stop offset="0.355769" stop-color="#FFF9D7"/>
<stop offset="0.995192" stop-color="#FF4400"/>
</linearGradient>
<linearGradient id="paint14_linear_122_292" x1="197.5" y1="286.5" x2="217" y2="286.5" gradientUnits="userSpaceOnUse">
<stop offset="0.264423" stop-color="#FF4D00"/>
<stop offset="0.355769" stop-color="#FFF9D7"/>
<stop offset="0.995192" stop-color="#FF4400"/>
</linearGradient>
<radialGradient id="paint15_radial_122_292" cx="0" cy="0" r="1" gradientUnits="userSpaceOnUse" gradientTransform="translate(18.3896 27.2924) rotate(90) scale(27.2924 18.3896)">
<stop stop-color="#666666"/>
<stop offset="1"/>
</radialGradient>
<radialGradient id="paint16_radial_122_292" cx="0" cy="0" r="1" gradientUnits="userSpaceOnUse" gradientTransform="translate(153.447 39.8465) rotate(90) scale(4.29115 3.13158)">
<stop stop-color="#666666"/>
<stop offset="1"/>
</radialGradient>
<linearGradient id="paint17_linear_122_292" x1="78.7368" y1="148.351" x2="228.158" y2="148.351" gradientUnits="userSpaceOnUse">
<stop stop-color="#FF4D00"/>
<stop offset="0.5" stop-color="#FFF9D7"/>
<stop offset="0.995192" stop-color="#FF4D00"/>
</linearGradient>
<linearGradient id="paint18_linear_122_292" x1="79" y1="139.452" x2="228.421" y2="139.452" gradientUnits="userSpaceOnUse">
<stop stop-color="#FF4D00"/>
<stop offset="0.5" stop-color="#FFF9D7"/>
<stop offset="0.995192" stop-color="#FF4D00"/>
</linearGradient>
<linearGradient id="paint19_linear_122_292" x1="73.3684" y1="114.022" x2="234.421" y2="114.022" gradientUnits="userSpaceOnUse">
<stop stop-color="#FF4D00"/>
<stop offset="0.5" stop-color="#FFF9D7"/>
<stop offset="0.995192" stop-color="#FF4D00"/>
</linearGradient>
<linearGradient id="paint20_linear_122_292" x1="73" y1="27.4521" x2="234.053" y2="27.4521" gradientUnits="userSpaceOnUse">
<stop stop-color="#FF4D00"/>
<stop offset="0.5" stop-color="#FFF9D7"/>
<stop offset="0.995192" stop-color="#FF4D00"/>
</linearGradient>
<linearGradient id="paint21_linear_122_292" x1="78.7368" y1="362.909" x2="227.263" y2="362.909" gradientUnits="userSpaceOnUse">
<stop stop-color="#FF4400"/>
<stop offset="0.5" stop-color="#FFF9D7"/>
<stop offset="0.995192" stop-color="#FF4400"/>
</linearGradient>
<linearGradient id="paint22_linear_122_292" x1="51.856" y1="446.526" x2="70.6311" y2="381.792" gradientUnits="userSpaceOnUse">
<stop stop-color="#FF4400"/>
<stop offset="0.5" stop-color="#FFF9D7"/>
<stop offset="0.995192" stop-color="#FF4400"/>
</linearGradient>
<linearGradient id="paint23_linear_122_292" x1="255.039" y1="446.43" x2="236.264" y2="381.696" gradientUnits="userSpaceOnUse">
<stop stop-color="#FF4D00"/>
<stop offset="0.5" stop-color="#FFF9D7"/>
<stop offset="0.995192" stop-color="#FF4D00"/>
</linearGradient>
<linearGradient id="paint24_linear_122_292" x1="242.474" y1="381.863" x2="461.936" y2="381.863" gradientUnits="userSpaceOnUse">
<stop stop-color="#FF500E"/>
<stop offset="0.5" stop-color="#FFDAB2"/>
<stop offset="0.995192" stop-color="#FF510F"/>
</linearGradient>
<linearGradient id="paint25_linear_122_292" x1="63" y1="380" x2="63" y2="160" gradientUnits="userSpaceOnUse">
<stop stop-color="#FF500E"/>
<stop offset="0.5" stop-color="#FFDAB2"/>
<stop offset="0.995192" stop-color="#FF510F"/>
</linearGradient>
<linearGradient id="paint26_linear_122_292" x1="67.25" y1="235.5" x2="155" y2="235.5" gradientUnits="userSpaceOnUse">
<stop offset="0.264423" stop-color="#FF4D00"/>
<stop offset="0.355769" stop-color="#FFF9D7"/>
<stop offset="0.995192" stop-color="#FF4400"/>
</linearGradient>
<linearGradient id="paint27_linear_122_292" x1="67.25" y1="255.5" x2="155" y2="255.5" gradientUnits="userSpaceOnUse">
<stop offset="0.264423" stop-color="#FF4D00"/>
<stop offset="0.355769" stop-color="#FFF9D7"/>
<stop offset="0.995192" stop-color="#FF4400"/>
</linearGradient>
<linearGradient id="paint28_linear_122_292" x1="79" y1="371.5" x2="227" y2="371.5" gradientUnits="userSpaceOnUse">
<stop stop-color="#FF4D00"/>
<stop offset="0.5" stop-color="#FFF9D7"/>
<stop offset="0.995192" stop-color="#FF4D00"/>
</linearGradient>
</defs>
</svg>
