<svg width="846" height="1001" viewBox="0 0 846 1001" fill="none" xmlns="http://www.w3.org/2000/svg">
<path d="M529.388 43.032C530.981 35.3567 522.618 29.6583 516.017 34.0154C458.165 72.2024 432.25 106.411 405.514 171.372C403.569 176.099 406.027 181.425 410.868 183.053L484.74 207.897C489.905 209.634 495.482 206.442 496.587 201.117L529.388 43.032Z" fill="url(#paint0_linear_107_302)"/>
<path d="M469.822 810.445C461.339 805.613 456.248 796.621 456.548 786.999L465.186 509.227C465.277 506.279 465.139 503.33 464.772 500.405L460.791 468.714C456.448 434.127 494.495 409.487 525.22 426.988C560.492 447.079 559.666 529.288 543.328 566.047C522.511 612.883 517.152 676.424 538.027 744.766C546.971 774.045 496.785 825.803 469.822 810.445Z" fill="url(#paint1_linear_107_302)"/>
<path d="M153.562 405.723C161.835 393.771 150.989 371.49 135.983 372.3C133.003 372.461 130.187 373.481 127.965 375.329C46.2153 443.319 33.1834 600.971 161.721 642.686C163.131 643.144 164.643 643.338 166.091 643.26C178.828 642.572 181.731 622.035 171.186 614.158C93.2872 555.967 114.161 462.652 153.562 405.723Z" fill="url(#paint2_linear_107_302)"/>
<path d="M107.748 395.958C99.0809 406.802 107.865 434.814 123.083 436.857C126.268 437.285 129.406 436.741 131.795 435.022C176.738 402.683 197.391 286.721 120.679 280.182C118.95 280.034 117.179 280.207 115.567 280.615C98.5438 284.918 102.419 317.024 113.697 331.99C128.809 352.044 123.458 376.304 107.748 395.958Z" fill="url(#paint3_linear_107_302)"/>
<path d="M112.507 809.437C116.237 816.675 123.569 821.217 131.59 821.257L351.931 822.369C354.598 822.382 357.258 822.634 359.881 823.121L382.022 827.233C410.625 832.545 432.762 801.795 419.234 775.541C403.044 744.124 322.557 743.156 289.482 754.407C257.41 765.317 217.296 765.97 173.797 751.495C149.389 743.373 100.556 786.244 112.507 809.437Z" fill="url(#paint4_linear_107_302)"/>
<path d="M434.587 282.35C471.428 364.904 551.178 267.823 551.178 267.823C551.178 267.823 680.636 232.595 621.913 141.829C576.359 71.4178 527.684 89.0093 476.403 100.266C363.751 124.994 401.375 207.929 434.587 282.35Z" fill="url(#paint5_linear_107_302)"/>
<path d="M568.269 257.347C599.96 272.009 617.139 285.494 655.481 222.721C693.824 159.948 633.247 189.186 616.466 139.408C605.279 106.226 563.27 139.486 540.716 169.625C504.58 217.912 536.577 242.685 568.269 257.347Z" fill="url(#paint6_linear_107_302)"/>
<path d="M612.471 268.31C612.471 268.31 384.791 187.43 406.385 206.066C427.978 224.702 377.031 408.887 345.342 396.496C313.653 384.105 567.865 369.874 567.865 369.874C535.353 226.461 528.114 287.161 612.471 268.31Z" fill="url(#paint7_linear_107_302)"/>
<path d="M542.857 282.296C542.857 282.296 449.349 242.165 379.199 352.784C309.05 463.402 46.5404 489.642 185.037 654.179C323.533 818.716 295.487 684.453 295.487 684.453C374.525 654.754 678.617 415.406 542.857 282.296Z" fill="url(#paint8_linear_107_302)"/>
<path d="M472.499 561C472.499 614.5 391.499 806 254.998 806C103.999 806 95.9983 730.784 95.9983 638C95.9983 545.216 167.185 470 254.998 470C342.812 470 472.499 468.216 472.499 561Z" fill="url(#paint9_linear_107_302)"/>
<path d="M590.999 420C580.499 484.5 555.392 562 490.499 562C425.605 562 372.999 482.96 372.999 420C372.999 357.039 425.605 306 490.499 306C572.499 255.5 590.999 357.039 590.999 420Z" fill="url(#paint10_linear_107_302)"/>
<path d="M585.482 782.487C585.482 813.508 592.745 814.044 525.616 814.044C464.499 814.044 464.499 822.549 464.499 767.669C464.499 767.669 532.996 755.729 530.928 756.005C528.454 756.334 585.482 765.476 585.482 782.487Z" fill="url(#paint11_linear_107_302)"/>
<path d="M502.999 739.021L527.238 717.701C535.274 748.656 544.999 756 574.999 772L550.759 793.32L502.999 739.021Z" fill="url(#paint12_linear_107_302)"/>
<path d="M491.041 41.8469C491.243 35.6006 485.051 31.1666 479.233 33.6224C410.691 62.5554 420.061 110.606 404.664 164.242C403.037 169.908 406.873 175.76 412.767 176.182L477.037 180.785C482.193 181.154 486.662 177.152 486.828 172.017L491.041 41.8469Z" fill="url(#paint13_linear_107_302)"/>
<path d="M650.001 190C650.001 196.075 660.204 186.219 663.061 201C663.061 201 669.999 193.669 669.999 187.594C669.999 181.519 670.274 179 663.061 179C655.848 179 650.001 183.925 650.001 190Z" fill="url(#paint14_linear_107_302)"/>
<path d="M590.629 144.258C569.916 143.932 570.338 144.127 577.307 159.477C580.685 166.918 588.603 172.679 597.995 171.911C615.001 170.518 615.001 170.518 611.318 156.692C609.284 149.056 600.199 144.409 590.629 144.258Z" fill="url(#paint15_linear_107_302)"/>
<path d="M589.358 157.698C588.406 164.468 591.629 170.628 596.558 171.458C601.486 172.288 606.253 167.473 607.205 160.703C608.157 153.934 604.934 147.773 600.005 146.943C595.077 146.114 590.31 150.929 589.358 157.698Z" fill="url(#paint16_linear_107_302)"/>
<path d="M594.598 159.011C593.84 164.057 596.724 170.843 597.637 170.986C598.55 171.128 604.198 165.387 604.956 160.341C605.713 155.295 602.41 148.28 601.497 148.138C600.584 147.995 595.355 153.964 594.598 159.011Z" fill="url(#paint17_linear_107_302)"/>
<defs>
<linearGradient id="paint0_linear_107_302" x1="526.558" y1="113.681" x2="430.573" y2="79.8322" gradientUnits="userSpaceOnUse">
<stop stop-color="#EFD6D6"/>
<stop offset="1" stop-color="#F4E7E7"/>
</linearGradient>
<linearGradient id="paint1_linear_107_302" x1="421.315" y1="764.562" x2="653.253" y2="474.769" gradientUnits="userSpaceOnUse">
<stop stop-color="#F4E7E7"/>
</linearGradient>
<linearGradient id="paint2_linear_107_302" x1="144.109" y1="428.544" x2="118.841" y2="570.81" gradientUnits="userSpaceOnUse">
<stop stop-color="#F4E7E7"/>
<stop offset="0.707012" stop-color="#F0DADA"/>
</linearGradient>
<linearGradient id="paint3_linear_107_302" x1="49.4303" y1="372.904" x2="182.715" y2="339.948" gradientUnits="userSpaceOnUse">
<stop offset="0.350962" stop-color="#F4E7E7"/>
</linearGradient>
<linearGradient id="paint4_linear_107_302" x1="146.092" y1="845.117" x2="270.184" y2="675.19" gradientUnits="userSpaceOnUse">
<stop stop-color="#F4E7E7"/>
<stop offset="0.850962" stop-color="#F3D7D7"/>
</linearGradient>
<linearGradient id="paint5_linear_107_302" x1="600.477" y1="120.607" x2="400.137" y2="263.936" gradientUnits="userSpaceOnUse">
<stop offset="0.350962" stop-color="#F4E7E7"/>
</linearGradient>
<linearGradient id="paint6_linear_107_302" x1="684.999" y1="234" x2="380.087" y2="189.212" gradientUnits="userSpaceOnUse">
<stop stop-color="#F4D2D2"/>
<stop offset="0.350962" stop-color="#F4E7E7"/>
</linearGradient>
<linearGradient id="paint7_linear_107_302" x1="470.257" y1="194.451" x2="464.124" y2="432.148" gradientUnits="userSpaceOnUse">
<stop stop-color="#F4E7E7"/>
<stop offset="0.841346" stop-color="#F4DADA"/>
</linearGradient>
<linearGradient id="paint8_linear_107_302" x1="508.308" y1="528.244" x2="197.192" y2="387.177" gradientUnits="userSpaceOnUse">
<stop offset="0.350962" stop-color="#F4E7E7"/>
</linearGradient>
<linearGradient id="paint9_linear_107_302" x1="336" y1="546.5" x2="434.5" y2="709" gradientUnits="userSpaceOnUse">
<stop offset="0.360577" stop-color="#F4E7E7"/>
<stop offset="0.971154" stop-color="#F0DBDB"/>
</linearGradient>
<linearGradient id="paint10_linear_107_302" x1="377.894" y1="417.058" x2="605.277" y2="417.058" gradientUnits="userSpaceOnUse">
<stop offset="0.350962" stop-color="#F4E7E7"/>
</linearGradient>
<linearGradient id="paint11_linear_107_302" x1="467.22" y1="783.062" x2="593.651" y2="783.062" gradientUnits="userSpaceOnUse">
<stop offset="0.350962" stop-color="#F4E7E7"/>
</linearGradient>
<linearGradient id="paint12_linear_107_302" x1="525.629" y1="763.652" x2="550.912" y2="741.414" gradientUnits="userSpaceOnUse">
<stop offset="0.350962" stop-color="#F4E7E7"/>
</linearGradient>
<linearGradient id="paint13_linear_107_302" x1="504.989" y1="103.634" x2="367.574" y2="65.403" gradientUnits="userSpaceOnUse">
<stop offset="1" stop-color="#F4E7E7"/>
</linearGradient>
<linearGradient id="paint14_linear_107_302" x1="660.001" y1="179" x2="660.001" y2="201" gradientUnits="userSpaceOnUse">
<stop stop-color="#ECC3D5"/>
<stop offset="1" stop-color="#FFD4E7"/>
</linearGradient>
<linearGradient id="paint15_linear_107_302" x1="603.435" y1="136.597" x2="596.314" y2="171.768" gradientUnits="userSpaceOnUse">
<stop offset="1" stop-color="white"/>
</linearGradient>
<linearGradient id="paint16_linear_107_302" x1="596.771" y1="147.523" x2="592.918" y2="172.004" gradientUnits="userSpaceOnUse">
<stop stop-color="#AFFFE6"/>
<stop offset="0.331731" stop-color="#C2FFD4"/>
<stop offset="1" stop-color="#BCFFC6"/>
</linearGradient>
<linearGradient id="paint17_linear_107_302" x1="596.587" y1="152.384" x2="604.379" y2="155.224" gradientUnits="userSpaceOnUse">
<stop offset="0.168269"/>
<stop offset="0.355769"/>
</linearGradient>
</defs>
</svg>
