<svg width="950" height="881" viewBox="0 0 950 881" fill="none" xmlns="http://www.w3.org/2000/svg">
<path d="M830.125 112.724C821.852 100.771 832.697 78.4901 847.704 79.3003C850.683 79.4612 853.499 80.4808 855.721 82.3288C937.471 150.319 950.503 307.971 821.966 349.686C820.556 350.144 819.043 350.338 817.595 350.26C804.858 349.573 801.956 329.035 812.501 321.158C890.4 262.967 869.526 169.652 830.125 112.724Z" fill="url(#paint0_linear_107_300)"/>
<path d="M873 397C873 479.843 816 596.905 751.5 667C668.657 667 487 584.843 487 502C581 303.5 640.157 247 723 247C805.843 247 873 314.157 873 397Z" fill="#EFE3D1"/>
<path d="M567.077 833.847L482 786.775L680.471 474.654L735 499.154L567.077 833.847Z" fill="url(#paint1_linear_107_300)"/>
<path d="M108.386 275.34C108.386 275.34 100.921 319.323 129.418 369.889C157.916 420.454 191.086 436.129 191.086 436.129L275.341 344.754C275.341 344.754 264.957 326.925 247.13 310.141C200.615 266.351 111.761 271.005 108.386 275.34Z" fill="#EFD8D1"/>
<path d="M252.077 561.932C232.259 522.255 263.529 476.199 307.812 473.737C423.741 467.293 505.743 424.355 603.086 315.05C631.027 283.675 682.623 288.602 701.395 326.187L746.46 416.411C755.614 434.74 754.281 456.711 742.431 473.425C631.474 629.93 535.7 678.497 340.806 673.975C320.228 673.497 301.732 661.348 292.535 642.934L252.077 561.932Z" fill="url(#paint2_linear_107_300)"/>
<rect x="130.756" y="824.743" width="92.271" height="362.897" transform="rotate(-136.812 130.756 824.743)" fill="url(#paint3_linear_107_300)"/>
<path d="M543 344.233C543 344.233 533.135 387.741 487.513 423.624C441.89 459.506 405.25 461.352 405.25 461.352L362.192 344.758C362.192 344.758 378.588 332.234 401.468 323.514C461.163 300.763 541.533 338.939 543 344.233Z" fill="#EFD8D1"/>
<path d="M135.392 305.034C135.392 305.034 163.156 293.44 197.407 304.199C231.657 314.958 243.804 334.102 243.804 334.102L190.444 402.847C190.444 402.847 178.347 398.835 166.452 389.828C135.418 366.326 132.821 307.891 135.392 305.034Z" fill="url(#paint4_linear_107_300)"/>
<path d="M502.149 351.597C502.149 351.597 477.694 334.07 441.903 336.872C406.112 339.673 389.98 355.604 389.98 355.604L426.558 434.567C426.558 434.567 439.246 433.371 452.858 427.262C488.374 411.321 504.014 354.958 502.149 351.597Z" fill="url(#paint5_linear_107_300)"/>
<rect x="645.579" y="847" width="92.271" height="362.897" rx="39" transform="rotate(-149.326 645.579 847)" fill="#EFE3D1"/>
<rect x="456" y="748" width="115" height="77" rx="34" fill="url(#paint6_linear_107_300)"/>
<rect x="546" y="770" width="115" height="77" rx="34" fill="url(#paint7_linear_107_300)"/>
<rect x="226.471" y="868.05" width="89.7014" height="404.734" rx="39" transform="rotate(-143.892 226.471 868.05)" fill="#EFE3D1"/>
<rect x="25" y="749.578" width="132.473" height="87.1261" rx="34" transform="rotate(-11.3223 25 749.578)" fill="url(#paint8_linear_107_300)"/>
<rect x="112" y="796" width="124.741" height="87.5242" rx="34" transform="rotate(-14.0158 112 796)" fill="url(#paint9_linear_107_300)"/>
<path d="M496.798 490.879C489.122 548.524 389.012 625.327 280.069 610.819C171.126 596.312 108.48 525.568 102.281 438.341C174.199 371.651 210.067 303.893 319.01 318.401C427.953 332.909 461.388 427.496 496.798 490.879Z" fill="url(#paint10_radial_107_300)"/>
<path d="M875.232 100.809C881.531 113.015 868.949 140.269 854.027 140.269C850.779 140.269 847.728 139.163 845.558 137.094C783.65 78.0825 815.951 0.845996 896.378 7.52303C904.047 8.37658 903.293 25.4029 896.235 29.5793C865.722 47.635 862.506 76.1458 875.232 100.809Z" fill="#EFE3D1"/>
<g clip-path="url(#paint11_diamond_107_300_clip_path)" data-figma-skip-parse="true"><g transform="matrix(-0.0033695 0.0171725 -0.0274761 -0.0053912 245.736 488.341)"><rect x="0" y="0" width="1057.14" height="1035.71" fill="url(#paint11_diamond_107_300)" opacity="1" shape-rendering="crispEdges"/><rect x="0" y="0" width="1057.14" height="1035.71" transform="scale(1 -1)" fill="url(#paint11_diamond_107_300)" opacity="1" shape-rendering="crispEdges"/><rect x="0" y="0" width="1057.14" height="1035.71" transform="scale(-1 1)" fill="url(#paint11_diamond_107_300)" opacity="1" shape-rendering="crispEdges"/><rect x="0" y="0" width="1057.14" height="1035.71" transform="scale(-1)" fill="url(#paint11_diamond_107_300)" opacity="1" shape-rendering="crispEdges"/></g></g><path d="M274.34 487.984C274.34 487.984 252.046 486.013 242.366 505.514C242.225 483.863 219.388 477.202 219.388 477.202C221.231 467.81 228.909 467.206 249.105 471.169C270.476 475.362 276.183 478.593 274.34 487.984Z" data-figma-gradient-fill="{&#34;type&#34;:&#34;GRADIENT_DIAMOND&#34;,&#34;stops&#34;:[{&#34;color&#34;:{&#34;r&#34;:0.99519228935241699,&#34;g&#34;:0.77988630533218384,&#34;b&#34;:0.87318551540374756,&#34;a&#34;:1.0},&#34;position&#34;:0.0},{&#34;color&#34;:{&#34;r&#34;:0.81250,&#34;g&#34;:0.63281250,&#34;b&#34;:0.71067708730697632,&#34;a&#34;:1.0},&#34;position&#34;:1.0}],&#34;stopsVar&#34;:[{&#34;color&#34;:{&#34;r&#34;:0.99519228935241699,&#34;g&#34;:0.77988630533218384,&#34;b&#34;:0.87318551540374756,&#34;a&#34;:1.0},&#34;position&#34;:0.0},{&#34;color&#34;:{&#34;r&#34;:0.81250,&#34;g&#34;:0.63281250,&#34;b&#34;:0.71067708730697632,&#34;a&#34;:1.0},&#34;position&#34;:1.0}],&#34;transform&#34;:{&#34;m00&#34;:-6.7389998435974121,&#34;m01&#34;:-54.952156066894531,&#34;m02&#34;:276.581542968750,&#34;m10&#34;:34.345096588134766,&#34;m11&#34;:-10.782399177551270,&#34;m12&#34;:476.55993652343750},&#34;opacity&#34;:1.0,&#34;blendMode&#34;:&#34;NORMAL&#34;,&#34;visible&#34;:true}"/>
<path d="M363.78 457.926C365.738 478.319 361.013 429.12 321.952 433.457C282.891 437.794 287.505 485.833 285.547 465.44C283.588 445.046 299.513 426.832 321.117 424.757C342.72 422.682 361.821 437.532 363.78 457.926Z" fill="#B4AB9D"/>
<path d="M223.95 453.417C213.612 471.105 238.552 428.432 213.184 414.282C187.816 400.131 163.465 441.798 173.803 424.11C184.14 406.421 203.746 398.643 217.594 406.736C231.442 414.829 234.287 435.729 223.95 453.417Z" fill="#BFB3A1"/>
<path d="M170.33 461.511C170.781 459.154 169.306 456.845 166.984 456.239C102.04 439.273 65.3177 430.884 11.8441 426.451C9.51987 426.258 7.42067 427.854 6.98317 430.145C6.46299 432.869 8.46624 435.425 11.2341 435.594C65.5134 438.901 106.138 447.491 164.513 465.025C167.109 465.805 169.822 464.174 170.33 461.511Z" fill="url(#paint12_linear_107_300)"/>
<path d="M166.54 474.445C166.397 472.049 164.401 470.174 162.001 470.156C94.8786 469.671 57.221 470.565 4.29784 479.408C1.99752 479.793 0.355043 481.856 0.49394 484.184C0.659084 486.952 3.22905 488.938 5.95342 488.421C59.3809 478.287 100.871 476.63 161.765 479.281C164.473 479.399 166.702 477.151 166.54 474.445Z" fill="url(#paint13_linear_107_300)"/>
<path d="M375.112 497.394C375.53 495.007 377.744 493.422 380.137 493.771C452.757 504.358 493.236 511.439 549.461 529.072C551.721 529.781 553.138 532.1 552.732 534.426C552.254 537.153 549.506 538.763 546.871 537.878C490.127 518.812 445.521 510.316 379.265 502.931C376.58 502.631 374.645 500.064 375.112 497.394Z" fill="url(#paint14_linear_107_300)"/>
<path d="M374.167 510.943C375.206 508.761 377.795 507.755 380.047 508.635C448.782 535.498 486.778 551.593 537.514 581.398C539.542 582.589 540.321 585.127 539.309 587.253C538.122 589.744 535.007 590.652 532.66 589.209C481.784 557.911 440.091 539.512 376.773 517.172C374.223 516.272 373.006 513.382 374.167 510.943Z" fill="url(#paint15_linear_107_300)"/>
<defs>
<clipPath id="paint11_diamond_107_300_clip_path"><path d="M274.34 487.984C274.34 487.984 252.046 486.013 242.366 505.514C242.225 483.863 219.388 477.202 219.388 477.202C221.231 467.81 228.909 467.206 249.105 471.169C270.476 475.362 276.183 478.593 274.34 487.984Z"/></clipPath><linearGradient id="paint0_linear_107_300" x1="865.801" y1="80.2774" x2="851.127" y2="352.071" gradientUnits="userSpaceOnUse">
<stop offset="0.620192" stop-color="#EFE3D1"/>
<stop offset="1" stop-color="#D9CEBF"/>
</linearGradient>
<linearGradient id="paint1_linear_107_300" x1="706.815" y1="498.19" x2="521.68" y2="810.311" gradientUnits="userSpaceOnUse">
<stop stop-color="#E3D9CB"/>
<stop offset="0.673077" stop-color="#EFE3D1"/>
</linearGradient>
<linearGradient id="paint2_linear_107_300" x1="560.478" y1="640.387" x2="348.935" y2="536.504" gradientUnits="userSpaceOnUse">
<stop offset="0.408654" stop-color="#EFE3D1"/>
<stop offset="1" stop-color="#D9D1C4"/>
</linearGradient>
<linearGradient id="paint3_linear_107_300" x1="176.891" y1="1187.64" x2="176.891" y2="824.743" gradientUnits="userSpaceOnUse">
<stop stop-color="#D9D0C2"/>
<stop offset="0.591346" stop-color="#EFE3D1"/>
</linearGradient>
<linearGradient id="paint4_linear_107_300" x1="134.747" y1="305.862" x2="216.48" y2="369.304" gradientUnits="userSpaceOnUse">
<stop stop-color="#DAAABF"/>
<stop offset="1" stop-color="#FAD6E6"/>
</linearGradient>
<linearGradient id="paint5_linear_107_300" x1="502.592" y1="352.549" x2="408.71" y2="396.037" gradientUnits="userSpaceOnUse">
<stop stop-color="#DAAABF"/>
<stop offset="1" stop-color="#FAD6E6"/>
</linearGradient>
<linearGradient id="paint6_linear_107_300" x1="476.051" y1="825" x2="550.949" y2="748" gradientUnits="userSpaceOnUse">
<stop stop-color="#FEF7EE"/>
<stop offset="1" stop-color="#EFE3D1"/>
</linearGradient>
<linearGradient id="paint7_linear_107_300" x1="566.051" y1="847" x2="640.949" y2="770" gradientUnits="userSpaceOnUse">
<stop stop-color="#FEF7EE"/>
<stop offset="1" stop-color="#EFE3D1"/>
</linearGradient>
<linearGradient id="paint8_linear_107_300" x1="48.097" y1="836.704" x2="132.79" y2="748.063" gradientUnits="userSpaceOnUse">
<stop stop-color="#FEF7EE"/>
<stop offset="1" stop-color="#EFE3D1"/>
</linearGradient>
<linearGradient id="paint9_linear_107_300" x1="133.749" y1="883.524" x2="218.902" y2="799.985" gradientUnits="userSpaceOnUse">
<stop stop-color="#FEF7EE"/>
<stop offset="1" stop-color="#EFE3D1"/>
</linearGradient>
<radialGradient id="paint10_radial_107_300" cx="0" cy="0" r="1" gradientUnits="userSpaceOnUse" gradientTransform="translate(264 494) rotate(102.137) scale(117.919 159.091)">
<stop stop-color="#FEF4E5"/>
<stop offset="0.899038" stop-color="#EFE3D1"/>
</radialGradient>
<linearGradient id="paint11_diamond_107_300" x1="0" y1="0" x2="500" y2="500" gradientUnits="userSpaceOnUse">
<stop stop-color="#FEC7DF"/>
<stop offset="1" stop-color="#CFA1B5"/>
</linearGradient>
<linearGradient id="paint12_linear_107_300" x1="170.648" y1="459.848" x2="7.26935" y2="428.647" gradientUnits="userSpaceOnUse">
<stop stop-color="#F3E7D7"/>
<stop offset="0.793269" stop-color="#FFEDED"/>
</linearGradient>
<linearGradient id="paint13_linear_107_300" x1="166.439" y1="472.755" x2="0.403056" y2="482.661" gradientUnits="userSpaceOnUse">
<stop stop-color="#F3E7D7"/>
<stop offset="0.793269" stop-color="#FFEDED"/>
</linearGradient>
<linearGradient id="paint14_linear_107_300" x1="375.411" y1="495.688" x2="554.04" y2="526.949" gradientUnits="userSpaceOnUse">
<stop stop-color="#F3E7D7"/>
<stop offset="0.793269" stop-color="#FFEDED"/>
</linearGradient>
<linearGradient id="paint15_linear_107_300" x1="374.91" y1="509.383" x2="539.149" y2="587.588" gradientUnits="userSpaceOnUse">
<stop stop-color="#F3E7D7"/>
<stop offset="0.793269" stop-color="#FFEDED"/>
</linearGradient>
</defs>
</svg>
