<svg width="620" height="800" viewBox="0 0 620 800" fill="none" xmlns="http://www.w3.org/2000/svg">
<rect x="188" y="409" width="259" height="261" rx="94" fill="url(#paint0_linear_107_298)"/>
<path d="M399.059 588.202C390.907 584.726 386.773 575.783 388.567 567.104C391.437 553.219 407.578 546.881 420.75 552.127C461.026 568.167 499.2 555.355 545.257 514.048C559.917 500.9 584.671 511.046 584 530.727C583.791 536.853 580.934 542.609 576.09 546.365C508.977 598.407 456.09 612.522 399.059 588.202Z" fill="#665A49"/>
<path d="M285.556 738.455C281.579 760.955 255.789 767.656 244.176 747.978C225.079 715.618 202.246 665.581 190.287 597.853C171.706 492.628 263.991 548.341 299.539 573.159C307.992 579.061 311.908 589.382 310.113 599.533L285.556 738.455Z" fill="url(#paint1_linear_107_298)"/>
<path d="M350.831 738.455C354.808 760.955 380.598 767.656 392.211 747.978C411.308 715.618 434.141 665.581 446.1 597.853C464.681 492.628 372.396 548.341 336.847 573.159C328.395 579.061 324.479 589.382 326.274 599.533L350.831 738.455Z" fill="url(#paint2_linear_107_298)"/>
<path d="M507.828 321.916C540.631 469.118 352.558 493.652 318.005 494.966C283.451 496.281 87.5039 459.48 128.181 321.916C128.181 229.731 213.168 181.5 318.005 181.5C422.841 181.5 507.828 229.731 507.828 321.916Z" fill="url(#paint3_radial_107_298)"/>
<path d="M98.079 53.6366C98.079 53.6366 164.454 60.2371 227.3 121.952C290.146 183.666 300.792 238.318 300.792 238.318L137.937 324.95L98.079 238.318L98.079 53.6366Z" fill="url(#paint4_linear_107_298)"/>
<path d="M537.075 45.6366C537.075 45.6366 470.7 52.2371 407.854 113.952C345.008 175.666 334.362 230.318 334.362 230.318L497.217 316.95L537.075 230.318L537.075 45.6366Z" fill="url(#paint5_linear_107_298)"/>
<path d="M136.327 111.532C136.327 111.532 169.564 118.261 203.579 155.585C237.594 192.909 245.385 223.896 245.385 223.896L168.555 264.766C168.555 264.766 156.6 251.338 146.257 232.272C119.27 182.527 132.752 112.974 136.327 111.532Z" fill="url(#paint6_linear_107_298)"/>
<path d="M496.116 109.532C496.116 109.532 462.879 116.261 428.864 153.585C394.849 190.909 387.058 221.896 387.058 221.896L463.888 262.766C463.888 262.766 475.843 249.338 486.186 230.272C513.173 180.527 499.691 110.974 496.116 109.532Z" fill="url(#paint7_linear_107_298)"/>
<path d="M0.446954 355.828C0.629376 351.087 4.30937 347.211 9.03523 346.783C79.0465 340.444 119.66 339.342 174.964 352.679C179.29 353.723 182.252 357.702 182.081 362.149C181.842 368.354 175.79 372.645 169.804 370.994C116.124 356.192 72.6674 356.08 11.4911 365.585C5.56435 366.506 0.216376 361.822 0.446954 355.828Z" fill="url(#paint8_linear_107_298)"/>
<path d="M19.8496 412.041C19.0654 407.361 21.8818 402.819 26.4223 401.44C93.6878 381.017 133.231 371.692 190.091 373.521C194.54 373.664 198.247 376.959 198.983 381.348C200.009 387.473 194.955 392.902 188.758 392.502C133.191 388.908 90.6167 397.623 32.6449 419.352C27.0287 421.458 20.8409 417.956 19.8496 412.041Z" fill="url(#paint9_linear_107_298)"/>
<path d="M600.325 414.737C601.287 410.091 598.646 405.444 594.161 403.893C527.724 380.919 488.565 370.091 431.677 369.749C427.226 369.723 423.395 372.874 422.493 377.232C421.234 383.312 426.077 388.931 432.285 388.767C487.948 387.297 530.159 397.629 587.26 421.555C592.791 423.873 599.108 420.61 600.325 414.737Z" fill="url(#paint10_linear_107_298)"/>
<path d="M619.271 356.23C619.089 351.488 615.409 347.613 610.683 347.185C540.672 340.846 500.058 339.744 444.754 353.081C440.428 354.125 437.466 358.104 437.637 362.551C437.876 368.756 443.928 373.047 449.914 371.396C503.594 356.594 547.051 356.482 608.227 365.987C614.154 366.908 619.502 362.224 619.271 356.23Z" fill="url(#paint11_linear_107_298)"/>
<g clip-path="url(#paint12_diamond_107_298_clip_path)" data-figma-skip-parse="true"><g transform="matrix(0 0.023 -0.028 0 321 388)"><rect x="0" y="0" width="1043.48" height="1035.71" fill="url(#paint12_diamond_107_298)" opacity="1" shape-rendering="crispEdges"/><rect x="0" y="0" width="1043.48" height="1035.71" transform="scale(1 -1)" fill="url(#paint12_diamond_107_298)" opacity="1" shape-rendering="crispEdges"/><rect x="0" y="0" width="1043.48" height="1035.71" transform="scale(-1 1)" fill="url(#paint12_diamond_107_298)" opacity="1" shape-rendering="crispEdges"/><rect x="0" y="0" width="1043.48" height="1035.71" transform="scale(-1)" fill="url(#paint12_diamond_107_298)" opacity="1" shape-rendering="crispEdges"/></g></g><path d="M349 380.301C349 380.301 326.744 383.4 321 411C316.692 383.112 293 380.301 293 380.301C293 367.722 300.419 365 321 365C342.778 365 349 367.722 349 380.301Z" data-figma-gradient-fill="{&#34;type&#34;:&#34;GRADIENT_DIAMOND&#34;,&#34;stops&#34;:[{&#34;color&#34;:{&#34;r&#34;:0.99519228935241699,&#34;g&#34;:0.77988630533218384,&#34;b&#34;:0.87318551540374756,&#34;a&#34;:1.0},&#34;position&#34;:0.0},{&#34;color&#34;:{&#34;r&#34;:0.81250,&#34;g&#34;:0.63281250,&#34;b&#34;:0.71067708730697632,&#34;a&#34;:1.0},&#34;position&#34;:1.0}],&#34;stopsVar&#34;:[{&#34;color&#34;:{&#34;r&#34;:0.99519228935241699,&#34;g&#34;:0.77988630533218384,&#34;b&#34;:0.87318551540374756,&#34;a&#34;:1.0},&#34;position&#34;:0.0},{&#34;color&#34;:{&#34;r&#34;:0.81250,&#34;g&#34;:0.63281250,&#34;b&#34;:0.71067708730697632,&#34;a&#34;:1.0},&#34;position&#34;:1.0}],&#34;transform&#34;:{&#34;m00&#34;:3.4290112931175884e-15,&#34;m01&#34;:-56.0,&#34;m02&#34;:349.0,&#34;m10&#34;:46.0,&#34;m11&#34;:2.8166877874156657e-15,&#34;m12&#34;:365.0},&#34;opacity&#34;:1.0,&#34;blendMode&#34;:&#34;NORMAL&#34;,&#34;visible&#34;:true}"/>
<path d="M403.727 303.807C448.224 303.37 447.324 303.749 432.855 333.762C425.841 348.312 409.016 359.526 388.809 357.927C352.223 355.032 352.223 355.032 359.682 327.973C363.801 313.028 383.17 304.009 403.727 303.807Z" fill="url(#paint13_linear_107_298)"/>
<ellipse cx="392.692" cy="331.817" rx="25.5" ry="26" transform="rotate(-8.64762 392.692 331.817)" fill="url(#paint14_linear_107_298)"/>
<ellipse cx="388.738" cy="332.419" rx="7.5" ry="26" transform="rotate(-8.64762 388.738 332.419)" fill="url(#paint15_linear_107_298)"/>
<path d="M241.05 306.589C196.553 306.152 197.454 306.531 211.922 336.543C218.937 351.094 235.762 362.307 255.968 360.709C292.555 357.814 292.555 357.814 285.096 330.754C280.977 315.81 261.607 306.791 241.05 306.589Z" fill="url(#paint16_linear_107_298)"/>
<ellipse cx="25.5" cy="26" rx="25.5" ry="26" transform="matrix(-0.988632 -0.150357 -0.150357 0.988632 281.205 312.729)" fill="url(#paint17_linear_107_298)"/>
<ellipse cx="7.5" cy="26" rx="7.5" ry="26" transform="matrix(-0.988632 -0.150357 -0.150357 0.988632 267.364 310.624)" fill="url(#paint18_linear_107_298)"/>
<defs>
<clipPath id="paint12_diamond_107_298_clip_path"><path d="M349 380.301C349 380.301 326.744 383.4 321 411C316.692 383.112 293 380.301 293 380.301C293 367.722 300.419 365 321 365C342.778 365 349 367.722 349 380.301Z"/></clipPath><linearGradient id="paint0_linear_107_298" x1="317.5" y1="409" x2="317.5" y2="670" gradientUnits="userSpaceOnUse">
<stop stop-color="#574D3F"/>
<stop offset="1" stop-color="#5C5244"/>
</linearGradient>
<linearGradient id="paint1_linear_107_298" x1="244.513" y1="532.419" x2="275.874" y2="792.438" gradientUnits="userSpaceOnUse">
<stop offset="0.264423" stop-color="#584F42"/>
<stop offset="1" stop-color="#BEAA8F"/>
</linearGradient>
<linearGradient id="paint2_linear_107_298" x1="391.874" y1="532.419" x2="360.513" y2="792.438" gradientUnits="userSpaceOnUse">
<stop offset="0.264423" stop-color="#584F42"/>
<stop offset="1" stop-color="#BEAA8F"/>
</linearGradient>
<radialGradient id="paint3_radial_107_298" cx="0" cy="0" r="1" gradientUnits="userSpaceOnUse" gradientTransform="translate(317 374) rotate(90) scale(143 177.439)">
<stop stop-color="#CCB493"/>
<stop offset="0.538462" stop-color="#7A6C58"/>
<stop offset="0.75" stop-color="#665A49"/>
</radialGradient>
<linearGradient id="paint4_linear_107_298" x1="100.26" y1="52.4763" x2="221.545" y2="280.474" gradientUnits="userSpaceOnUse">
<stop stop-color="#CCB493"/>
<stop offset="1" stop-color="#665A49"/>
</linearGradient>
<linearGradient id="paint5_linear_107_298" x1="534.894" y1="44.4763" x2="413.609" y2="272.474" gradientUnits="userSpaceOnUse">
<stop stop-color="#CCB493"/>
<stop offset="1" stop-color="#665A49"/>
</linearGradient>
<linearGradient id="paint6_linear_107_298" x1="135.399" y1="112.023" x2="206.044" y2="244.824" gradientUnits="userSpaceOnUse">
<stop stop-color="#DAAABF"/>
<stop offset="1" stop-color="#FAD6E6"/>
</linearGradient>
<linearGradient id="paint7_linear_107_298" x1="497.044" y1="110.023" x2="426.399" y2="242.824" gradientUnits="userSpaceOnUse">
<stop stop-color="#DAAABF"/>
<stop offset="1" stop-color="#FAD6E6"/>
</linearGradient>
<linearGradient id="paint8_linear_107_298" x1="0.554887" y1="353.022" x2="182.163" y2="360.01" gradientUnits="userSpaceOnUse">
<stop stop-color="#CCB493"/>
<stop offset="0.793269" stop-color="#665A49"/>
</linearGradient>
<linearGradient id="paint9_linear_107_298" x1="19.3855" y1="409.272" x2="198.629" y2="379.236" gradientUnits="userSpaceOnUse">
<stop stop-color="#CCB493"/>
<stop offset="0.793269" stop-color="#665A49"/>
</linearGradient>
<linearGradient id="paint10_linear_107_298" x1="600.894" y1="411.988" x2="422.927" y2="375.135" gradientUnits="userSpaceOnUse">
<stop stop-color="#CCB493"/>
<stop offset="0.793269" stop-color="#665A49"/>
</linearGradient>
<linearGradient id="paint11_linear_107_298" x1="619.163" y1="353.424" x2="437.555" y2="360.412" gradientUnits="userSpaceOnUse">
<stop stop-color="#CCB493"/>
<stop offset="0.793269" stop-color="#665A49"/>
</linearGradient>
<linearGradient id="paint12_diamond_107_298" x1="0" y1="0" x2="500" y2="500" gradientUnits="userSpaceOnUse">
<stop stop-color="#FEC7DF"/>
<stop offset="1" stop-color="#CFA1B5"/>
</linearGradient>
<linearGradient id="paint13_linear_107_298" x1="375.959" y1="288.668" x2="388.55" y2="358.363" gradientUnits="userSpaceOnUse">
<stop stop-color="#D6D6D6"/>
<stop offset="1" stop-color="white"/>
</linearGradient>
<linearGradient id="paint14_linear_107_298" x1="392.692" y1="305.817" x2="392.692" y2="357.817" gradientUnits="userSpaceOnUse">
<stop stop-color="#71835C"/>
<stop offset="0.629808" stop-color="#CAE9A4"/>
<stop offset="1" stop-color="#98B07B"/>
</linearGradient>
<linearGradient id="paint15_linear_107_298" x1="401.595" y1="319.292" x2="366.985" y2="330.814" gradientUnits="userSpaceOnUse">
<stop offset="0.168269"/>
<stop offset="0.355769"/>
</linearGradient>
<linearGradient id="paint16_linear_107_298" x1="268.819" y1="291.45" x2="256.227" y2="361.145" gradientUnits="userSpaceOnUse">
<stop stop-color="#D6D6D6"/>
<stop offset="1" stop-color="white"/>
</linearGradient>
<linearGradient id="paint17_linear_107_298" x1="25.5" y1="0" x2="25.5" y2="52" gradientUnits="userSpaceOnUse">
<stop stop-color="#71835C"/>
<stop offset="0.629808" stop-color="#CAE9A4"/>
<stop offset="1" stop-color="#98B07B"/>
</linearGradient>
<linearGradient id="paint18_linear_107_298" x1="20.3571" y1="12.8738" x2="-14.2526" y2="24.3955" gradientUnits="userSpaceOnUse">
<stop offset="0.168269"/>
<stop offset="0.355769"/>
</linearGradient>
</defs>
</svg>
