<svg width="711" height="823" viewBox="0 0 711 823" fill="none" xmlns="http://www.w3.org/2000/svg">
<path d="M365 805.015L347.5 583C347.5 583 647.361 718.895 677.92 735.5C708.479 752.105 677.92 805.449 677.92 805.449L365 805.015Z" fill="url(#paint0_linear_107_299)"/>
<path d="M365 393H550V795H365V393Z" fill="black"/>
<path d="M399.806 420.979C520.965 433.25 502.753 585.475 494.215 669.773C485.677 754.071 478.755 822.408 259.378 800.188C40 777.968 46.9216 709.631 55.4599 625.333C63.9982 541.035 278.647 408.707 399.806 420.979Z" fill="black"/>
<path d="M643.53 34.0442C643.53 34.0442 592.577 41.6793 542.424 93.8697C492.271 146.06 482.254 190.729 482.254 190.729L603.731 255.35C603.731 255.35 621.338 236.555 636.083 209.435C674.555 138.674 649.152 36.3807 643.53 34.0442Z" fill="black"/>
<path d="M284.924 34.0442C284.924 34.0442 335.877 41.6793 386.03 93.8697C436.183 146.06 446.2 190.729 446.2 190.729L324.723 255.35C324.723 255.35 307.116 236.555 292.371 209.435C253.899 138.674 279.302 36.3807 284.924 34.0442Z" fill="black"/>
<path d="M284.924 34.0442C284.924 34.0442 335.877 41.6793 386.03 93.8697C436.183 146.06 446.2 190.729 446.2 190.729L324.723 255.35C324.723 255.35 307.116 236.555 292.371 209.435C253.899 138.674 279.302 36.3807 284.924 34.0442Z" fill="black"/>
<path d="M305.327 73.5318C305.327 73.5318 338.564 80.2615 372.579 117.585C406.594 154.909 414.385 185.896 414.385 185.896L337.555 226.766C337.555 226.766 325.6 213.338 315.257 194.272C288.27 144.527 301.752 74.9738 305.327 73.5318Z" fill="url(#paint1_linear_107_299)"/>
<path d="M623.116 71.5318C623.116 71.5318 589.879 78.2615 555.864 115.585C521.849 152.909 514.058 183.896 514.058 183.896L590.888 224.766C590.888 224.766 602.843 211.338 613.186 192.272C640.173 142.527 626.691 72.9738 623.116 71.5318Z" fill="url(#paint2_linear_107_299)"/>
<path d="M443.511 601.796L545.947 557L630.436 750.204L528 795L443.511 601.796Z" fill="black"/>
<path d="M701.564 329.366C701.473 327.008 699.575 325.112 697.217 325.011C642.856 322.682 612.078 322.54 569.081 329.762C566.836 330.139 565.227 332.131 565.314 334.405C565.422 337.212 568.029 339.249 570.786 338.713C613.913 330.335 647.643 329.835 696.619 334.067C699.345 334.303 701.669 332.1 701.564 329.366Z" fill="url(#paint3_linear_107_299)"/>
<path d="M698.935 369.202C699.473 366.904 698.145 364.574 695.898 363.851C644.098 347.199 614.458 338.906 571.084 334.476C568.82 334.244 566.74 335.738 566.222 337.954C565.582 340.69 567.555 343.344 570.357 343.559C614.161 346.909 646.818 355.365 692.922 372.425C695.488 373.374 698.312 371.866 698.935 369.202Z" fill="url(#paint4_linear_107_299)"/>
<path d="M238.198 336.366C238.289 334.008 240.187 332.112 242.545 332.011C296.906 329.682 327.684 329.54 370.682 336.762C372.926 337.139 374.536 339.131 374.448 341.405C374.34 344.212 371.734 346.249 368.976 345.713C325.849 337.335 292.119 336.835 243.143 341.067C240.417 341.303 238.093 339.1 238.198 336.366Z" fill="url(#paint5_linear_107_299)"/>
<path d="M240.827 376.202C240.289 373.904 241.617 371.574 243.864 370.851C295.664 354.199 325.304 345.906 368.678 341.476C370.942 341.244 373.022 342.738 373.54 344.954C374.18 347.69 372.207 350.344 369.406 350.559C325.601 353.909 292.944 362.365 246.84 379.425C244.274 380.374 241.45 378.866 240.827 376.202Z" fill="url(#paint6_linear_107_299)"/>
<g clip-path="url(#paint7_diamond_107_299_clip_path)" data-figma-skip-parse="true"><g transform="matrix(0 0.1455 -0.149255 0 465 344.5)"><rect x="0" y="0" width="1487.97" height="1071.99" fill="url(#paint7_diamond_107_299)" opacity="1" shape-rendering="crispEdges"/><rect x="0" y="0" width="1487.97" height="1071.99" transform="scale(1 -1)" fill="url(#paint7_diamond_107_299)" opacity="1" shape-rendering="crispEdges"/><rect x="0" y="0" width="1487.97" height="1071.99" transform="scale(-1 1)" fill="url(#paint7_diamond_107_299)" opacity="1" shape-rendering="crispEdges"/><rect x="0" y="0" width="1487.97" height="1071.99" transform="scale(-1)" fill="url(#paint7_diamond_107_299)" opacity="1" shape-rendering="crispEdges"/></g></g><rect x="306" y="129" width="318" height="310" rx="118" data-figma-gradient-fill="{&#34;type&#34;:&#34;GRADIENT_DIAMOND&#34;,&#34;stops&#34;:[{&#34;color&#34;:{&#34;r&#34;:0.40000000596046448,&#34;g&#34;:0.40000000596046448,&#34;b&#34;:0.40000000596046448,&#34;a&#34;:1.0},&#34;position&#34;:0.0},{&#34;color&#34;:{&#34;r&#34;:0.068571425974369049,&#34;g&#34;:0.068571425974369049,&#34;b&#34;:0.068571425974369049,&#34;a&#34;:1.0},&#34;position&#34;:1.0}],&#34;stopsVar&#34;:[{&#34;color&#34;:{&#34;r&#34;:0.40000000596046448,&#34;g&#34;:0.40000000596046448,&#34;b&#34;:0.40000000596046448,&#34;a&#34;:1.0},&#34;position&#34;:0.0},{&#34;color&#34;:{&#34;r&#34;:0.068571425974369049,&#34;g&#34;:0.068571425974369049,&#34;b&#34;:0.068571425974369049,&#34;a&#34;:1.0},&#34;position&#34;:1.0}],&#34;transform&#34;:{&#34;m00&#34;:-6.1092911328788913e-13,&#34;m01&#34;:-298.50967407226562,&#34;m02&#34;:614.25482177734375,&#34;m10&#34;:291.0,&#34;m11&#34;:9.7289377617472417e-14,&#34;m12&#34;:199.00001525878906},&#34;opacity&#34;:1.0,&#34;blendMode&#34;:&#34;NORMAL&#34;,&#34;visible&#34;:true}"/>
<path d="M47.9001 254.684C53.8768 240.268 68.0962 231 83.7012 231C112.616 231 131.603 261.2 121.006 288.103C74.7171 405.617 76.7093 492.484 123.145 618.682C133.235 646.106 113.585 676 84.3637 676C68.3296 676 53.6933 666.571 47.4226 651.814C-14.4535 506.201 -17.3096 411.962 47.9001 254.684Z" fill="url(#paint8_linear_107_299)"/>
<g clip-path="url(#paint9_diamond_107_299_clip_path)" data-figma-skip-parse="true"><g transform="matrix(0 0.0175 -0.028 0 465 345.5)"><rect x="0" y="0" width="1057.14" height="1035.71" fill="url(#paint9_diamond_107_299)" opacity="1" shape-rendering="crispEdges"/><rect x="0" y="0" width="1057.14" height="1035.71" transform="scale(1 -1)" fill="url(#paint9_diamond_107_299)" opacity="1" shape-rendering="crispEdges"/><rect x="0" y="0" width="1057.14" height="1035.71" transform="scale(-1 1)" fill="url(#paint9_diamond_107_299)" opacity="1" shape-rendering="crispEdges"/><rect x="0" y="0" width="1057.14" height="1035.71" transform="scale(-1)" fill="url(#paint9_diamond_107_299)" opacity="1" shape-rendering="crispEdges"/></g></g><path d="M493 339.642C493 339.642 470.744 342 465 363C460.692 341.781 437 339.642 437 339.642C437 330.071 444.419 328 465 328C486.778 328 493 330.071 493 339.642Z" data-figma-gradient-fill="{&#34;type&#34;:&#34;GRADIENT_DIAMOND&#34;,&#34;stops&#34;:[{&#34;color&#34;:{&#34;r&#34;:0.99519228935241699,&#34;g&#34;:0.77988630533218384,&#34;b&#34;:0.87318551540374756,&#34;a&#34;:1.0},&#34;position&#34;:0.0},{&#34;color&#34;:{&#34;r&#34;:0.81250,&#34;g&#34;:0.63281250,&#34;b&#34;:0.71067708730697632,&#34;a&#34;:1.0},&#34;position&#34;:1.0}],&#34;stopsVar&#34;:[{&#34;color&#34;:{&#34;r&#34;:0.99519228935241699,&#34;g&#34;:0.77988630533218384,&#34;b&#34;:0.87318551540374756,&#34;a&#34;:1.0},&#34;position&#34;:0.0},{&#34;color&#34;:{&#34;r&#34;:0.81250,&#34;g&#34;:0.63281250,&#34;b&#34;:0.71067708730697632,&#34;a&#34;:1.0},&#34;position&#34;:1.0}],&#34;transform&#34;:{&#34;m00&#34;:3.4290112931175884e-15,&#34;m01&#34;:-56.0,&#34;m02&#34;:493.0,&#34;m10&#34;:35.0,&#34;m11&#34;:2.1431320581984927e-15,&#34;m12&#34;:328.0},&#34;opacity&#34;:1.0,&#34;blendMode&#34;:&#34;NORMAL&#34;,&#34;visible&#34;:true}"/>
<path d="M544.505 257.589C589.002 257.152 588.101 257.531 573.633 287.543C566.618 302.094 549.793 313.307 529.587 311.709C493 308.814 493 308.814 500.459 281.754C504.578 266.81 523.948 257.791 544.505 257.589Z" fill="url(#paint10_linear_107_299)"/>
<ellipse cx="533.469" cy="285.599" rx="25.5" ry="26" transform="rotate(-8.64762 533.469 285.599)" fill="url(#paint11_linear_107_299)"/>
<ellipse cx="529.515" cy="286.2" rx="7.5" ry="26" transform="rotate(-8.64762 529.515 286.2)" fill="url(#paint12_linear_107_299)"/>
<path d="M392.05 257.589C347.553 257.152 348.453 257.531 362.922 287.543C369.937 302.094 386.762 313.307 406.968 311.709C443.555 308.814 443.555 308.814 436.096 281.754C431.976 266.81 412.607 257.791 392.05 257.589Z" fill="url(#paint13_linear_107_299)"/>
<ellipse cx="25.5" cy="26" rx="25.5" ry="26" transform="matrix(-0.988632 -0.150357 -0.150357 0.988632 432.205 263.729)" fill="url(#paint14_linear_107_299)"/>
<ellipse cx="7.5" cy="26" rx="7.5" ry="26" transform="matrix(-0.988632 -0.150357 -0.150357 0.988632 418.364 261.624)" fill="url(#paint15_linear_107_299)"/>
<defs>
<clipPath id="paint7_diamond_107_299_clip_path"><rect x="306" y="129" width="318" height="310" rx="118"/></clipPath><clipPath id="paint9_diamond_107_299_clip_path"><path d="M493 339.642C493 339.642 470.744 342 465 363C460.692 341.781 437 339.642 437 339.642C437 330.071 444.419 328 465 328C486.778 328 493 330.071 493 339.642Z"/></clipPath><linearGradient id="paint0_linear_107_299" x1="638" y1="694" x2="691.594" y2="697.992" gradientUnits="userSpaceOnUse">
<stop/>
<stop offset="1" stop-color="#666666"/>
</linearGradient>
<linearGradient id="paint1_linear_107_299" x1="304.399" y1="74.0226" x2="375.044" y2="206.824" gradientUnits="userSpaceOnUse">
<stop stop-color="#DAAABF"/>
<stop offset="1" stop-color="#FAD6E6"/>
</linearGradient>
<linearGradient id="paint2_linear_107_299" x1="624.044" y1="72.0226" x2="553.399" y2="204.824" gradientUnits="userSpaceOnUse">
<stop stop-color="#DAAABF"/>
<stop offset="1" stop-color="#FAD6E6"/>
</linearGradient>
<linearGradient id="paint3_linear_107_299" x1="701.502" y1="327.762" x2="565.26" y2="333.004" gradientUnits="userSpaceOnUse">
<stop stop-color="#979797"/>
<stop offset="0.793269"/>
</linearGradient>
<linearGradient id="paint4_linear_107_299" x1="699.301" y1="367.639" x2="566.541" y2="336.589" gradientUnits="userSpaceOnUse">
<stop stop-color="#979797"/>
<stop offset="0.793269"/>
</linearGradient>
<linearGradient id="paint5_linear_107_299" x1="238.26" y1="334.762" x2="374.502" y2="340.004" gradientUnits="userSpaceOnUse">
<stop stop-color="#979797"/>
<stop offset="0.793269"/>
</linearGradient>
<linearGradient id="paint6_linear_107_299" x1="240.461" y1="374.639" x2="373.221" y2="343.589" gradientUnits="userSpaceOnUse">
<stop stop-color="#979797"/>
<stop offset="0.793269"/>
</linearGradient>
<linearGradient id="paint7_diamond_107_299" x1="0" y1="0" x2="500" y2="500" gradientUnits="userSpaceOnUse">
<stop stop-color="#666666"/>
<stop offset="1" stop-color="#111111"/>
</linearGradient>
<linearGradient id="paint8_linear_107_299" x1="73.0097" y1="231" x2="73.0097" y2="676" gradientUnits="userSpaceOnUse">
<stop stop-color="#666666"/>
<stop offset="1"/>
</linearGradient>
<linearGradient id="paint9_diamond_107_299" x1="0" y1="0" x2="500" y2="500" gradientUnits="userSpaceOnUse">
<stop stop-color="#FEC7DF"/>
<stop offset="1" stop-color="#CFA1B5"/>
</linearGradient>
<linearGradient id="paint10_linear_107_299" x1="516.736" y1="242.45" x2="529.328" y2="312.145" gradientUnits="userSpaceOnUse">
<stop stop-color="#D6D6D6"/>
<stop offset="1" stop-color="white"/>
</linearGradient>
<linearGradient id="paint11_linear_107_299" x1="533.469" y1="259.599" x2="533.469" y2="311.599" gradientUnits="userSpaceOnUse">
<stop stop-color="#FF8C19"/>
<stop offset="0.432692" stop-color="#FEC855"/>
<stop offset="1" stop-color="#FF9D00"/>
</linearGradient>
<linearGradient id="paint12_linear_107_299" x1="542.372" y1="273.074" x2="507.762" y2="284.596" gradientUnits="userSpaceOnUse">
<stop offset="0.168269"/>
<stop offset="0.355769"/>
</linearGradient>
<linearGradient id="paint13_linear_107_299" x1="419.819" y1="242.45" x2="407.227" y2="312.145" gradientUnits="userSpaceOnUse">
<stop stop-color="#D6D6D6"/>
<stop offset="1" stop-color="white"/>
</linearGradient>
<linearGradient id="paint14_linear_107_299" x1="25.5" y1="0" x2="25.5" y2="52" gradientUnits="userSpaceOnUse">
<stop stop-color="#FF8C19"/>
<stop offset="0.432692" stop-color="#FEC855"/>
<stop offset="1" stop-color="#FF9D00"/>
</linearGradient>
<linearGradient id="paint15_linear_107_299" x1="20.3571" y1="12.8738" x2="-14.2526" y2="24.3955" gradientUnits="userSpaceOnUse">
<stop offset="0.168269"/>
<stop offset="0.355769"/>
</linearGradient>
</defs>
</svg>
