<svg width="992" height="1087" viewBox="0 0 992 1087" fill="none" xmlns="http://www.w3.org/2000/svg">
<path d="M690.555 637.407C684.218 641.264 676.404 642.147 669.446 639.687C647.976 632.098 646.853 601.211 667.308 591.012C834.877 507.459 876.123 438.504 911.417 354.828C917.479 340.455 936.333 337.662 945.867 349.874C950.908 356.331 951.608 365.321 947.712 372.58C868.613 519.946 867.835 529.481 690.555 637.407Z" fill="url(#paint0_linear_107_301)"/>
<path d="M431.443 303.35C397.637 385.904 324.458 288.824 324.458 288.824C324.458 288.824 205.667 253.595 259.551 162.829C301.351 92.4178 346.016 110.009 393.072 121.266C496.442 145.994 461.918 228.929 431.443 303.35Z" fill="black"/>
<path d="M308.776 278.347C279.695 293.009 263.932 306.494 228.748 243.721C193.565 180.948 249.15 210.186 264.549 160.408C274.814 127.226 313.363 160.486 334.058 190.625C367.217 238.912 337.856 263.685 308.776 278.347Z" fill="black"/>
<path d="M329.622 44.7814C328.461 37.4156 336.06 31.6414 342.435 35.135C402.081 67.819 427.375 98.6219 451.225 159.194C453.101 163.958 450.576 169.467 445.758 171.233L364.706 200.94C359.509 202.844 354.021 199.59 353.154 194.091L329.622 44.7814Z" fill="url(#paint1_linear_107_301)"/>
<path d="M268.215 289.31C268.215 289.31 477.136 208.43 457.321 227.066C437.507 245.702 484.256 429.887 513.334 417.496C542.412 405.105 309.146 390.874 309.146 390.874C338.979 247.461 345.622 308.161 268.215 289.31Z" fill="black"/>
<path d="M332.093 303.296C332.093 303.296 417.897 263.165 482.267 373.784C546.637 484.402 787.517 510.642 660.432 675.179C533.347 839.716 559.082 705.453 559.082 705.453C486.556 675.754 207.519 436.406 332.093 303.296Z" fill="black"/>
<path d="M102.493 286.596C108.845 277.588 120.428 274.228 130.406 278.499L324.773 361.681C327.673 362.921 330.667 363.919 333.728 364.663L368.5 373.117C391.985 378.827 402.186 407.051 388.022 427.135C369.09 453.982 310.794 444.296 288.527 420.513C255.281 385.003 205.174 358.073 148.869 356.368C122.936 355.583 87.2887 308.156 102.493 286.596Z" fill="url(#paint2_linear_107_301)"/>
<path d="M618.541 885.847C605.868 885.997 594.217 878.881 588.7 867.542C523.626 733.789 522.966 698.526 523.712 650.945C524.508 600.148 564.23 554.41 615.189 554.806C679.629 555.306 716.736 625.473 682.221 679.932C638.76 748.506 625.135 783.144 647.529 823.797C661.734 849.585 648.133 885.496 618.541 885.847Z" fill="black"/>
<path d="M460.598 820.44C448.293 815.315 440.66 802.704 441.731 789.269L449.071 697.222C449.551 691.199 450.664 685.247 452.389 679.466L459.66 655.1C471.701 614.747 517.872 596.604 553.674 618.157L564.924 624.93C604.544 648.781 600.754 705.969 559.663 726.913C529.464 742.305 514.017 754.942 511.489 774.508C507.847 802.689 486.547 831.247 460.598 820.44Z" fill="black"/>
<path d="M170.698 557.317C168.62 550.598 170.723 543.26 176.055 538.625L337.386 398.41C365.725 373.781 409.824 386.188 420.867 421.898L427.234 442.486C435.117 467.975 414.473 493.327 387.773 494.173C330.371 495.991 276.427 511.128 244.045 556.394C231.833 573.464 176.871 577.279 170.698 557.317Z" fill="url(#paint3_linear_107_301)"/>
<path d="M497.673 925.787C501.292 901.473 549.602 865.954 599.088 826.676C619.956 810.112 652.403 824.992 651.755 851.43L651.698 853.761C651.055 879.991 605.493 911.78 583.931 927.067C577.483 931.639 570.95 937.32 564.43 944.077C544.986 964.229 493.574 953.328 497.673 925.787Z" fill="url(#paint4_linear_107_301)"/>
<path d="M341.59 820.846C351.348 800.657 405.317 784.232 460.885 764.757C483.851 756.709 507.672 779.132 499.999 802.253C492.11 826.025 443.437 840.797 419.37 847.638C411.951 849.747 404.114 852.908 395.977 857.123C372.691 869.183 330.169 844.475 341.59 820.846Z" fill="url(#paint5_linear_107_301)"/>
<path d="M231.768 207.822C231.768 213.897 221.054 204.041 218.055 218.822C218.055 218.822 210.769 211.491 210.769 205.416C210.769 199.341 210.481 196.822 218.055 196.822C225.628 196.822 231.768 201.747 231.768 207.822Z" fill="url(#paint6_linear_107_301)"/>
<path d="M298.374 161.368C324.385 161 323.856 161.22 315.104 178.524C310.862 186.913 300.918 193.408 289.124 192.541C267.768 190.972 267.768 190.972 272.393 175.385C274.947 166.777 286.357 161.538 298.374 161.368Z" fill="url(#paint7_linear_107_301)"/>
<path d="M297.459 176.519C298.655 184.151 294.607 191.096 288.418 192.031C282.228 192.967 276.242 187.538 275.046 179.907C273.851 172.275 277.899 165.33 284.088 164.395C290.277 163.46 296.264 168.888 297.459 176.519Z" fill="url(#paint8_linear_107_301)"/>
<path d="M290.879 177.999C291.83 183.687 288.209 191.338 287.062 191.499C285.916 191.659 278.822 185.187 277.871 179.499C276.92 173.81 281.069 165.902 282.215 165.742C283.362 165.581 289.928 172.31 290.879 177.999Z" fill="url(#paint9_linear_107_301)"/>
<path d="M267.661 209.109C268.757 207.956 270.882 207.137 272.555 207.221C307.056 208.943 326.171 210.513 349.477 216.328C350.827 216.665 351.038 217.739 349.986 218.845C348.655 220.245 345.906 221.091 344.241 220.627C321.478 214.288 300.905 212.255 269.06 211.744C267.034 211.711 266.367 210.47 267.661 209.109Z" fill="url(#paint10_linear_107_301)"/>
<path d="M262.117 215.737C263.414 214.693 265.625 214.361 267.264 214.965C293.057 224.464 307.301 230.527 322.901 242.166C324.058 243.029 323.996 244.369 322.773 245.353C321.102 246.699 318.068 246.795 316.551 245.58C301.816 233.771 286.842 226.961 263.115 219.518C260.992 218.852 260.502 217.038 262.117 215.737Z" fill="url(#paint11_linear_107_301)"/>
<defs>
<linearGradient id="paint0_linear_107_301" x1="726.442" y1="496.553" x2="1151.17" y2="136.689" gradientUnits="userSpaceOnUse">
<stop offset="0.274038"/>
<stop offset="0.365385" stop-color="#878787"/>
<stop offset="0.461538" stop-color="white"/>
</linearGradient>
<linearGradient id="paint1_linear_107_301" x1="350.343" y1="18.2885" x2="411.061" y2="183.95" gradientUnits="userSpaceOnUse">
<stop stop-color="#A7A7A7"/>
<stop offset="0.439469" stop-color="#313131"/>
<stop offset="0.620175"/>
<stop offset="0.667999"/>
</linearGradient>
<linearGradient id="paint2_linear_107_301" x1="125.519" y1="261.645" x2="323.722" y2="514.079" gradientUnits="userSpaceOnUse">
<stop stop-color="#B3B0B0"/>
<stop offset="0.350962"/>
</linearGradient>
<linearGradient id="paint3_linear_107_301" x1="59.268" y1="763.822" x2="357.309" y2="450.956" gradientUnits="userSpaceOnUse">
<stop offset="0.153846" stop-color="white"/>
<stop offset="1"/>
</linearGradient>
<linearGradient id="paint4_linear_107_301" x1="647.768" y1="886.322" x2="481.777" y2="1046.9" gradientUnits="userSpaceOnUse">
<stop/>
<stop offset="1" stop-color="#F2F2F2"/>
</linearGradient>
<linearGradient id="paint5_linear_107_301" x1="424.268" y1="773.322" x2="309.581" y2="882.125" gradientUnits="userSpaceOnUse">
<stop/>
<stop offset="1" stop-color="white"/>
</linearGradient>
<linearGradient id="paint6_linear_107_301" x1="221.268" y1="196.822" x2="221.268" y2="218.822" gradientUnits="userSpaceOnUse">
<stop stop-color="#ECC3D5"/>
<stop offset="1" stop-color="#FFD4E7"/>
</linearGradient>
<linearGradient id="paint7_linear_107_301" x1="282.292" y1="152.731" x2="289.554" y2="192.686" gradientUnits="userSpaceOnUse">
<stop stop-color="#D6D6D6"/>
<stop offset="1" stop-color="white"/>
</linearGradient>
<linearGradient id="paint8_linear_107_301" x1="288.15" y1="165.048" x2="292.067" y2="192.776" gradientUnits="userSpaceOnUse">
<stop stop-color="#AFE0FF"/>
<stop offset="0.331731" stop-color="#C2F2FF"/>
<stop offset="1" stop-color="#BCE5FF"/>
</linearGradient>
<linearGradient id="paint9_linear_107_301" x1="288.381" y1="170.529" x2="278.864" y2="174.392" gradientUnits="userSpaceOnUse">
<stop offset="0.168269"/>
<stop offset="0.355769"/>
</linearGradient>
<linearGradient id="paint10_linear_107_301" x1="268.387" y1="208.345" x2="316.489" y2="254.078" gradientUnits="userSpaceOnUse">
<stop/>
<stop offset="0.793269" stop-color="#FFEDED"/>
</linearGradient>
<linearGradient id="paint11_linear_107_301" x1="262.905" y1="215.103" x2="301.228" y2="262.701" gradientUnits="userSpaceOnUse">
<stop/>
<stop offset="0.793269" stop-color="#FFEDED"/>
</linearGradient>
</defs>
</svg>
