<svg width="333" height="512" viewBox="0 0 333 512" fill="none" xmlns="http://www.w3.org/2000/svg">
<path d="M210 0C277.379 4.89642e-06 332 54.6213 332 122V246C332 247.339 331.975 248.672 331.933 250H332V368H332.104L332.116 506.757L296.731 445.47L266.011 512.004L231.848 438.053L200.011 507.004L163.001 426.892L126.011 507.004L96.001 442.042L66.0059 507.004L36.6074 443.365L0.00878906 506.757L0.0185547 394H0V250H0.0673828C0.0245997 248.672 4.09664e-08 247.339 0 246V122C2.06219e-06 54.6213 54.6213 0 122 0H210Z" fill="url(#paint0_linear_81_585)"/>
<path d="M105 73C126.539 73 144 90.4609 144 112V181C144 202.539 126.539 220 105 220H100C78.4609 220 61 202.539 61 181V112C61 90.4609 78.4609 73 100 73H105Z" fill="white"/>
<rect x="101" y="100" width="43" height="93" rx="21.5" fill="black"/>
<path d="M226 73C247.539 73 265 90.4609 265 112V181C265 202.539 247.539 220 226 220H221C199.461 220 182 202.539 182 181V112C182 90.4609 199.461 73 221 73H226Z" fill="white"/>
<rect x="222" y="100" width="43" height="93" rx="21.5" fill="black"/>
<defs>
<linearGradient id="paint0_linear_81_585" x1="166.058" y1="0" x2="166.058" y2="512.004" gradientUnits="userSpaceOnUse">
<stop stop-color="#D5F9FF"/>
<stop offset="1" stop-color="#FFA9F6"/>
</linearGradient>
</defs>
</svg>
