<svg width="333" height="512" viewBox="0 0 333 512" fill="none" xmlns="http://www.w3.org/2000/svg">
<path d="M210 0C277.379 4.89642e-06 332 54.6213 332 122V246C332 247.339 331.975 248.672 331.933 250H332V368H332.104L332.116 506.757L296.731 445.47L266.011 512.004L231.848 438.053L200.011 507.004L163.001 426.892L126.011 507.004L96.001 442.042L66.0059 507.004L36.6074 443.365L0.00878906 506.757L0.0185547 394H0V250H0.0673828C0.0245997 248.672 4.09664e-08 247.339 0 246V122C2.06219e-06 54.6213 54.6213 0 122 0H210Z" fill="url(#paint0_linear_81_582)"/>
<path d="M106 89C127.539 89 145 106.461 145 128V197C145 218.539 127.539 236 106 236H101C79.4609 236 62 218.539 62 197V128C62 106.461 79.4609 89 101 89H106Z" fill="white"/>
<rect x="102" y="116" width="43" height="93" rx="21.5" fill="black"/>
<path d="M227 89C248.539 89 266 106.461 266 128V197C266 218.539 248.539 236 227 236H222C200.461 236 183 218.539 183 197V128C183 106.461 200.461 89 222 89H227Z" fill="white"/>
<rect x="223" y="116" width="43" height="93" rx="21.5" fill="black"/>
<defs>
<linearGradient id="paint0_linear_81_582" x1="166.058" y1="0" x2="166.058" y2="512.004" gradientUnits="userSpaceOnUse">
<stop stop-color="#9ABEFF"/>
<stop offset="1" stop-color="#A7F2FF"/>
</linearGradient>
</defs>
</svg>
