<svg width="333" height="512" viewBox="0 0 333 512" fill="none" xmlns="http://www.w3.org/2000/svg">
<path d="M210 0C277.379 4.89642e-06 332 54.6213 332 122V246C332 247.339 331.975 248.672 331.933 250H332V368H332.104L332.116 506.757L296.731 445.47L266.011 512.004L231.848 438.053L200.011 507.004L163.001 426.892L126.011 507.004L96.001 442.042L66.0059 507.004L36.6074 443.365L0.00878906 506.757L0.0185547 394H0V250H0.0673828C0.0245997 248.672 4.09664e-08 247.339 0 246V122C2.06219e-06 54.6213 54.6213 0 122 0H210Z" fill="url(#paint0_linear_81_586)"/>
<path d="M264.887 253.415L258.376 258.062L231.891 220.805L236.422 213.531L264.887 253.415Z" fill="black"/>
<path d="M213.392 260.815L208.962 253.55L236.51 213.767L241.514 221.24L213.392 260.815Z" fill="black"/>
<path d="M170.887 253.338L166.391 260.341L139.211 220.063L144.028 212.974L170.887 253.338Z" fill="black"/>
<path d="M119.39 258.366L114.386 251.369L144.106 213.213L147.611 220.219L119.39 258.366Z" fill="black"/>
<path d="M122.887 252.982L118.89 258.866L91.2111 219.088L96.0275 212L122.887 252.982Z" fill="black"/>
<path d="M73.3911 255.709L67 250.897L96.1059 212.239L100.809 219.905L73.3911 255.709Z" fill="black"/>
<path d="M217.888 253.44L212.891 259.815L184.891 220.831L189.422 213.557L217.888 253.44Z" fill="black"/>
<path d="M166.391 259.841L161.962 253.575L189.51 213.792L194.514 221.265L166.391 259.841Z" fill="black"/>
<rect x="124" y="108" width="11" height="63" fill="black"/>
<rect x="195" y="108" width="11" height="63" fill="black"/>
<defs>
<linearGradient id="paint0_linear_81_586" x1="166.058" y1="0" x2="166.058" y2="512.004" gradientUnits="userSpaceOnUse">
<stop stop-color="white"/>
<stop offset="1" stop-color="#150E26"/>
</linearGradient>
</defs>
</svg>
