<svg width="333" height="512" viewBox="0 0 333 512" fill="none" xmlns="http://www.w3.org/2000/svg">
<path d="M210 0C277.379 4.89642e-06 332 54.6213 332 122V246C332 247.339 331.975 248.672 331.933 250H332V368H332.104L332.116 506.757L296.731 445.47L266.011 512.004L231.848 438.053L200.011 507.004L163.001 426.892L126.011 507.004L96.001 442.042L66.0059 507.004L36.6074 443.365L0.00878906 506.757L0.0185547 394H0V250H0.0673828C0.0245997 248.672 4.09664e-08 247.339 0 246V122C2.06219e-06 54.6213 54.6213 0 122 0H210Z" fill="url(#paint0_linear_81_584)"/>
<path d="M99 70C120.539 70 138 87.4609 138 109V178C138 199.539 120.539 217 99 217H94C72.4609 217 55 199.539 55 178V109C55 87.4609 72.4609 70 94 70H99Z" fill="white"/>
<rect x="95" y="97" width="43" height="93" rx="21.5" fill="black"/>
<path d="M220 70C241.539 70 259 87.4609 259 109V178C259 199.539 241.539 217 220 217H215C193.461 217 176 199.539 176 178V109C176 87.4609 193.461 70 215 70H220Z" fill="white"/>
<rect x="216" y="97" width="43" height="93" rx="21.5" fill="black"/>
<defs>
<linearGradient id="paint0_linear_81_584" x1="166.058" y1="0" x2="166.058" y2="512.004" gradientUnits="userSpaceOnUse">
<stop stop-color="#FFD5DB"/>
<stop offset="1" stop-color="#FFDDA7"/>
</linearGradient>
</defs>
</svg>
