<svg width="370" height="387" viewBox="0 0 370 387" fill="none" xmlns="http://www.w3.org/2000/svg">
<path d="M369.874 286.003C355.602 320.802 329.667 349.59 296.49 367.463C263.313 385.336 224.947 391.187 187.927 384.02C150.908 376.854 117.527 357.112 93.4707 328.159C69.4149 299.206 56.1731 262.834 56.0017 225.239C55.8303 187.644 68.7397 151.153 92.5305 121.983C116.321 92.8138 149.521 72.7704 186.474 65.2684C223.426 57.7664 261.845 63.2699 295.183 80.8413C328.522 98.4126 354.718 126.965 369.307 161.632L291.654 193.436L214 225.239L369.874 286.003Z" fill="url(#paint0_linear_81_587)"/>
<path d="M138.139 114.944C162.088 114.025 177.392 140.171 164.865 160.603L141.658 198.454C129.812 217.775 101.641 217.487 90.1918 197.928L69.0326 161.779C57.5835 142.22 71.1253 117.516 93.7728 116.646L138.139 114.944Z" fill="#FF5E91"/>
<path d="M171.076 160.97C147.222 163.275 130.427 138.06 141.749 116.937L162.724 77.8042C173.431 57.8285 201.571 56.4834 214.134 75.3467L237.353 110.208C249.916 129.072 237.829 154.519 215.27 156.699L171.076 160.97Z" fill="#FF5E91"/>
<rect x="120.801" y="118.679" width="36.5885" height="64.5485" rx="10" transform="rotate(-28.8944 120.801 118.679)" fill="#FF3575"/>
<defs>
<linearGradient id="paint0_linear_81_587" x1="213" y1="315" x2="213" y2="-245" gradientUnits="userSpaceOnUse">
<stop stop-color="#FFA7D4"/>
<stop offset="0.603571" stop-color="#FFDBEE"/>
<stop offset="1" stop-color="white"/>
</linearGradient>
</defs>
</svg>
