<svg width="239" height="242" viewBox="0 0 239 242" fill="none" xmlns="http://www.w3.org/2000/svg">
<path d="M92.1554 112.832C85.6803 116.995 77.1262 112.587 76.7583 104.898L74.2352 52.1306C73.8674 44.4414 81.9607 39.2376 88.8036 42.7637L108.64 52.9856L118.712 38.7308C123.155 32.4444 132.738 33.3245 135.961 40.3151L146.645 63.489L171.89 57.3538C179.37 55.5364 186.013 62.4985 183.847 69.8853L176.58 94.6692L197.589 100.755C204.983 102.897 207.285 112.24 201.733 117.572L187.584 131.162L196.769 151.083C199.992 158.073 194.44 165.932 186.774 165.228L134.168 160.397C126.502 159.693 122.473 150.955 126.915 144.668L140.949 124.809L137.001 108.791L129.289 100.709L113.296 99.2397L92.1554 112.832Z" fill="url(#paint0_linear_81_581)"/>
<path d="M166 159C166 204.84 128.84 242 83 242C0 242 0 242 0 159C0 113.16 37.1604 76 83 76C128.84 76 166 113.16 166 159Z" fill="url(#paint1_linear_81_581)"/>
<defs>
<linearGradient id="paint0_linear_81_581" x1="176.786" y1="55.329" x2="149.451" y2="151.819" gradientUnits="userSpaceOnUse">
<stop stop-color="#8FFF93"/>
<stop offset="1" stop-color="#8DD38F"/>
</linearGradient>
<linearGradient id="paint1_linear_81_581" x1="83" y1="76" x2="83" y2="242" gradientUnits="userSpaceOnUse">
<stop stop-color="#FF8394"/>
<stop offset="1" stop-color="#FF4A62"/>
</linearGradient>
</defs>
</svg>
