<svg width="2950" height="3156" viewBox="0 0 2950 3156" fill="none" xmlns="http://www.w3.org/2000/svg">
<path d="M2566.68 387.324C2540.41 346.457 2575.82 275.747 2625.46 278.732C2636.45 279.393 2646.78 283.476 2654.64 290.808C2911.3 530.359 2951.77 1082.19 2547.91 1229.32C2542.65 1231.23 2536.95 1232.03 2531.46 1231.7C2488.53 1229.12 2476.92 1161.74 2511.14 1134.07C2767.6 926.667 2695.72 588.039 2566.68 387.324Z" fill="url(#paint0_linear_115_83)"/>
<path d="M2707.83 1396.16C2707.83 1687.5 2527.83 2099.19 2324.15 2345.69C2062.54 2345.69 1488.89 2056.77 1488.89 1765.43C1785.73 1067.34 1972.54 868.646 2234.15 868.646C2495.75 868.646 2707.83 1104.82 2707.83 1396.16Z" fill="#635544"/>
<path d="M1741.76 2932.46L1473.1 2766.92L2099.85 1669.26L2272.04 1755.42L1741.76 2932.46Z" fill="url(#paint1_linear_115_83)"/>
<path d="M293.272 968.313C293.272 968.313 269.695 1122.99 359.688 1300.82C449.681 1478.65 554.425 1533.77 554.425 1533.77L820.493 1212.42C820.493 1212.42 787.703 1149.72 731.406 1090.7C584.519 936.699 303.928 953.067 293.272 968.313Z" fill="#4D453D"/>
<path d="M596.714 1805.43C578.261 1764.29 610.909 1715.04 654.2 1717.33C1198.23 1746.07 1504.27 1585.11 1931.29 992.078C1957.05 956.307 2007.95 959.301 2025.41 998.219L2291.18 1590.81C2299.33 1608.98 2297.67 1631.18 2286.9 1648.81C1904.05 2275.69 1593.75 2451.58 902.403 2418.88C883.18 2417.97 866.113 2406.1 857.924 2387.84L596.714 1805.43Z" fill="url(#paint2_linear_115_83)"/>
<rect width="307.337" height="1216.96" transform="matrix(-0.701826 -0.712349 0.633148 -0.774031 372.426 2904.59)" fill="url(#paint3_linear_115_83)"/>
<path d="M1665.73 1210.59C1665.73 1210.59 1634.58 1363.6 1490.51 1489.79C1346.44 1615.98 1230.73 1622.48 1230.73 1622.48L1094.76 1212.44C1094.76 1212.44 1146.54 1168.39 1218.79 1137.73C1407.3 1057.72 1661.1 1191.97 1665.73 1210.59Z" fill="#4D453D"/>
<path d="M378.552 1072.74C378.552 1072.74 466.228 1031.97 574.387 1069.8C682.545 1107.64 720.903 1174.97 720.903 1174.97L552.399 1416.73C552.399 1416.73 514.198 1402.62 476.637 1370.94C378.636 1288.29 370.434 1082.79 378.552 1072.74Z" fill="url(#paint4_linear_115_83)"/>
<path d="M1536.73 1236.49C1536.73 1236.49 1459.5 1174.85 1346.48 1184.7C1233.45 1194.56 1182.51 1250.58 1182.51 1250.58L1298.02 1528.28C1298.02 1528.28 1338.09 1524.07 1381.07 1502.59C1493.23 1446.53 1542.62 1248.31 1536.73 1236.49Z" fill="url(#paint5_linear_115_83)"/>
<path d="M2008 2944.29C1997.87 2963.3 1975.09 2969.09 1957.12 2957.22L1771.59 2834.67C1753.62 2822.79 1747.26 2797.76 1757.39 2778.75L2305.35 1749.93C2315.48 1730.92 2338.25 1725.13 2356.23 1737.01L2541.75 1859.56C2559.73 1871.43 2566.09 1896.47 2555.96 1915.48L2008 2944.29Z" fill="#635544"/>
<path d="M1281.47 2922.66C1270.83 2907.97 1274.51 2887.4 1289.57 2877.3L1490.69 2742.54C1502.44 2734.66 1517.98 2735.44 1528.88 2744.45L1680.74 2869.95C1696.68 2883.12 1696.13 2907.73 1679.61 2920.18L1446.88 3095.47C1432.58 3106.25 1412.22 3103.19 1401.71 3088.69L1281.47 2922.66Z" fill="url(#paint6_linear_115_83)"/>
<rect x="1557.16" y="2929.04" width="363.156" height="270.792" rx="34" transform="rotate(-34.5129 1557.16 2929.04)" fill="url(#paint7_linear_115_83)"/>
<rect width="294.845" height="1416.27" rx="39" transform="matrix(-0.753606 -0.657326 0.576896 -0.816818 642.917 3043.14)" fill="#635544"/>
<rect width="420.266" height="305.258" rx="34" transform="matrix(0.97603 -0.217636 0.176953 0.984219 0 2615.46)" fill="url(#paint8_linear_115_83)"/>
<path d="M288.083 2906.74C279.79 2889.67 286.714 2868.42 303.465 2859.53L458.26 2777.38C471.486 2770.36 487.311 2773.06 497.22 2784.03L662.004 2966.47C676.946 2983.02 672.109 3010.33 652.311 3021.22L438.583 3138.8C422.13 3147.85 402.14 3141.49 393.934 3124.6L288.083 2906.74Z" fill="url(#paint9_linear_115_83)"/>
<path d="M1519.83 1726.31C1495.59 1929.04 1179.45 2199.14 835.426 2148.12C491.397 2097.1 293.567 1848.31 273.993 1541.55C501.099 1307.02 614.369 1068.73 958.397 1119.75C1302.43 1170.77 1408.01 1503.41 1519.83 1726.31Z" fill="url(#paint10_radial_115_83)"/>
<path d="M2718.92 362.878C2740.22 404.99 2700.99 493.295 2650.9 493.295C2638.78 493.295 2627.38 488.802 2619.6 480.457C2426.22 273.142 2528.35 3.03812 2781.65 26.4567C2808.02 29.7247 2807.66 87.0843 2784.24 102.053C2681.89 167.458 2673.67 273.406 2718.92 362.878Z" fill="#635544"/>
<g clip-path="url(#paint11_diamond_115_83_clip_path)" data-figma-skip-parse="true"><g transform="matrix(-0.0106405 0.0603921 -0.0867661 -0.0189597 727.005 1717.39)"><rect x="0" y="0" width="1016.31" height="1011.26" fill="url(#paint11_diamond_115_83)" opacity="1" shape-rendering="crispEdges"/><rect x="0" y="0" width="1016.31" height="1011.26" transform="scale(1 -1)" fill="url(#paint11_diamond_115_83)" opacity="1" shape-rendering="crispEdges"/><rect x="0" y="0" width="1016.31" height="1011.26" transform="scale(-1 1)" fill="url(#paint11_diamond_115_83)" opacity="1" shape-rendering="crispEdges"/><rect x="0" y="0" width="1016.31" height="1011.26" transform="scale(-1)" fill="url(#paint11_diamond_115_83)" opacity="1" shape-rendering="crispEdges"/></g></g><path d="M817.332 1716.14C817.332 1716.14 746.931 1709.2 716.364 1777.78C715.917 1701.64 643.8 1678.22 643.8 1678.22C649.619 1645.19 673.869 1643.06 737.645 1657C805.13 1671.74 823.152 1683.11 817.332 1716.14Z" data-figma-gradient-fill="{&#34;type&#34;:&#34;GRADIENT_DIAMOND&#34;,&#34;stops&#34;:[{&#34;color&#34;:{&#34;r&#34;:0.99519228935241699,&#34;g&#34;:0.77988630533218384,&#34;b&#34;:0.87318551540374756,&#34;a&#34;:1.0},&#34;position&#34;:0.0},{&#34;color&#34;:{&#34;r&#34;:0.81250,&#34;g&#34;:0.63281250,&#34;b&#34;:0.71067708730697632,&#34;a&#34;:1.0},&#34;position&#34;:1.0}],&#34;stopsVar&#34;:[{&#34;color&#34;:{&#34;r&#34;:0.99519228935241699,&#34;g&#34;:0.77988630533218384,&#34;b&#34;:0.87318551540374756,&#34;a&#34;:1.0},&#34;position&#34;:0.0},{&#34;color&#34;:{&#34;r&#34;:0.81250,&#34;g&#34;:0.63281250,&#34;b&#34;:0.71067708730697632,&#34;a&#34;:1.0},&#34;position&#34;:1.0}],&#34;transform&#34;:{&#34;m00&#34;:-21.280942916870117,&#34;m01&#34;:-173.53222656250,&#34;m02&#34;:824.41113281250,&#34;m10&#34;:120.78428649902344,&#34;m11&#34;:-37.919368743896484,&#34;m12&#34;:1675.9578857421875},&#34;opacity&#34;:1.0,&#34;blendMode&#34;:&#34;NORMAL&#34;,&#34;visible&#34;:true}"/>
<path d="M1099.77 1610.43C1105.96 1682.15 1091.04 1509.12 967.686 1524.37C844.337 1539.63 858.907 1708.57 852.722 1636.85C846.537 1565.13 896.827 1501.07 965.048 1493.78C1033.27 1486.48 1093.59 1538.71 1099.77 1610.43Z" fill="#171717"/>
<path d="M658.207 1594.57C625.562 1656.77 704.317 1506.7 624.209 1456.94C544.101 1407.17 467.203 1553.71 499.847 1491.5C532.492 1429.3 594.405 1401.94 638.135 1430.4C681.864 1458.86 690.851 1532.36 658.207 1594.57Z" fill="#1D1D1D"/>
<defs>
<clipPath id="paint11_diamond_115_83_clip_path"><path d="M817.332 1716.14C817.332 1716.14 746.931 1709.2 716.364 1777.78C715.917 1701.64 643.8 1678.22 643.8 1678.22C649.619 1645.19 673.869 1643.06 737.645 1657C805.13 1671.74 823.152 1683.11 817.332 1716.14Z"/></clipPath><linearGradient id="paint0_linear_115_83" x1="2685.09" y1="282.318" x2="2627.66" y2="1237.49" gradientUnits="userSpaceOnUse">
<stop offset="0.620192" stop-color="#635544"/>
<stop offset="1" stop-color="#493F32"/>
</linearGradient>
<linearGradient id="paint1_linear_115_83" x1="2183.04" y1="1752.03" x2="1500.62" y2="2785.1" gradientUnits="userSpaceOnUse">
<stop offset="0.0335538" stop-color="#111111"/>
<stop offset="0.0336538" stop-color="#111111"/>
<stop offset="1" stop-color="#635544"/>
</linearGradient>
<linearGradient id="paint2_linear_115_83" x1="2423" y1="1195" x2="1657.04" y2="2267.56" gradientUnits="userSpaceOnUse">
<stop offset="0.355769" stop-color="#635544"/>
<stop offset="1" stop-color="#0D0B09"/>
</linearGradient>
<linearGradient id="paint3_linear_115_83" x1="153.668" y1="1216.96" x2="153.668" y2="0" gradientUnits="userSpaceOnUse">
<stop stop-color="#2F2C2A"/>
<stop offset="0.591346" stop-color="#635544"/>
</linearGradient>
<linearGradient id="paint4_linear_115_83" x1="376.516" y1="1075.65" x2="654.892" y2="1269.68" gradientUnits="userSpaceOnUse">
<stop stop-color="#DAAABF"/>
<stop offset="1" stop-color="#FAD6E6"/>
</linearGradient>
<linearGradient id="paint5_linear_115_83" x1="1538.13" y1="1239.84" x2="1231.15" y2="1367.52" gradientUnits="userSpaceOnUse">
<stop stop-color="#DAAABF"/>
<stop offset="1" stop-color="#FAD6E6"/>
</linearGradient>
<linearGradient id="paint6_linear_115_83" x1="1472.12" y1="3077.95" x2="1542.62" y2="2727.5" gradientUnits="userSpaceOnUse">
<stop stop-color="#33312D"/>
<stop offset="0.576923" stop-color="#635544"/>
</linearGradient>
<linearGradient id="paint7_linear_115_83" x1="1620.47" y1="3199.84" x2="1883.14" y2="2957.36" gradientUnits="userSpaceOnUse">
<stop stop-color="#312F2C"/>
<stop offset="0.586538" stop-color="#635544"/>
</linearGradient>
<linearGradient id="paint8_linear_115_83" x1="73.2745" y1="305.258" x2="369.888" y2="24.1606" gradientUnits="userSpaceOnUse">
<stop stop-color="#4A433B"/>
<stop offset="0.0001" stop-color="#4A433B"/>
<stop offset="1" stop-color="#635544"/>
</linearGradient>
<linearGradient id="paint9_linear_115_83" x1="615.403" y1="2844.21" x2="349.94" y2="3031.71" gradientUnits="userSpaceOnUse">
<stop offset="0.331731" stop-color="#635544"/>
<stop offset="1" stop-color="#403C37"/>
</linearGradient>
<radialGradient id="paint10_radial_115_83" cx="0" cy="0" r="1" gradientTransform="matrix(-78.2914 405.428 -491.162 -117.632 784.681 1737.29)" gradientUnits="userSpaceOnUse">
<stop stop-color="#030202"/>
<stop offset="1" stop-color="#635545"/>
</radialGradient>
<linearGradient id="paint11_diamond_115_83" x1="0" y1="0" x2="500" y2="500" gradientUnits="userSpaceOnUse">
<stop stop-color="#FEC7DF"/>
<stop offset="1" stop-color="#CFA1B5"/>
</linearGradient>
</defs>
</svg>
