<svg width="3685" height="2945" viewBox="0 0 3685 2945" fill="none" xmlns="http://www.w3.org/2000/svg">
<path d="M1040.15 1275.75C1040.15 1232.64 1069.55 1194.98 1111.45 1184.83C1898.06 994.298 2364.59 998.572 3162.25 1194.73C3182.19 1199.64 3200.4 1211.22 3213.03 1227.4C3529.25 1632.63 3505.26 1903.71 3220.35 2394.53C3203.73 2423.16 3172.95 2440.59 3139.84 2440.59H1134.15C1082.24 2440.59 1040.15 2398.51 1040.15 2346.59V1275.75Z" fill="url(#paint0_linear_115_121)"/>
<path d="M1083.55 1948.16C1084.62 1930.35 1070.23 1915.82 1053.62 1919.17C978.408 1934.37 786.228 1990.78 647.74 2184.67C494.515 2399.18 916.808 2443.15 1027.41 2450.89C1041.9 2451.9 1053.88 2440.47 1054.8 2425.27L1083.55 1948.16Z" fill="url(#paint1_linear_115_121)"/>
<path d="M2211.68 2122.57C2214.05 2123.03 2216.03 2123.64 2218.18 2124.73C2260.41 2146.25 2728.49 2400.14 1619.48 2550.11C539.455 2696.16 1155.17 2035.51 1243.82 1945.07C1250.26 1938.49 1259.39 1935.98 1268.51 1937.77L2211.68 2122.57Z" fill="url(#paint2_linear_115_121)"/>
<path d="M2432.73 276.279C2432.73 276.279 2194.28 208.288 1875.56 336.815C1556.83 465.342 1428.75 640.832 1428.75 640.832L1841.43 1165.27C1841.43 1165.27 1954.22 1118.09 2070.08 1028.78C2372.36 795.761 2453.05 297.689 2432.73 276.279Z" fill="#CACACA"/>
<path d="M214.764 285.812C214.764 285.812 450.064 207.137 773.989 321.171C1097.91 435.206 1233.38 604.752 1233.38 604.752L843.564 1147.29C843.564 1147.29 728.869 1105.23 609.297 1021.23C297.321 802.07 195.372 308.117 214.764 285.812Z" fill="#CACACA"/>
<path d="M2281.66 397.547C2281.66 397.547 2122.83 360.849 1903.04 456.448C1683.24 552.047 1590.7 672.11 1590.7 672.11L1851.7 1003.8C1851.7 1003.8 1929.53 968.844 2010.88 906.015C2223.13 742.089 2294.67 410.969 2281.66 397.547Z" fill="url(#paint3_linear_115_121)"/>
<path d="M2181.09 2510.74C2120.52 2505.13 2074.25 2455.59 2069.04 2394.91C2061.38 2305.73 2143.5 2235.49 2232.31 2245.77C2645.51 2293.6 2952.77 2131.71 3265.13 1737.8C3350.42 1630.24 3526.59 1654.25 3568.11 1784.92C3585.91 1840.95 3572.15 1902.67 3530.89 1944.66C3102.41 2380.73 2702.63 2559.03 2181.09 2510.74Z" fill="#B9B9B9"/>
<path d="M380.136 401.871C380.136 401.871 537.238 358.048 760.916 443.646C984.593 529.245 1082.19 645.019 1082.19 645.019L835.649 988.153C835.649 988.153 756.394 956.742 672.432 897.641C453.365 743.441 367.716 415.866 380.136 401.871Z" fill="url(#paint4_linear_115_121)"/>
<g clip-path="url(#paint5_diamond_115_121_clip_path)" data-figma-skip-parse="true"><g transform="matrix(-0.0360469 0.94583 -0.976195 -0.0367515 1377.93 1229.74)"><rect x="0" y="0" width="852.09" height="849.996" fill="url(#paint5_diamond_115_121)" opacity="1" shape-rendering="crispEdges"/><rect x="0" y="0" width="852.09" height="849.996" transform="scale(1 -1)" fill="url(#paint5_diamond_115_121)" opacity="1" shape-rendering="crispEdges"/><rect x="0" y="0" width="852.09" height="849.996" transform="scale(-1 1)" fill="url(#paint5_diamond_115_121)" opacity="1" shape-rendering="crispEdges"/><rect x="0" y="0" width="852.09" height="849.996" transform="scale(-1)" fill="url(#paint5_diamond_115_121)" opacity="1" shape-rendering="crispEdges"/></g></g><rect x="577.693" y="451.098" width="1528.39" height="1480.84" rx="118" data-figma-gradient-fill="{&#34;type&#34;:&#34;GRADIENT_DIAMOND&#34;,&#34;stops&#34;:[{&#34;color&#34;:{&#34;r&#34;:0.50,&#34;g&#34;:0.50,&#34;b&#34;:0.50,&#34;a&#34;:1.0},&#34;position&#34;:0.0},{&#34;color&#34;:{&#34;r&#34;:0.77884614467620850,&#34;g&#34;:0.77884614467620850,&#34;b&#34;:0.77884614467620850,&#34;a&#34;:1.0},&#34;position&#34;:1.0}],&#34;stopsVar&#34;:[{&#34;color&#34;:{&#34;r&#34;:0.50,&#34;g&#34;:0.50,&#34;b&#34;:0.50,&#34;a&#34;:1.0},&#34;position&#34;:0.0},{&#34;color&#34;:{&#34;r&#34;:0.77884614467620850,&#34;g&#34;:0.77884614467620850,&#34;b&#34;:0.77884614467620850,&#34;a&#34;:1.0},&#34;position&#34;:1.0}],&#34;transform&#34;:{&#34;m00&#34;:-72.093704223632812,&#34;m01&#34;:-1952.3907470703125,&#34;m02&#34;:2390.175781250,&#34;m10&#34;:1891.6599121093750,&#34;m11&#34;:-73.502899169921875,&#34;m12&#34;:320.65682983398438},&#34;opacity&#34;:1.0,&#34;blendMode&#34;:&#34;NORMAL&#34;,&#34;visible&#34;:true}"/>
<g clip-path="url(#paint6_diamond_115_121_clip_path)" data-figma-skip-parse="true"><g transform="matrix(0 0.0839975 -0.134947 0 1341.89 1485.51)"><rect x="0" y="0" width="1011.91" height="1007.41" fill="url(#paint6_diamond_115_121)" opacity="1" shape-rendering="crispEdges"/><rect x="0" y="0" width="1011.91" height="1007.41" transform="scale(1 -1)" fill="url(#paint6_diamond_115_121)" opacity="1" shape-rendering="crispEdges"/><rect x="0" y="0" width="1011.91" height="1007.41" transform="scale(-1 1)" fill="url(#paint6_diamond_115_121)" opacity="1" shape-rendering="crispEdges"/><rect x="0" y="0" width="1011.91" height="1007.41" transform="scale(-1)" fill="url(#paint6_diamond_115_121)" opacity="1" shape-rendering="crispEdges"/></g></g><path d="M1476.83 1457.4C1476.83 1457.4 1369.57 1468.71 1341.89 1569.51C1321.13 1467.66 1206.94 1457.4 1206.94 1457.4C1206.94 1411.46 1242.7 1401.51 1341.89 1401.51C1446.85 1401.51 1476.83 1411.46 1476.83 1457.4Z" data-figma-gradient-fill="{&#34;type&#34;:&#34;GRADIENT_DIAMOND&#34;,&#34;stops&#34;:[{&#34;color&#34;:{&#34;r&#34;:0.81250,&#34;g&#34;:0.636718750,&#34;b&#34;:0.636718750,&#34;a&#34;:1.0},&#34;position&#34;:0.0},{&#34;color&#34;:{&#34;r&#34;:0.74519228935241699,&#34;g&#34;:0.55889421701431274,&#34;b&#34;:0.61788856983184814,&#34;a&#34;:1.0},&#34;position&#34;:1.0}],&#34;stopsVar&#34;:[{&#34;color&#34;:{&#34;r&#34;:0.81250,&#34;g&#34;:0.636718750,&#34;b&#34;:0.636718750,&#34;a&#34;:1.0},&#34;position&#34;:0.0},{&#34;color&#34;:{&#34;r&#34;:0.74519228935241699,&#34;g&#34;:0.55889421701431274,&#34;b&#34;:0.61788856983184814,&#34;a&#34;:1.0},&#34;position&#34;:1.0}],&#34;transform&#34;:{&#34;m00&#34;:1.6526222664653423e-14,&#34;m01&#34;:-269.89367675781250,&#34;m02&#34;:1476.8341064453125,&#34;m10&#34;:167.99497985839844,&#34;m11&#34;:1.0286726406392912e-14,&#34;m12&#34;:1401.5136718750},&#34;opacity&#34;:1.0,&#34;blendMode&#34;:&#34;NORMAL&#34;,&#34;visible&#34;:true}"/>
<path d="M972.977 1052.17C770.795 1049.87 774.886 1051.87 840.628 1209.96C872.501 1286.6 948.948 1345.67 1040.76 1337.25C1207 1322 1207 1322 1173.11 1179.46C1154.39 1100.74 1066.38 1053.24 972.977 1052.17Z" fill="url(#paint7_linear_115_121)"/>
<ellipse cx="116.315" cy="136.559" rx="116.315" ry="136.559" transform="matrix(-0.98481 -0.173635 -0.130073 0.991504 1155.59 1084.2)" fill="url(#paint8_linear_115_121)"/>
<ellipse cx="34.2102" cy="136.559" rx="34.2102" ry="136.559" transform="matrix(-0.98481 -0.173635 -0.130073 0.991504 1092.54 1073.43)" fill="url(#paint9_linear_115_121)"/>
<path d="M1711.02 1059.17C1913.2 1056.87 1909.11 1058.87 1843.37 1216.96C1811.5 1293.6 1735.05 1352.67 1643.24 1344.25C1477 1329 1477 1329 1510.89 1186.46C1529.61 1107.74 1617.62 1060.24 1711.02 1059.17Z" fill="url(#paint10_linear_115_121)"/>
<ellipse cx="116.315" cy="136.559" rx="116.315" ry="136.559" transform="matrix(0.98481 -0.173635 0.130073 0.991504 1528.41 1091.2)" fill="url(#paint11_linear_115_121)"/>
<ellipse cx="34.2102" cy="136.559" rx="34.2102" ry="136.559" transform="matrix(0.98481 -0.173635 0.130073 0.991504 1591.46 1080.43)" fill="url(#paint12_linear_115_121)"/>
<defs>
<clipPath id="paint5_diamond_115_121_clip_path"><rect x="577.693" y="451.098" width="1528.39" height="1480.84" rx="118"/></clipPath><clipPath id="paint6_diamond_115_121_clip_path"><path d="M1476.83 1457.4C1476.83 1457.4 1369.57 1468.71 1341.89 1569.51C1321.13 1467.66 1206.94 1457.4 1206.94 1457.4C1206.94 1411.46 1242.7 1401.51 1341.89 1401.51C1446.85 1401.51 1476.83 1411.46 1476.83 1457.4Z"/></clipPath><linearGradient id="paint0_linear_115_121" x1="2720.16" y1="1821.5" x2="1513.22" y2="1821.5" gradientUnits="userSpaceOnUse">
<stop stop-color="#C9C9C9"/>
<stop offset="1" stop-color="#686868"/>
</linearGradient>
<linearGradient id="paint1_linear_115_121" x1="782.392" y1="2434.48" x2="1113.8" y2="1932.6" gradientUnits="userSpaceOnUse">
<stop offset="0.442308" stop-color="#8F8F8F"/>
<stop offset="1" stop-color="#494949"/>
</linearGradient>
<linearGradient id="paint2_linear_115_121" x1="986.809" y1="2354.13" x2="1979.55" y2="1764.26" gradientUnits="userSpaceOnUse">
<stop offset="0.442308" stop-color="#8F8F8F"/>
<stop offset="1" stop-color="#494949"/>
</linearGradient>
<linearGradient id="paint3_linear_115_121" x1="2284.82" y1="401.54" x2="1724.65" y2="842.335" gradientUnits="userSpaceOnUse">
<stop stop-color="#CEABAC"/>
<stop offset="1" stop-color="#BC8184"/>
</linearGradient>
<linearGradient id="paint4_linear_115_121" x1="377.155" y1="406.002" x2="955.406" y2="821.479" gradientUnits="userSpaceOnUse">
<stop stop-color="#CEABAC"/>
<stop offset="1" stop-color="#BC8184"/>
</linearGradient>
<linearGradient id="paint5_diamond_115_121" x1="0" y1="0" x2="500" y2="500" gradientUnits="userSpaceOnUse">
<stop stop-color="#808080"/>
<stop offset="1" stop-color="#C7C7C7"/>
</linearGradient>
<linearGradient id="paint6_diamond_115_121" x1="0" y1="0" x2="500" y2="500" gradientUnits="userSpaceOnUse">
<stop stop-color="#CFA2A2"/>
<stop offset="1" stop-color="#BE8F9E"/>
</linearGradient>
<linearGradient id="paint7_linear_115_121" x1="1099.15" y1="972.425" x2="1023.08" y2="1335.6" gradientUnits="userSpaceOnUse">
<stop stop-color="#F9F9F9"/>
<stop offset="1" stop-color="white"/>
</linearGradient>
<linearGradient id="paint8_linear_115_121" x1="116.315" y1="0" x2="116.315" y2="273.118" gradientUnits="userSpaceOnUse">
<stop stop-color="#FFE6D0"/>
<stop offset="0.432692" stop-color="#FFBA74"/>
<stop offset="1" stop-color="#FFDDC5"/>
</linearGradient>
<linearGradient id="paint9_linear_115_121" x1="92.8562" y1="67.6166" x2="-68.9798" y2="114.405" gradientUnits="userSpaceOnUse">
<stop offset="0.168269"/>
<stop offset="0.355769"/>
</linearGradient>
<linearGradient id="paint10_linear_115_121" x1="1584.85" y1="979.425" x2="1660.92" y2="1342.6" gradientUnits="userSpaceOnUse">
<stop stop-color="#F9F9F9"/>
<stop offset="1" stop-color="white"/>
</linearGradient>
<linearGradient id="paint11_linear_115_121" x1="116.315" y1="0" x2="116.315" y2="273.118" gradientUnits="userSpaceOnUse">
<stop stop-color="#FFE6D0"/>
<stop offset="0.432692" stop-color="#FFBA74"/>
<stop offset="1" stop-color="#FFDDC5"/>
</linearGradient>
<linearGradient id="paint12_linear_115_121" x1="92.8562" y1="67.6166" x2="-68.9798" y2="114.405" gradientUnits="userSpaceOnUse">
<stop offset="0.168269"/>
<stop offset="0.355769"/>
</linearGradient>
</defs>
</svg>
