<svg width="2999" height="3168" viewBox="0 0 2999 3168" fill="none" xmlns="http://www.w3.org/2000/svg">
<path d="M2615.68 387.324C2589.41 346.458 2624.82 275.748 2674.46 278.733C2685.45 279.393 2695.78 283.477 2703.64 290.809C2960.3 530.36 3000.77 1082.2 2596.91 1229.32C2591.65 1231.24 2585.95 1232.04 2580.46 1231.71C2537.53 1229.12 2525.92 1161.74 2560.14 1134.07C2816.6 926.668 2744.72 588.04 2615.68 387.324Z" fill="url(#paint0_linear_115_111)"/>
<path d="M2756.83 1396.16C2756.83 1687.5 2576.83 2099.19 2373.15 2345.69C2111.54 2345.69 1537.89 2056.77 1537.89 1765.43C1834.73 1067.34 2021.54 868.646 2283.15 868.646C2544.75 868.646 2756.83 1104.82 2756.83 1396.16Z" fill="#665A4A"/>
<path d="M1790.76 2932.46L1522.1 2766.92L2148.85 1669.26L2321.04 1755.42L1790.76 2932.46Z" fill="url(#paint1_linear_115_111)"/>
<path d="M342.272 968.313C342.272 968.313 318.695 1122.99 408.688 1300.82C498.681 1478.65 603.425 1533.77 603.425 1533.77L869.493 1212.42C869.493 1212.42 836.703 1149.72 780.406 1090.7C633.519 936.699 352.928 953.067 342.272 968.313Z" fill="#665A4A"/>
<path d="M645.714 1805.43C627.261 1764.29 659.909 1715.04 703.2 1717.33C1247.22 1746.07 1553.27 1585.11 1980.29 992.078C2006.05 956.307 2056.95 959.301 2074.41 998.219L2340.18 1590.81C2348.33 1608.98 2346.67 1631.18 2335.9 1648.81C1953.05 2275.69 1642.75 2451.58 951.403 2418.88C932.18 2417.97 915.113 2406.1 906.924 2387.84L645.714 1805.43Z" fill="url(#paint2_linear_115_111)"/>
<rect width="307.337" height="1216.96" transform="matrix(-0.691263 -0.722604 0.644474 -0.764626 412.911 2900.44)" fill="url(#paint3_linear_115_111)"/>
<path d="M1714.73 1210.59C1714.73 1210.59 1683.58 1363.6 1539.51 1489.79C1395.44 1615.98 1279.73 1622.48 1279.73 1622.48L1143.76 1212.44C1143.76 1212.44 1195.54 1168.39 1267.79 1137.73C1456.3 1057.72 1710.1 1191.97 1714.73 1210.59Z" fill="#665A4A"/>
<path d="M427.552 1072.74C427.552 1072.74 515.228 1031.97 623.387 1069.8C731.545 1107.64 769.903 1174.97 769.903 1174.97L601.399 1416.73C601.399 1416.73 563.198 1402.62 525.637 1370.94C427.636 1288.29 419.434 1082.79 427.552 1072.74Z" fill="url(#paint4_linear_115_111)"/>
<path d="M1585.73 1236.49C1585.73 1236.49 1508.5 1174.85 1395.48 1184.7C1282.45 1194.56 1231.51 1250.58 1231.51 1250.58L1347.02 1528.28C1347.02 1528.28 1387.09 1524.07 1430.07 1502.59C1542.23 1446.53 1591.62 1248.31 1585.73 1236.49Z" fill="url(#paint5_linear_115_111)"/>
<rect width="300.351" height="1243.65" rx="39" transform="matrix(-0.834392 -0.551171 0.470097 -0.882615 2038.66 2978.72)" fill="#665949"/>
<rect x="1374" y="2725.91" width="363.156" height="270.792" rx="34" transform="rotate(-20.6228 1374 2725.91)" fill="url(#paint6_linear_115_111)"/>
<rect x="1637" y="2904.26" width="363.156" height="270.792" rx="34" transform="rotate(-33.8443 1637 2904.26)" fill="url(#paint7_linear_115_111)"/>
<rect width="294.845" height="1374.66" rx="39" transform="matrix(-0.776183 -0.630508 0.547912 -0.836536 715.167 3052.74)" fill="#665A4A"/>
<rect width="420.266" height="305.258" rx="34" transform="matrix(0.97603 -0.217636 0.176953 0.984219 49 2615.46)" fill="url(#paint8_linear_115_111)"/>
<path d="M357.929 2906.39C349.631 2889.31 356.567 2868.04 373.331 2859.16L527.901 2777.27C541.254 2770.2 557.229 2773.03 567.102 2784.23L738.824 2978.99C753.467 2995.59 748.524 3022.64 728.871 3033.45L514.666 3151.28C498.213 3160.33 478.223 3153.98 470.017 3137.09L357.929 2906.39Z" fill="url(#paint9_linear_115_111)"/>
<path d="M1568.83 1726.31C1544.59 1929.04 1228.45 2199.14 884.426 2148.12C540.397 2097.1 342.567 1848.31 322.993 1541.55C550.099 1307.02 663.369 1068.73 1007.4 1119.75C1351.43 1170.77 1457.01 1503.41 1568.83 1726.31Z" fill="url(#paint10_radial_115_111)"/>
<path d="M2767.92 362.878C2789.22 404.99 2749.99 493.295 2699.9 493.295C2687.78 493.295 2676.38 488.802 2668.6 480.457C2475.22 273.142 2577.35 3.03812 2830.65 26.4567C2857.02 29.7247 2856.66 87.0843 2833.24 102.053C2730.89 167.458 2722.67 273.406 2767.92 362.878Z" fill="#665A4A"/>
<g clip-path="url(#paint11_diamond_115_111_clip_path)" data-figma-skip-parse="true"><g transform="matrix(-0.0106405 0.0603921 -0.0867661 -0.0189597 776.005 1717.39)"><rect x="0" y="0" width="1016.31" height="1011.26" fill="url(#paint11_diamond_115_111)" opacity="1" shape-rendering="crispEdges"/><rect x="0" y="0" width="1016.31" height="1011.26" transform="scale(1 -1)" fill="url(#paint11_diamond_115_111)" opacity="1" shape-rendering="crispEdges"/><rect x="0" y="0" width="1016.31" height="1011.26" transform="scale(-1 1)" fill="url(#paint11_diamond_115_111)" opacity="1" shape-rendering="crispEdges"/><rect x="0" y="0" width="1016.31" height="1011.26" transform="scale(-1)" fill="url(#paint11_diamond_115_111)" opacity="1" shape-rendering="crispEdges"/></g></g><path d="M866.332 1716.14C866.332 1716.14 795.931 1709.2 765.364 1777.78C764.917 1701.64 692.8 1678.22 692.8 1678.22C698.619 1645.19 722.869 1643.06 786.645 1657C854.13 1671.74 872.152 1683.11 866.332 1716.14Z" data-figma-gradient-fill="{&#34;type&#34;:&#34;GRADIENT_DIAMOND&#34;,&#34;stops&#34;:[{&#34;color&#34;:{&#34;r&#34;:0.99519228935241699,&#34;g&#34;:0.77988630533218384,&#34;b&#34;:0.87318551540374756,&#34;a&#34;:1.0},&#34;position&#34;:0.0},{&#34;color&#34;:{&#34;r&#34;:0.81250,&#34;g&#34;:0.63281250,&#34;b&#34;:0.71067708730697632,&#34;a&#34;:1.0},&#34;position&#34;:1.0}],&#34;stopsVar&#34;:[{&#34;color&#34;:{&#34;r&#34;:0.99519228935241699,&#34;g&#34;:0.77988630533218384,&#34;b&#34;:0.87318551540374756,&#34;a&#34;:1.0},&#34;position&#34;:0.0},{&#34;color&#34;:{&#34;r&#34;:0.81250,&#34;g&#34;:0.63281250,&#34;b&#34;:0.71067708730697632,&#34;a&#34;:1.0},&#34;position&#34;:1.0}],&#34;transform&#34;:{&#34;m00&#34;:-21.280942916870117,&#34;m01&#34;:-173.53222656250,&#34;m02&#34;:873.41113281250,&#34;m10&#34;:120.78428649902344,&#34;m11&#34;:-37.919368743896484,&#34;m12&#34;:1675.9578857421875},&#34;opacity&#34;:1.0,&#34;blendMode&#34;:&#34;NORMAL&#34;,&#34;visible&#34;:true}"/>
<path d="M1148.77 1610.43C1154.96 1682.15 1140.04 1509.12 1016.69 1524.37C893.337 1539.63 907.907 1708.57 901.722 1636.85C895.537 1565.13 945.827 1501.07 1014.05 1493.78C1082.27 1486.48 1142.59 1538.71 1148.77 1610.43Z" fill="#716A5F"/>
<path d="M707.207 1594.57C674.562 1656.77 753.317 1506.7 673.209 1456.94C593.101 1407.17 516.203 1553.71 548.847 1491.5C581.492 1429.3 643.405 1401.94 687.135 1430.4C730.864 1458.86 739.851 1532.36 707.207 1594.57Z" fill="#625B51"/>
<path d="M537.908 1622.89C539.318 1614.67 534.137 1606.48 526.101 1604.14C322.226 1544.84 206.448 1515.43 38.5276 1499.84C30.5196 1499.1 23.4527 1504.56 22.0871 1512.52C20.434 1522.16 27.6855 1531.35 37.3892 1532.02C207.307 1543.71 335.058 1573.77 517.792 1634.82C526.884 1637.86 536.295 1632.3 537.908 1622.89Z" fill="url(#paint12_linear_115_111)"/>
<path d="M525.905 1668.36C525.457 1660.01 518.59 1653.49 510.233 1653.43C299.615 1651.75 180.91 1654.92 14.7646 1685.75C6.79101 1687.23 1.11466 1694.46 1.54786 1702.55C2.07292 1712.35 11.1993 1719.27 20.8216 1717.24C188.003 1682.1 318.429 1676.28 508.908 1685.43C518.459 1685.89 526.417 1677.92 525.905 1668.36Z" fill="url(#paint13_linear_115_111)"/>
<path d="M1184.58 1749.09C1185.89 1740.76 1193.41 1735.34 1201.69 1736.69C1429.74 1773.73 1557.37 1798.63 1734.02 1860.24C1741.81 1862.96 1746.76 1871.18 1745.49 1879.27C1743.97 1888.92 1734.4 1894.38 1725.17 1890.93C1547.33 1824.54 1407 1794.75 1199.44 1768.92C1190.04 1767.75 1183.1 1758.52 1184.58 1749.09Z" fill="url(#paint14_linear_115_111)"/>
<path d="M1181.61 1796.79C1184.88 1789.16 1193.38 1785.81 1200.95 1789.11C1417.19 1883.24 1537.05 1939.8 1696.72 2044.2C1703.53 2048.66 1706.3 2057.7 1703.12 2065.12C1699.36 2073.92 1688.97 2076.83 1681 2071.38C1521.13 1961.97 1389.81 1897.42 1190.94 1819.23C1182.29 1815.83 1177.93 1805.39 1181.61 1796.79Z" fill="url(#paint15_linear_115_111)"/>
<defs>
<clipPath id="paint11_diamond_115_111_clip_path"><path d="M866.332 1716.14C866.332 1716.14 795.931 1709.2 765.364 1777.78C764.917 1701.64 692.8 1678.22 692.8 1678.22C698.619 1645.19 722.869 1643.06 786.645 1657C854.13 1671.74 872.152 1683.11 866.332 1716.14Z"/></clipPath><linearGradient id="paint0_linear_115_111" x1="2734.09" y1="282.318" x2="2676.66" y2="1237.49" gradientUnits="userSpaceOnUse">
<stop offset="0.620192" stop-color="#665949"/>
<stop offset="1" stop-color="#524A40"/>
</linearGradient>
<linearGradient id="paint1_linear_115_111" x1="2232.04" y1="1752.03" x2="1549.62" y2="2785.1" gradientUnits="userSpaceOnUse">
<stop stop-color="#4C473E"/>
<stop offset="0.673077" stop-color="#665949"/>
</linearGradient>
<linearGradient id="paint2_linear_115_111" x1="1889.38" y1="2077.66" x2="1150.73" y2="2250.7" gradientUnits="userSpaceOnUse">
<stop offset="0.408654" stop-color="#665A49"/>
<stop offset="1" stop-color="#665A4A"/>
</linearGradient>
<linearGradient id="paint3_linear_115_111" x1="153.668" y1="1216.96" x2="153.668" y2="0" gradientUnits="userSpaceOnUse">
<stop stop-color="#4C4336"/>
<stop offset="0.591346" stop-color="#665A4A"/>
</linearGradient>
<linearGradient id="paint4_linear_115_111" x1="425.516" y1="1075.65" x2="703.892" y2="1269.68" gradientUnits="userSpaceOnUse">
<stop stop-color="#DAAABF"/>
<stop offset="1" stop-color="#FAD6E6"/>
</linearGradient>
<linearGradient id="paint5_linear_115_111" x1="1587.13" y1="1239.84" x2="1280.15" y2="1367.52" gradientUnits="userSpaceOnUse">
<stop stop-color="#DAAABF"/>
<stop offset="1" stop-color="#FAD6E6"/>
</linearGradient>
<linearGradient id="paint6_linear_115_111" x1="1437.32" y1="2996.7" x2="1699.98" y2="2754.23" gradientUnits="userSpaceOnUse">
<stop stop-color="#FEF7EE"/>
<stop offset="0.576923" stop-color="#665949"/>
</linearGradient>
<linearGradient id="paint7_linear_115_111" x1="1700.32" y1="3175.05" x2="1962.98" y2="2932.57" gradientUnits="userSpaceOnUse">
<stop stop-color="#FEF7EE"/>
<stop offset="0.586538" stop-color="#665949"/>
</linearGradient>
<linearGradient id="paint8_linear_115_111" x1="73.2745" y1="305.258" x2="369.888" y2="24.1606" gradientUnits="userSpaceOnUse">
<stop stop-color="#FEF7EE"/>
<stop offset="0.586538" stop-color="#665A4A"/>
</linearGradient>
<linearGradient id="paint9_linear_115_111" x1="688.005" y1="2849.53" x2="421.013" y2="3035.29" gradientUnits="userSpaceOnUse">
<stop offset="0.331731" stop-color="#665A4A"/>
<stop offset="1" stop-color="#EFE3D1"/>
</linearGradient>
<radialGradient id="paint10_radial_115_111" cx="0" cy="0" r="1" gradientTransform="matrix(-78.2914 405.428 -491.162 -117.632 833.681 1737.29)" gradientUnits="userSpaceOnUse">
<stop stop-color="#D2C8B9"/>
<stop offset="1" stop-color="#665A4A"/>
</radialGradient>
<linearGradient id="paint11_diamond_115_111" x1="0" y1="0" x2="500" y2="500" gradientUnits="userSpaceOnUse">
<stop stop-color="#FEC7DF"/>
<stop offset="1" stop-color="#CFA1B5"/>
</linearGradient>
<linearGradient id="paint12_linear_115_111" x1="538.886" y1="1617.19" x2="19.4151" y2="1528.1" gradientUnits="userSpaceOnUse">
<stop stop-color="#665A4A"/>
<stop offset="0.793269" stop-color="#7D6F5A"/>
</linearGradient>
<linearGradient id="paint13_linear_115_111" x1="525.595" y1="1662.58" x2="0.912247" y2="1690.69" gradientUnits="userSpaceOnUse">
<stop stop-color="#665A4A"/>
<stop offset="0.793269" stop-color="#7D6F5A"/>
</linearGradient>
<linearGradient id="paint14_linear_115_111" x1="1185.5" y1="1743.23" x2="1752.86" y2="1832.39" gradientUnits="userSpaceOnUse">
<stop stop-color="#594E40"/>
<stop offset="0.793269" stop-color="#7D6F5A"/>
</linearGradient>
<linearGradient id="paint15_linear_115_111" x1="1183.92" y1="1791.39" x2="1721.82" y2="2021.38" gradientUnits="userSpaceOnUse">
<stop stop-color="#605545"/>
<stop offset="0.793269" stop-color="#7D6F5A"/>
</linearGradient>
</defs>
</svg>
