<svg width="827" height="1088" viewBox="0 0 827 1088" fill="none" xmlns="http://www.w3.org/2000/svg">
<rect x="250.883" y="556.339" width="345.632" height="355.023" rx="94" fill="url(#paint0_linear_110_961)"/>
<path d="M532.522 800.093C521.619 795.353 516.105 783.359 518.466 771.715C522.304 752.786 544.369 744.211 562.322 751.365C615.544 772.576 666.082 755.265 726.894 699.903C746.572 681.988 780.214 695.606 779.323 722.22C779.051 730.369 775.296 738.034 768.905 743.088C679.279 813.964 608.669 833.196 532.522 800.093Z" fill="#665A49"/>
<path d="M377.881 1022.87C373.941 1045.59 347.63 1052.61 335.362 1033.17C308.415 990.466 271.94 917.16 253.935 813.226C228.225 664.811 361.585 751.769 404.664 783.189C412.857 789.165 416.652 799.306 414.913 809.333L377.881 1022.87Z" fill="url(#paint1_linear_110_961)"/>
<path d="M471.369 1022.87C475.309 1045.59 501.62 1052.61 513.888 1033.17C540.835 990.466 577.31 917.16 595.315 813.225C621.025 664.811 487.664 751.769 444.586 783.189C436.393 789.165 432.598 799.306 434.337 809.333L471.369 1022.87Z" fill="url(#paint2_linear_110_961)"/>
<path d="M677.69 437.884C721.465 638.115 470.485 671.486 424.373 673.274C378.262 675.062 116.773 625.004 171.056 437.884C171.056 312.49 284.47 246.884 424.373 246.884C564.276 246.884 677.69 312.49 677.69 437.884Z" fill="url(#paint3_radial_110_961)"/>
<path d="M130.885 72.9588C130.885 72.9588 219.462 81.9371 303.329 165.884C387.196 249.83 401.403 324.171 401.403 324.171L184.075 442.011L130.885 324.171L130.885 72.9588Z" fill="url(#paint4_linear_110_961)"/>
<path d="M716.712 62.0769C716.712 62.0769 628.135 71.0552 544.268 155.002C460.402 238.948 446.195 313.289 446.195 313.289L663.522 431.129L716.712 313.289L716.712 62.0769Z" fill="url(#paint5_linear_110_961)"/>
<path d="M181.926 151.71C181.926 151.71 226.281 160.864 271.674 211.633C317.067 262.403 327.463 304.552 327.463 304.552L224.935 360.146C224.935 360.146 208.981 341.881 195.178 315.947C159.164 248.282 177.156 153.672 181.926 151.71Z" fill="url(#paint6_linear_110_961)"/>
<path d="M662.053 148.99C662.053 148.99 617.699 158.144 572.306 208.913C526.913 259.682 516.516 301.832 516.516 301.832L619.044 357.425C619.044 357.425 634.998 339.16 648.802 313.226C684.815 245.561 666.823 150.951 662.053 148.99Z" fill="url(#paint7_linear_110_961)"/>
<path d="M0.598397 483.97C0.841075 477.541 5.81985 472.284 12.2256 471.693C105.498 463.09 159.667 461.601 233.361 479.698C239.214 481.136 243.214 486.532 242.987 492.553C242.668 501.007 234.405 506.83 226.257 504.545C154.876 484.534 96.9966 484.377 15.6583 497.234C7.59243 498.509 0.290317 492.133 0.598397 483.97Z" fill="url(#paint8_linear_110_961)"/>
<path d="M26.4828 560.436C25.4393 554.089 29.2636 547.912 35.4133 546.009C125.037 518.277 177.782 505.606 253.551 508.075C259.565 508.271 264.554 512.728 265.531 518.672C266.903 527.015 259.982 534.425 251.557 533.875C177.662 529.052 120.952 540.879 43.8547 570.31C36.2187 573.225 27.8071 568.492 26.4828 560.436Z" fill="url(#paint9_linear_110_961)"/>
<path d="M801.125 564.105C802.406 557.803 798.818 551.481 792.746 549.341C704.222 518.142 651.989 503.428 576.179 502.949C570.165 502.911 565.013 507.172 563.814 513.074C562.131 521.357 568.765 529.031 577.199 528.809C651.229 526.861 707.458 540.886 783.405 573.298C790.922 576.507 799.501 572.103 801.125 564.105Z" fill="url(#paint10_linear_110_961)"/>
<path d="M826.4 484.517C826.157 478.088 821.179 472.831 814.773 472.241C721.5 463.637 667.331 462.148 593.638 480.246C587.784 481.683 583.784 487.079 584.011 493.1C584.331 501.554 592.593 507.377 600.741 505.092C672.123 485.081 730.002 484.924 811.34 497.781C819.406 499.056 826.708 492.68 826.4 484.517Z" fill="url(#paint11_linear_110_961)"/>
<g clip-path="url(#paint12_diamond_110_961_clip_path)" data-figma-skip-parse="true"><g transform="matrix(0 0.0312856 -0.0373657 0 428.37 527.774)"><rect x="0" y="0" width="1031.96" height="1026.76" fill="url(#paint12_diamond_110_961)" opacity="1" shape-rendering="crispEdges"/><rect x="0" y="0" width="1031.96" height="1026.76" transform="scale(1 -1)" fill="url(#paint12_diamond_110_961)" opacity="1" shape-rendering="crispEdges"/><rect x="0" y="0" width="1031.96" height="1026.76" transform="scale(-1 1)" fill="url(#paint12_diamond_110_961)" opacity="1" shape-rendering="crispEdges"/><rect x="0" y="0" width="1031.96" height="1026.76" transform="scale(-1)" fill="url(#paint12_diamond_110_961)" opacity="1" shape-rendering="crispEdges"/></g></g><path d="M465.736 517.302C465.736 517.302 436.035 521.517 428.37 559.06C422.622 521.126 391.005 517.302 391.005 517.302C391.005 500.191 400.905 496.488 428.37 496.488C457.432 496.488 465.736 500.191 465.736 517.302Z" data-figma-gradient-fill="{&#34;type&#34;:&#34;GRADIENT_DIAMOND&#34;,&#34;stops&#34;:[{&#34;color&#34;:{&#34;r&#34;:0.99519228935241699,&#34;g&#34;:0.77988630533218384,&#34;b&#34;:0.87318551540374756,&#34;a&#34;:1.0},&#34;position&#34;:0.0},{&#34;color&#34;:{&#34;r&#34;:0.81250,&#34;g&#34;:0.63281250,&#34;b&#34;:0.71067708730697632,&#34;a&#34;:1.0},&#34;position&#34;:1.0}],&#34;stopsVar&#34;:[{&#34;color&#34;:{&#34;r&#34;:0.99519228935241699,&#34;g&#34;:0.77988630533218384,&#34;b&#34;:0.87318551540374756,&#34;a&#34;:1.0},&#34;position&#34;:0.0},{&#34;color&#34;:{&#34;r&#34;:0.81250,&#34;g&#34;:0.63281250,&#34;b&#34;:0.71067708730697632,&#34;a&#34;:1.0},&#34;position&#34;:1.0}],&#34;transform&#34;:{&#34;m00&#34;:4.5759726777640057e-15,&#34;m01&#34;:-74.731300354003906,&#34;m02&#34;:465.73580932617188,&#34;m10&#34;:62.571155548095703,&#34;m11&#34;:3.8313786246012196e-15,&#34;m12&#34;:496.48843383789062},&#34;opacity&#34;:1.0,&#34;blendMode&#34;:&#34;NORMAL&#34;,&#34;visible&#34;:true}"/>
<path d="M538.769 413.252C598.149 412.657 596.948 413.173 577.64 453.997C568.279 473.788 545.826 489.042 518.861 486.867C470.036 482.93 470.036 482.93 479.99 446.122C485.488 425.794 511.336 413.526 538.769 413.252Z" fill="url(#paint13_linear_110_961)"/>
<ellipse cx="34.0444" cy="35.3513" rx="34.0444" ry="35.3513" transform="matrix(0.988197 -0.153191 0.147573 0.989051 485.183 421.603)" fill="url(#paint14_linear_110_961)"/>
<ellipse cx="10.0131" cy="35.3513" rx="10.0131" ry="35.3513" transform="matrix(0.988197 -0.153191 0.147573 0.989051 503.653 418.74)" fill="url(#paint15_linear_110_961)"/>
<path d="M321.678 417.036C262.298 416.441 263.499 416.957 282.808 457.781C292.168 477.572 314.621 492.826 341.586 490.651C390.411 486.714 390.411 486.714 380.457 449.906C374.959 429.578 349.111 417.31 321.678 417.036Z" fill="url(#paint16_linear_110_961)"/>
<ellipse cx="34.0444" cy="35.3513" rx="34.0444" ry="35.3513" transform="matrix(-0.988197 -0.153191 -0.147573 0.989051 375.264 425.387)" fill="url(#paint17_linear_110_961)"/>
<ellipse cx="10.0131" cy="35.3513" rx="10.0131" ry="35.3513" transform="matrix(-0.988197 -0.153191 -0.147573 0.989051 356.794 422.523)" fill="url(#paint18_linear_110_961)"/>
<defs>
<clipPath id="paint12_diamond_110_961_clip_path"><path d="M465.736 517.302C465.736 517.302 436.035 521.517 428.37 559.06C422.622 521.126 391.005 517.302 391.005 517.302C391.005 500.191 400.905 496.488 428.37 496.488C457.432 496.488 465.736 500.191 465.736 517.302Z"/></clipPath><linearGradient id="paint0_linear_110_961" x1="423.7" y1="556.339" x2="423.7" y2="911.362" gradientUnits="userSpaceOnUse">
<stop stop-color="#574D3F"/>
<stop offset="1" stop-color="#5C5244"/>
</linearGradient>
<linearGradient id="paint1_linear_110_961" x1="326.299" y1="724.219" x2="369.757" y2="1077.71" gradientUnits="userSpaceOnUse">
<stop offset="0.264423" stop-color="#584F42"/>
<stop offset="1" stop-color="#BEAA8F"/>
</linearGradient>
<linearGradient id="paint2_linear_110_961" x1="522.951" y1="724.219" x2="479.493" y2="1077.71" gradientUnits="userSpaceOnUse">
<stop offset="0.264423" stop-color="#584F42"/>
<stop offset="1" stop-color="#BEAA8F"/>
</linearGradient>
<radialGradient id="paint3_radial_110_961" cx="0" cy="0" r="1" gradientUnits="userSpaceOnUse" gradientTransform="translate(423.033 508.731) rotate(90) scale(194.515 236.79)">
<stop stop-color="#CCB493"/>
<stop offset="0.538462" stop-color="#7A6C58"/>
<stop offset="0.75" stop-color="#665A49"/>
</radialGradient>
<linearGradient id="paint4_linear_110_961" x1="133.796" y1="71.3805" x2="300.524" y2="378.87" gradientUnits="userSpaceOnUse">
<stop stop-color="#CCB493"/>
<stop offset="1" stop-color="#665A49"/>
</linearGradient>
<linearGradient id="paint5_linear_110_961" x1="713.801" y1="60.4985" x2="547.073" y2="367.988" gradientUnits="userSpaceOnUse">
<stop stop-color="#CCB493"/>
<stop offset="1" stop-color="#665A49"/>
</linearGradient>
<linearGradient id="paint6_linear_110_961" x1="180.689" y1="152.378" x2="277.802" y2="331.48" gradientUnits="userSpaceOnUse">
<stop stop-color="#DAAABF"/>
<stop offset="1" stop-color="#FAD6E6"/>
</linearGradient>
<linearGradient id="paint7_linear_110_961" x1="663.291" y1="149.657" x2="566.177" y2="328.759" gradientUnits="userSpaceOnUse">
<stop stop-color="#DAAABF"/>
<stop offset="1" stop-color="#FAD6E6"/>
</linearGradient>
<linearGradient id="paint8_linear_110_961" x1="0.740836" y1="480.196" x2="243.108" y2="489.344" gradientUnits="userSpaceOnUse">
<stop stop-color="#CCB493"/>
<stop offset="0.793269" stop-color="#665A49"/>
</linearGradient>
<linearGradient id="paint9_linear_110_961" x1="25.8699" y1="556.709" x2="265.313" y2="517.346" gradientUnits="userSpaceOnUse">
<stop stop-color="#CCB493"/>
<stop offset="0.793269" stop-color="#665A49"/>
</linearGradient>
<linearGradient id="paint10_linear_110_961" x1="801.878" y1="560.403" x2="564.016" y2="512.08" gradientUnits="userSpaceOnUse">
<stop stop-color="#CCB493"/>
<stop offset="0.793269" stop-color="#665A49"/>
</linearGradient>
<linearGradient id="paint11_linear_110_961" x1="826.258" y1="480.743" x2="583.89" y2="489.892" gradientUnits="userSpaceOnUse">
<stop stop-color="#CCB493"/>
<stop offset="0.793269" stop-color="#665A49"/>
</linearGradient>
<linearGradient id="paint12_diamond_110_961" x1="0" y1="0" x2="500" y2="500" gradientUnits="userSpaceOnUse">
<stop stop-color="#FEC7DF"/>
<stop offset="1" stop-color="#CFA1B5"/>
</linearGradient>
<linearGradient id="paint13_linear_110_961" x1="501.712" y1="392.658" x2="519.148" y2="487.344" gradientUnits="userSpaceOnUse">
<stop stop-color="#D6D6D6"/>
<stop offset="1" stop-color="white"/>
</linearGradient>
<linearGradient id="paint14_linear_110_961" x1="34.0444" y1="0" x2="34.0444" y2="70.7026" gradientUnits="userSpaceOnUse">
<stop stop-color="#71835C"/>
<stop offset="0.629808" stop-color="#CAE9A4"/>
<stop offset="1" stop-color="#98B07B"/>
</linearGradient>
<linearGradient id="paint15_linear_110_961" x1="27.1783" y1="17.504" x2="-19.1942" y2="32.6624" gradientUnits="userSpaceOnUse">
<stop offset="0.168269"/>
<stop offset="0.355769"/>
</linearGradient>
<linearGradient id="paint16_linear_110_961" x1="358.735" y1="396.442" x2="341.299" y2="491.128" gradientUnits="userSpaceOnUse">
<stop stop-color="#D6D6D6"/>
<stop offset="1" stop-color="white"/>
</linearGradient>
<linearGradient id="paint17_linear_110_961" x1="34.0444" y1="0" x2="34.0444" y2="70.7026" gradientUnits="userSpaceOnUse">
<stop stop-color="#71835C"/>
<stop offset="0.629808" stop-color="#CAE9A4"/>
<stop offset="1" stop-color="#98B07B"/>
</linearGradient>
<linearGradient id="paint18_linear_110_961" x1="27.1783" y1="17.504" x2="-19.1942" y2="32.6624" gradientUnits="userSpaceOnUse">
<stop offset="0.168269"/>
<stop offset="0.355769"/>
</linearGradient>
</defs>
</svg>
