<svg width="1101" height="1920" viewBox="0 0 1101 1920" fill="none" xmlns="http://www.w3.org/2000/svg">
<rect x="256" y="837" width="557" height="709" rx="94" fill="url(#paint0_linear_110_957)"/>
<path d="M698.181 1350.88C680.597 1341.34 672.026 1321.2 675.23 1301.63C681.489 1263.38 727.828 1247.89 764.368 1261.58C840.149 1289.98 913.628 1257.7 999.46 1165.4C1032.63 1129.73 1097.88 1153.08 1096.56 1202.17C1096.22 1214.58 1091.25 1226.39 1082.48 1235.04C936.512 1378.89 821.927 1417.98 698.181 1350.88Z" fill="#747474"/>
<path d="M459.018 1825.12C455.51 1850.18 426.159 1858.55 414.154 1837.22C370.621 1759.91 298.354 1602.48 265.126 1364.87C220.991 1049.25 467.744 1266.84 519.641 1315.61C525.752 1321.35 528.369 1329.73 527.158 1338.38L459.018 1825.12Z" fill="url(#paint1_linear_110_957)"/>
<path d="M608.454 1831.73C611.962 1856.78 641.312 1865.15 653.318 1843.83C696.851 1766.51 769.117 1609.09 802.345 1371.47C846.481 1055.86 599.727 1273.45 547.83 1322.21C541.72 1327.96 539.102 1336.33 540.313 1344.98L608.454 1831.73Z" fill="url(#paint2_linear_110_957)"/>
<path d="M915.094 74.9639C915.094 74.9639 805.52 91.7762 697.667 206.697C589.814 321.618 568.273 419.978 568.273 419.978L829.507 562.27C829.507 562.27 867.37 520.885 899.079 461.167C981.812 305.354 927.184 80.1089 915.094 74.9639Z" fill="#CACACA"/>
<path d="M143.918 74.9639C143.918 74.9639 253.492 91.7762 361.345 206.697C469.197 321.618 490.739 419.978 490.739 419.978L229.505 562.27C229.505 562.27 191.642 520.885 159.933 461.167C77.2 305.354 131.828 80.1089 143.918 74.9639Z" fill="black"/>
<path d="M143.918 74.9639C143.918 74.9639 253.492 91.7762 361.345 206.697C469.197 321.618 490.739 419.978 490.739 419.978L229.505 562.27C229.505 562.27 191.642 520.885 159.933 461.167C77.2 305.354 131.828 80.1089 143.918 74.9639Z" fill="#CACACA"/>
<path d="M871.195 157.51C871.195 157.51 799.719 172.329 726.57 254.514C653.421 336.699 636.667 404.931 636.667 404.931L801.887 494.925C801.887 494.925 827.597 465.358 849.84 423.376C907.875 313.84 878.882 160.685 871.195 157.51Z" fill="url(#paint3_linear_110_957)"/>
<path d="M187.794 157.51C187.794 157.51 259.27 172.329 332.419 254.514C405.568 336.699 422.321 404.931 422.321 404.931L257.101 494.925C257.101 494.925 231.392 465.358 209.149 423.376C151.114 313.84 180.107 160.685 187.794 157.51Z" fill="url(#paint4_linear_110_957)"/>
<g clip-path="url(#paint5_diamond_110_957_clip_path)" data-figma-skip-parse="true"><g transform="matrix(-0.0161557 0.436239 -0.437516 -0.0169506 547.656 643.126)"><rect x="0" y="0" width="853.372" height="851.301" fill="url(#paint5_diamond_110_957)" opacity="1" shape-rendering="crispEdges"/><rect x="0" y="0" width="853.372" height="851.301" transform="scale(1 -1)" fill="url(#paint5_diamond_110_957)" opacity="1" shape-rendering="crispEdges"/><rect x="0" y="0" width="853.372" height="851.301" transform="scale(-1 1)" fill="url(#paint5_diamond_110_957)" opacity="1" shape-rendering="crispEdges"/><rect x="0" y="0" width="853.372" height="851.301" transform="scale(-1)" fill="url(#paint5_diamond_110_957)" opacity="1" shape-rendering="crispEdges"/></g></g><rect x="189" y="284" width="685" height="683" rx="118" data-figma-gradient-fill="{&#34;type&#34;:&#34;GRADIENT_DIAMOND&#34;,&#34;stops&#34;:[{&#34;color&#34;:{&#34;r&#34;:0.50,&#34;g&#34;:0.50,&#34;b&#34;:0.50,&#34;a&#34;:1.0},&#34;position&#34;:0.0},{&#34;color&#34;:{&#34;r&#34;:0.77884614467620850,&#34;g&#34;:0.77884614467620850,&#34;b&#34;:0.77884614467620850,&#34;a&#34;:1.0},&#34;position&#34;:1.0}],&#34;stopsVar&#34;:[{&#34;color&#34;:{&#34;r&#34;:0.50,&#34;g&#34;:0.50,&#34;b&#34;:0.50,&#34;a&#34;:1.0},&#34;position&#34;:0.0},{&#34;color&#34;:{&#34;r&#34;:0.77884614467620850,&#34;g&#34;:0.77884614467620850,&#34;b&#34;:0.77884614467620850,&#34;a&#34;:1.0},&#34;position&#34;:1.0}],&#34;transform&#34;:{&#34;m00&#34;:-32.311321258544922,&#34;m01&#34;:-875.03234863281250,&#34;m02&#34;:1001.3274536132812,&#34;m10&#34;:872.47747802734375,&#34;m11&#34;:-33.90124511718750,&#34;m12&#34;:223.83766174316406},&#34;opacity&#34;:1.0,&#34;blendMode&#34;:&#34;NORMAL&#34;,&#34;visible&#34;:true}"/>
<g clip-path="url(#paint6_diamond_110_957_clip_path)" data-figma-skip-parse="true"><g transform="matrix(0 0.0385 -0.0595 0 531.5 760.5)"><rect x="0" y="0" width="1025.97" height="1016.81" fill="url(#paint6_diamond_110_957)" opacity="1" shape-rendering="crispEdges"/><rect x="0" y="0" width="1025.97" height="1016.81" transform="scale(1 -1)" fill="url(#paint6_diamond_110_957)" opacity="1" shape-rendering="crispEdges"/><rect x="0" y="0" width="1025.97" height="1016.81" transform="scale(-1 1)" fill="url(#paint6_diamond_110_957)" opacity="1" shape-rendering="crispEdges"/><rect x="0" y="0" width="1025.97" height="1016.81" transform="scale(-1)" fill="url(#paint6_diamond_110_957)" opacity="1" shape-rendering="crispEdges"/></g></g><path d="M591 747.613C591 747.613 543.705 752.8 531.5 799C522.346 752.319 472 747.613 472 747.613C472 726.557 487.765 722 531.5 722C577.778 722 591 726.557 591 747.613Z" data-figma-gradient-fill="{&#34;type&#34;:&#34;GRADIENT_DIAMOND&#34;,&#34;stops&#34;:[{&#34;color&#34;:{&#34;r&#34;:0.81250,&#34;g&#34;:0.636718750,&#34;b&#34;:0.636718750,&#34;a&#34;:1.0},&#34;position&#34;:0.0},{&#34;color&#34;:{&#34;r&#34;:0.74519228935241699,&#34;g&#34;:0.55889421701431274,&#34;b&#34;:0.61788856983184814,&#34;a&#34;:1.0},&#34;position&#34;:1.0}],&#34;stopsVar&#34;:[{&#34;color&#34;:{&#34;r&#34;:0.81250,&#34;g&#34;:0.636718750,&#34;b&#34;:0.636718750,&#34;a&#34;:1.0},&#34;position&#34;:0.0},{&#34;color&#34;:{&#34;r&#34;:0.74519228935241699,&#34;g&#34;:0.55889421701431274,&#34;b&#34;:0.61788856983184814,&#34;a&#34;:1.0},&#34;position&#34;:1.0}],&#34;transform&#34;:{&#34;m00&#34;:7.2866483626001649e-15,&#34;m01&#34;:-119.0,&#34;m02&#34;:591.0,&#34;m10&#34;:77.0,&#34;m11&#34;:4.7148903162784472e-15,&#34;m12&#34;:722.0},&#34;opacity&#34;:1.0,&#34;blendMode&#34;:&#34;NORMAL&#34;,&#34;visible&#34;:true}"/>
<path d="M702.142 567.201C797.832 566.238 795.896 567.073 764.781 633.159C749.696 665.198 713.515 689.89 670.061 686.37C591.382 679.997 591.382 679.997 607.423 620.412C616.281 587.504 657.935 567.646 702.142 567.201Z" fill="url(#paint7_linear_110_957)"/>
<ellipse cx="54.8673" cy="57.2211" rx="54.8673" ry="57.2211" transform="matrix(0.988091 -0.153872 0.146919 0.989149 615.038 580.587)" fill="url(#paint8_linear_110_957)"/>
<ellipse cx="16.1374" cy="57.2211" rx="16.1374" ry="57.2211" transform="matrix(0.988091 -0.153872 0.146919 0.989149 645.555 576.085)" fill="url(#paint9_linear_110_957)"/>
<path d="M374.291 567.201C278.602 566.238 280.538 567.073 311.653 633.159C326.737 665.198 362.919 689.89 406.372 686.37C485.051 679.997 485.051 679.997 469.011 620.412C460.152 587.504 418.499 567.646 374.291 567.201Z" fill="url(#paint10_linear_110_957)"/>
<ellipse cx="54.8673" cy="57.2211" rx="54.8673" ry="57.2211" transform="matrix(-0.988091 -0.153872 -0.146919 0.989149 460.716 580.587)" fill="url(#paint11_linear_110_957)"/>
<ellipse cx="16.1374" cy="57.2211" rx="16.1374" ry="57.2211" transform="matrix(-0.988091 -0.153872 -0.146919 0.989149 430.878 576.085)" fill="url(#paint12_linear_110_957)"/>
<defs>
<clipPath id="paint5_diamond_110_957_clip_path"><rect x="189" y="284" width="685" height="683" rx="118"/></clipPath><clipPath id="paint6_diamond_110_957_clip_path"><path d="M591 747.613C591 747.613 543.705 752.8 531.5 799C522.346 752.319 472 747.613 472 747.613C472 726.557 487.765 722 531.5 722C577.778 722 591 726.557 591 747.613Z"/></clipPath><linearGradient id="paint0_linear_110_957" x1="534.5" y1="837" x2="534.5" y2="1546" gradientUnits="userSpaceOnUse">
<stop stop-color="#C9C9C9"/>
<stop offset="1" stop-color="#686868"/>
</linearGradient>
<linearGradient id="paint1_linear_110_957" x1="381.738" y1="1187.19" x2="488.361" y2="1887.28" gradientUnits="userSpaceOnUse">
<stop offset="0.442308" stop-color="#8F8F8F"/>
<stop offset="1" stop-color="#494949"/>
</linearGradient>
<linearGradient id="paint2_linear_110_957" x1="685.733" y1="1193.79" x2="579.111" y2="1893.89" gradientUnits="userSpaceOnUse">
<stop offset="0.442308" stop-color="#8F8F8F"/>
<stop offset="1" stop-color="#494949"/>
</linearGradient>
<linearGradient id="paint3_linear_110_957" x1="873.189" y1="158.591" x2="715.593" y2="447.921" gradientUnits="userSpaceOnUse">
<stop stop-color="#CEABAC"/>
<stop offset="1" stop-color="#BC8184"/>
</linearGradient>
<linearGradient id="paint4_linear_110_957" x1="185.8" y1="158.591" x2="343.396" y2="447.921" gradientUnits="userSpaceOnUse">
<stop stop-color="#CEABAC"/>
<stop offset="1" stop-color="#BC8184"/>
</linearGradient>
<linearGradient id="paint5_diamond_110_957" x1="0" y1="0" x2="500" y2="500" gradientUnits="userSpaceOnUse">
<stop stop-color="#808080"/>
<stop offset="1" stop-color="#C7C7C7"/>
</linearGradient>
<linearGradient id="paint6_diamond_110_957" x1="0" y1="0" x2="500" y2="500" gradientUnits="userSpaceOnUse">
<stop stop-color="#CFA2A2"/>
<stop offset="1" stop-color="#BE8F9E"/>
</linearGradient>
<linearGradient id="paint7_linear_110_957" x1="642.426" y1="533.864" x2="670.773" y2="687.096" gradientUnits="userSpaceOnUse">
<stop stop-color="#F2F2F2"/>
<stop offset="1" stop-color="white"/>
</linearGradient>
<linearGradient id="paint8_linear_110_957" x1="54.8673" y1="0" x2="54.8673" y2="114.442" gradientUnits="userSpaceOnUse">
<stop stop-color="#FFE6D0"/>
<stop offset="0.432692" stop-color="#FFBA74"/>
<stop offset="1" stop-color="#FFDDC5"/>
</linearGradient>
<linearGradient id="paint9_linear_110_957" x1="43.8016" y1="28.3328" x2="-30.9964" y2="52.6771" gradientUnits="userSpaceOnUse">
<stop offset="0.168269"/>
<stop offset="0.355769"/>
</linearGradient>
<linearGradient id="paint10_linear_110_957" x1="434.008" y1="533.864" x2="405.661" y2="687.096" gradientUnits="userSpaceOnUse">
<stop stop-color="#F9F9F9"/>
<stop offset="1" stop-color="white"/>
</linearGradient>
<linearGradient id="paint11_linear_110_957" x1="54.8673" y1="0" x2="54.8673" y2="114.442" gradientUnits="userSpaceOnUse">
<stop stop-color="#FFE6D0"/>
<stop offset="0.432692" stop-color="#FFBA74"/>
<stop offset="1" stop-color="#FFDDC5"/>
</linearGradient>
<linearGradient id="paint12_linear_110_957" x1="43.8016" y1="28.3328" x2="-30.9964" y2="52.6771" gradientUnits="userSpaceOnUse">
<stop offset="0.168269"/>
<stop offset="0.355769"/>
</linearGradient>
</defs>
</svg>
