<svg width="957" height="1676" viewBox="0 0 957 1676" fill="none" xmlns="http://www.w3.org/2000/svg">
<rect x="220" y="731" width="480" height="618" rx="94" fill="url(#paint0_linear_110_959)"/>
<path d="M610.167 1154.73C595.055 1146.41 587.709 1129.05 590.433 1112.17C595.821 1078.79 636.404 1065.4 668.337 1077.25C732.969 1101.22 795.725 1073.17 868.887 993.643C897.488 962.555 954.302 982.703 953.168 1025.29C952.885 1035.92 948.664 1046.05 941.207 1053.51C815.454 1179.24 716.763 1213.39 610.167 1154.73Z" fill="white"/>
<path d="M396.448 1583.58C392.969 1608.79 363.609 1617.06 351.952 1595.42C314.17 1525.29 255.694 1390.64 228.221 1191.42C190.542 918.182 399.15 1102.75 446.169 1147.33C452.176 1153.03 454.742 1161.31 453.56 1169.88L396.448 1583.58Z" fill="url(#paint1_linear_110_959)"/>
<path d="M531.689 1589.35C535.169 1614.55 564.528 1622.82 576.185 1601.19C613.967 1531.06 672.443 1396.41 699.917 1197.18C737.595 923.948 528.987 1108.51 481.968 1153.1C475.961 1158.8 473.396 1167.08 474.578 1175.64L531.689 1589.35Z" fill="url(#paint2_linear_110_959)"/>
<path d="M787.716 65.4372C787.716 65.4372 693.394 80.113 600.554 180.43C507.714 280.746 489.171 366.606 489.171 366.606L714.042 490.815C714.042 490.815 746.635 454.689 773.93 402.56C845.146 266.548 798.122 69.9284 787.716 65.4372Z" fill="white"/>
<path d="M123.885 65.4372C123.885 65.4372 218.207 80.113 311.046 180.43C403.886 280.746 422.429 366.606 422.429 366.606L197.558 490.815C197.558 490.815 164.966 454.689 137.671 402.56C66.454 266.548 113.478 69.9284 123.885 65.4372Z" fill="black"/>
<path d="M123.885 65.4372C123.885 65.4372 218.207 80.113 311.046 180.43C403.886 280.746 422.429 366.606 422.429 366.606L197.558 490.815C197.558 490.815 164.966 454.689 137.671 402.56C66.454 266.548 113.478 69.9284 123.885 65.4372Z" fill="white"/>
<path d="M161.654 141.338C161.654 141.338 223.18 154.273 286.147 226.014C349.114 297.755 363.536 357.315 363.536 357.315L221.314 435.873C221.314 435.873 199.183 410.063 180.036 373.416C130.079 277.8 155.037 144.109 161.654 141.338Z" fill="url(#paint3_linear_110_959)"/>
<path d="M749.927 137.493C749.927 137.493 688.4 150.429 625.433 222.169C562.466 293.91 548.045 353.471 548.045 353.471L690.267 432.029C690.267 432.029 712.397 406.219 731.544 369.572C781.501 273.956 756.544 140.265 749.927 137.493Z" fill="url(#paint4_linear_110_959)"/>
<path d="M895.142 633.047C894.975 628.531 891.356 624.903 886.843 624.702C786.465 620.24 729.531 619.975 650.12 633.806C645.832 634.553 642.764 638.371 642.925 642.719C643.125 648.129 648.161 652.035 653.47 650.966C732.989 634.967 795.303 634.002 885.594 642.084C890.84 642.554 895.337 638.313 895.142 633.047Z" fill="url(#paint5_linear_110_959)"/>
<path d="M869.391 724.881C870.803 720.603 868.709 715.869 864.597 714.006C772.468 672.252 719.446 650.692 640.532 633.867C636.3 632.965 632.13 635.387 630.769 639.508C629.079 644.626 632.378 650.139 637.658 651.121C717.455 665.963 775.94 688.397 857.425 729.768C862.117 732.15 867.745 729.864 869.391 724.881Z" fill="url(#paint6_linear_110_959)"/>
<path d="M26.2578 636.806C26.4101 632.33 29.9607 628.736 34.4307 628.52C126.112 624.093 178.329 623.848 250.896 637.561C255.123 638.36 258.13 642.152 257.984 646.445C257.798 651.888 252.703 655.77 247.373 654.61C175.011 638.859 118.04 637.887 35.907 645.843C30.6461 646.352 26.0777 642.095 26.2578 636.806Z" fill="url(#paint7_linear_110_959)"/>
<path d="M49.8949 728.662C48.6058 724.413 50.7032 719.633 54.7122 717.655C138.97 676.099 187.624 654.582 259.811 637.797C263.92 636.841 267.883 639.184 269.121 643.264C270.681 648.407 267.306 654.051 262.105 655.11C189.356 669.912 135.824 692.252 61.5222 733.272C56.9018 735.823 51.4118 733.663 49.8949 728.662Z" fill="url(#paint8_linear_110_959)"/>
<g clip-path="url(#paint9_diamond_110_959_clip_path)" data-figma-skip-parse="true"><g transform="matrix(-0.0138915 0.38131 -0.3762 -0.0148163 471.391 560.906)"><rect x="0" y="0" width="853.716" height="851.686" fill="url(#paint9_diamond_110_959)" opacity="1" shape-rendering="crispEdges"/><rect x="0" y="0" width="853.716" height="851.686" transform="scale(1 -1)" fill="url(#paint9_diamond_110_959)" opacity="1" shape-rendering="crispEdges"/><rect x="0" y="0" width="853.716" height="851.686" transform="scale(-1 1)" fill="url(#paint9_diamond_110_959)" opacity="1" shape-rendering="crispEdges"/><rect x="0" y="0" width="853.716" height="851.686" transform="scale(-1)" fill="url(#paint9_diamond_110_959)" opacity="1" shape-rendering="crispEdges"/></g></g><rect x="163" y="247" width="589" height="597" rx="118" data-figma-gradient-fill="{&#34;type&#34;:&#34;GRADIENT_DIAMOND&#34;,&#34;stops&#34;:[{&#34;color&#34;:{&#34;r&#34;:0.96153843402862549,&#34;g&#34;:0.85521447658538818,&#34;b&#34;:0.85521447658538818,&#34;a&#34;:1.0},&#34;position&#34;:0.0},{&#34;color&#34;:{&#34;r&#34;:0.99519228935241699,&#34;g&#34;:0.99519228935241699,&#34;b&#34;:0.99519228935241699,&#34;a&#34;:1.0},&#34;position&#34;:1.0}],&#34;stopsVar&#34;:[{&#34;color&#34;:{&#34;r&#34;:0.96153843402862549,&#34;g&#34;:0.85521447658538818,&#34;b&#34;:0.85521447658538818,&#34;a&#34;:1.0},&#34;position&#34;:0.0},{&#34;color&#34;:{&#34;r&#34;:0.99519228935241699,&#34;g&#34;:0.99519228935241699,&#34;b&#34;:0.99519228935241699,&#34;a&#34;:1.0},&#34;position&#34;:1.0}],&#34;transform&#34;:{&#34;m00&#34;:-27.783018112182617,&#34;m01&#34;:-752.40008544921875,&#34;m02&#34;:861.48303222656250,&#34;m10&#34;:762.6193847656250,&#34;m11&#34;:-29.6325683593750,&#34;m12&#34;:194.41300964355469},&#34;opacity&#34;:1.0,&#34;blendMode&#34;:&#34;NORMAL&#34;,&#34;visible&#34;:true}"/>
<g clip-path="url(#paint10_diamond_110_959_clip_path)" data-figma-skip-parse="true"><g transform="matrix(0 0.033 -0.0525 0 456.5 664)"><rect x="0" y="0" width="1030.3" height="1019.05" fill="url(#paint10_diamond_110_959)" opacity="1" shape-rendering="crispEdges"/><rect x="0" y="0" width="1030.3" height="1019.05" transform="scale(1 -1)" fill="url(#paint10_diamond_110_959)" opacity="1" shape-rendering="crispEdges"/><rect x="0" y="0" width="1030.3" height="1019.05" transform="scale(-1 1)" fill="url(#paint10_diamond_110_959)" opacity="1" shape-rendering="crispEdges"/><rect x="0" y="0" width="1030.3" height="1019.05" transform="scale(-1)" fill="url(#paint10_diamond_110_959)" opacity="1" shape-rendering="crispEdges"/></g></g><path d="M509 652.954C509 652.954 467.269 657.4 456.5 697C448.423 656.987 404 652.954 404 652.954C404 634.906 417.91 631 456.5 631C497.334 631 509 634.906 509 652.954Z" data-figma-gradient-fill="{&#34;type&#34;:&#34;GRADIENT_DIAMOND&#34;,&#34;stops&#34;:[{&#34;color&#34;:{&#34;r&#34;:1.0,&#34;g&#34;:0.89423078298568726,&#34;b&#34;:0.89423078298568726,&#34;a&#34;:1.0},&#34;position&#34;:0.0},{&#34;color&#34;:{&#34;r&#34;:1.0,&#34;g&#34;:0.79326921701431274,&#34;b&#34;:0.85873395204544067,&#34;a&#34;:1.0},&#34;position&#34;:1.0}],&#34;stopsVar&#34;:[{&#34;color&#34;:{&#34;r&#34;:1.0,&#34;g&#34;:0.89423078298568726,&#34;b&#34;:0.89423078298568726,&#34;a&#34;:1.0},&#34;position&#34;:0.0},{&#34;color&#34;:{&#34;r&#34;:1.0,&#34;g&#34;:0.79326921701431274,&#34;b&#34;:0.85873395204544067,&#34;a&#34;:1.0},&#34;position&#34;:1.0}],&#34;transform&#34;:{&#34;m00&#34;:6.4293959628372414e-15,&#34;m01&#34;:-105.0,&#34;m02&#34;:509.0,&#34;m10&#34;:66.0,&#34;m11&#34;:4.0413347988195111e-15,&#34;m12&#34;:631.0},&#34;opacity&#34;:1.0,&#34;blendMode&#34;:&#34;NORMAL&#34;,&#34;visible&#34;:true}"/>
<path d="M604.406 495.119C686.776 494.279 685.109 495.008 658.325 552.695C645.34 580.662 614.195 602.217 576.79 599.144C509.063 593.58 509.063 593.58 522.871 541.568C530.496 512.842 566.352 495.507 604.406 495.119Z" fill="url(#paint11_linear_110_959)"/>
<ellipse cx="47.2457" cy="49.9344" rx="47.2457" ry="49.9344" transform="matrix(0.987759 -0.155985 0.144923 0.989443 530.074 506.92)" fill="url(#paint12_linear_110_959)"/>
<ellipse cx="13.8958" cy="49.9344" rx="13.8958" ry="49.9344" transform="matrix(0.987759 -0.155985 0.144923 0.989443 555.696 502.874)" fill="url(#paint13_linear_110_959)"/>
<path d="M322.191 495.119C239.821 494.279 241.487 495.008 268.271 552.695C281.256 580.662 312.401 602.217 349.806 599.144C417.533 593.58 417.533 593.58 403.726 541.568C396.1 512.842 360.245 495.507 322.191 495.119Z" fill="url(#paint14_linear_110_959)"/>
<ellipse cx="47.2457" cy="49.9344" rx="47.2457" ry="49.9344" transform="matrix(-0.987759 -0.155985 -0.144923 0.989443 396.586 506.804)" fill="url(#paint15_linear_110_959)"/>
<ellipse cx="13.8958" cy="49.9344" rx="13.8958" ry="49.9344" transform="matrix(-0.987759 -0.155985 -0.144923 0.989443 370.901 502.874)" fill="url(#paint16_linear_110_959)"/>
<defs>
<clipPath id="paint9_diamond_110_959_clip_path"><rect x="163" y="247" width="589" height="597" rx="118"/></clipPath><clipPath id="paint10_diamond_110_959_clip_path"><path d="M509 652.954C509 652.954 467.269 657.4 456.5 697C448.423 656.987 404 652.954 404 652.954C404 634.906 417.91 631 456.5 631C497.334 631 509 634.906 509 652.954Z"/></clipPath><linearGradient id="paint0_linear_110_959" x1="460" y1="731" x2="460" y2="1349" gradientUnits="userSpaceOnUse">
<stop stop-color="white"/>
<stop offset="1" stop-color="#FFF5F5"/>
</linearGradient>
<linearGradient id="paint1_linear_110_959" x1="328.601" y1="1036.31" x2="422.923" y2="1647.05" gradientUnits="userSpaceOnUse">
<stop offset="0.264423" stop-color="white"/>
<stop offset="1" stop-color="#FFE8E0"/>
</linearGradient>
<linearGradient id="paint2_linear_110_959" x1="599.536" y1="1042.08" x2="505.215" y2="1652.81" gradientUnits="userSpaceOnUse">
<stop offset="0.264423" stop-color="white"/>
<stop offset="1" stop-color="#FFE8E0"/>
</linearGradient>
<linearGradient id="paint3_linear_110_959" x1="159.937" y1="142.281" x2="298.542" y2="393.215" gradientUnits="userSpaceOnUse">
<stop stop-color="white"/>
<stop offset="1" stop-color="#FAD6E6"/>
</linearGradient>
<linearGradient id="paint4_linear_110_959" x1="751.643" y1="138.437" x2="613.038" y2="389.371" gradientUnits="userSpaceOnUse">
<stop stop-color="white"/>
<stop offset="1" stop-color="#FAD6E6"/>
</linearGradient>
<linearGradient id="paint5_linear_110_959" x1="895.029" y1="630" x2="642.8" y2="639.346" gradientUnits="userSpaceOnUse">
<stop stop-color="#FFDEDE"/>
<stop offset="0.793269" stop-color="white"/>
</linearGradient>
<linearGradient id="paint6_linear_110_959" x1="870.345" y1="721.989" x2="629.764" y2="642.551" gradientUnits="userSpaceOnUse">
<stop stop-color="#FFDEDE"/>
<stop offset="0.793269" stop-color="white"/>
</linearGradient>
<linearGradient id="paint7_linear_110_959" x1="26.3586" y1="633.844" x2="258.144" y2="641.735" gradientUnits="userSpaceOnUse">
<stop stop-color="#FFDEDE"/>
<stop offset="0.793269" stop-color="white"/>
</linearGradient>
<linearGradient id="paint8_linear_110_959" x1="49.0366" y1="725.833" x2="273.511" y2="657.736" gradientUnits="userSpaceOnUse">
<stop stop-color="#FFDEDE"/>
<stop offset="0.793269" stop-color="white"/>
</linearGradient>
<linearGradient id="paint9_diamond_110_959" x1="0" y1="0" x2="500" y2="500" gradientUnits="userSpaceOnUse">
<stop stop-color="#F5DADA"/>
<stop offset="1" stop-color="#FEFEFE"/>
</linearGradient>
<linearGradient id="paint10_diamond_110_959" x1="0" y1="0" x2="500" y2="500" gradientUnits="userSpaceOnUse">
<stop stop-color="#FFE4E4"/>
<stop offset="1" stop-color="#FFCADB"/>
</linearGradient>
<linearGradient id="paint11_linear_110_959" x1="553.002" y1="466.019" x2="578.071" y2="599.652" gradientUnits="userSpaceOnUse">
<stop stop-color="#F2F2F2"/>
<stop offset="1" stop-color="white"/>
</linearGradient>
<linearGradient id="paint12_linear_110_959" x1="47.2457" y1="0" x2="47.2457" y2="99.8687" gradientUnits="userSpaceOnUse">
<stop stop-color="#19E8FF"/>
<stop offset="0.432692" stop-color="#A9F9FF"/>
<stop offset="1" stop-color="#00EEFF"/>
</linearGradient>
<linearGradient id="paint13_linear_110_959" x1="37.7172" y1="24.7248" x2="-26.8536" y2="45.4619" gradientUnits="userSpaceOnUse">
<stop offset="0.168269"/>
<stop offset="0.355769"/>
</linearGradient>
<linearGradient id="paint14_linear_110_959" x1="373.595" y1="466.019" x2="348.526" y2="599.652" gradientUnits="userSpaceOnUse">
<stop stop-color="#F9F9F9"/>
<stop offset="1" stop-color="white"/>
</linearGradient>
<linearGradient id="paint15_linear_110_959" x1="47.2457" y1="0" x2="47.2457" y2="99.8687" gradientUnits="userSpaceOnUse">
<stop stop-color="#19E8FF"/>
<stop offset="0.432692" stop-color="#A9F9FF"/>
<stop offset="1" stop-color="#00EEFF"/>
</linearGradient>
<linearGradient id="paint16_linear_110_959" x1="37.7172" y1="24.7248" x2="-26.8536" y2="45.4619" gradientUnits="userSpaceOnUse">
<stop offset="0.168269"/>
<stop offset="0.355769"/>
</linearGradient>
</defs>
</svg>
