<svg width="849" height="1467" viewBox="0 0 849 1467" fill="none" xmlns="http://www.w3.org/2000/svg">
<rect x="195" y="642" width="425" height="543" rx="94" fill="url(#paint0_linear_110_960)"/>
<path d="M541.363 1014.25C527.941 1006.94 521.403 991.553 523.841 976.598C528.621 947.276 564.183 935.435 592.207 945.907C649.927 967.475 705.915 942.757 771.279 872.254C796.622 844.918 846.617 862.76 845.606 900.328C845.352 909.794 841.568 918.807 834.892 925.413C723.399 1035.74 635.881 1065.72 541.363 1014.25Z" fill="black"/>
<path d="M352.785 1383.17C349.285 1408.27 320.148 1416.31 308.665 1394.64C275.133 1331.38 225.989 1215.33 202.465 1046.44C169.369 808.829 350.469 965.401 394.54 1006.53C400.648 1012.23 403.332 1020.66 402.129 1029.29L352.785 1383.17Z" fill="url(#paint1_linear_110_960)"/>
<path d="M462.399 1383.17C465.899 1408.27 495.035 1416.31 506.519 1394.64C540.05 1331.38 589.194 1215.33 612.718 1046.44C645.814 808.829 464.714 965.401 420.644 1006.53C414.536 1012.23 411.852 1020.66 413.055 1029.29L462.399 1383.17Z" fill="url(#paint2_linear_110_960)"/>
<path d="M698.82 57.4749C698.82 57.4749 615.143 70.3648 532.78 158.475C450.417 246.585 433.967 321.997 433.967 321.997L633.461 431.093C633.461 431.093 662.375 399.363 686.59 353.577C749.77 234.115 708.052 61.4195 698.82 57.4749Z" fill="black"/>
<path d="M109.904 57.4749C109.904 57.4749 193.581 70.3648 275.944 158.475C358.307 246.585 374.757 321.997 374.757 321.997L175.263 431.093C175.263 431.093 146.349 399.363 122.134 353.577C58.9545 234.115 100.672 61.4195 109.904 57.4749Z" fill="black"/>
<path d="M109.904 57.4749C109.904 57.4749 193.581 70.3648 275.944 158.475C358.307 246.585 374.757 321.997 374.757 321.997L175.263 431.093C175.263 431.093 146.349 399.363 122.134 353.577C58.9545 234.115 100.672 61.4195 109.904 57.4749Z" fill="black"/>
<path d="M143.411 124.14C143.411 124.14 197.994 135.501 253.855 198.512C309.716 261.524 322.51 313.837 322.51 313.837L196.338 382.836C196.338 382.836 176.705 360.167 159.718 327.979C115.399 243.998 137.54 126.574 143.411 124.14Z" fill="url(#paint3_linear_110_960)"/>
<path d="M665.296 120.763C665.296 120.763 610.712 132.125 554.852 195.136C498.991 258.147 486.197 310.461 486.197 310.461L612.368 379.459C612.368 379.459 632.002 356.79 648.988 324.603C693.307 240.621 671.166 123.198 665.296 120.763Z" fill="url(#paint4_linear_110_960)"/>
<path d="M794.124 556.027C793.975 552.056 790.79 548.866 786.821 548.691C697.712 544.768 647.193 544.534 576.7 556.694C572.927 557.345 570.226 560.701 570.37 564.525C570.547 569.273 574.964 572.706 579.625 571.777C650.245 557.699 705.558 556.853 785.747 563.964C790.354 564.372 794.297 560.649 794.124 556.027Z" fill="url(#paint5_linear_110_960)"/>
<path d="M789.813 623.283C790.693 619.413 788.451 615.469 784.679 614.223C699.751 586.159 651.096 572.169 579.976 564.69C576.18 564.291 572.716 566.793 571.868 570.522C570.815 575.147 574.175 579.657 578.896 580.03C650.642 585.694 704.203 599.949 779.715 628.661C784.039 630.305 788.788 627.786 789.813 623.283Z" fill="url(#paint6_linear_110_960)"/>
<path d="M33.1714 567.844C33.3199 563.874 36.5052 560.684 40.4738 560.509C129.583 556.586 180.102 556.352 250.595 568.512C254.368 569.163 257.069 572.518 256.925 576.343C256.748 581.091 252.331 584.524 247.67 583.594C177.05 569.517 121.737 568.671 41.5478 575.781C36.9414 576.19 32.9984 572.467 33.1714 567.844Z" fill="url(#paint7_linear_110_960)"/>
<path d="M37.4821 635.1C36.6017 631.23 38.8437 627.287 42.6159 626.041C127.544 597.976 176.199 583.987 247.319 576.508C251.115 576.109 254.579 578.611 255.427 582.339C256.48 586.965 253.12 591.475 248.399 591.848C176.653 597.511 123.092 611.766 47.5798 640.479C43.2559 642.123 38.5068 639.604 37.4821 635.1Z" fill="url(#paint8_linear_110_960)"/>
<g clip-path="url(#paint9_diamond_110_960_clip_path)" data-figma-skip-parse="true"><g transform="matrix(0 0.245473 -0.245473 0 405.5 581.569)"><rect x="0" y="0" width="1485.17" height="1069.37" fill="url(#paint9_diamond_110_960)" opacity="1" shape-rendering="crispEdges"/><rect x="0" y="0" width="1485.17" height="1069.37" transform="scale(1 -1)" fill="url(#paint9_diamond_110_960)" opacity="1" shape-rendering="crispEdges"/><rect x="0" y="0" width="1485.17" height="1069.37" transform="scale(-1 1)" fill="url(#paint9_diamond_110_960)" opacity="1" shape-rendering="crispEdges"/><rect x="0" y="0" width="1485.17" height="1069.37" transform="scale(-1)" fill="url(#paint9_diamond_110_960)" opacity="1" shape-rendering="crispEdges"/></g></g><rect x="144" y="218" width="523" height="523" rx="118" data-figma-gradient-fill="{&#34;type&#34;:&#34;GRADIENT_DIAMOND&#34;,&#34;stops&#34;:[{&#34;color&#34;:{&#34;r&#34;:0.40000000596046448,&#34;g&#34;:0.40000000596046448,&#34;b&#34;:0.40000000596046448,&#34;a&#34;:1.0},&#34;position&#34;:0.0},{&#34;color&#34;:{&#34;r&#34;:0.068571425974369049,&#34;g&#34;:0.068571425974369049,&#34;b&#34;:0.068571425974369049,&#34;a&#34;:1.0},&#34;position&#34;:1.0}],&#34;stopsVar&#34;:[{&#34;color&#34;:{&#34;r&#34;:0.40000000596046448,&#34;g&#34;:0.40000000596046448,&#34;b&#34;:0.40000000596046448,&#34;a&#34;:1.0},&#34;position&#34;:0.0},{&#34;color&#34;:{&#34;r&#34;:0.068571425974369049,&#34;g&#34;:0.068571425974369049,&#34;b&#34;:0.068571425974369049,&#34;a&#34;:1.0},&#34;position&#34;:1.0}],&#34;transform&#34;:{&#34;m00&#34;:-1.0047670161161815e-12,&#34;m01&#34;:-490.94515991210938,&#34;m02&#34;:650.97259521484375,&#34;m10&#34;:490.94515991210938,&#34;m11&#34;:1.6413659439853262e-13,&#34;m12&#34;:336.09680175781250},&#34;opacity&#34;:1.0,&#34;blendMode&#34;:&#34;NORMAL&#34;,&#34;visible&#34;:true}"/>
<g clip-path="url(#paint10_diamond_110_960_clip_path)" data-figma-skip-parse="true"><g transform="matrix(0 0.03 -0.0455 0 405.5 583)"><rect x="0" y="0" width="1033.33" height="1021.98" fill="url(#paint10_diamond_110_960)" opacity="1" shape-rendering="crispEdges"/><rect x="0" y="0" width="1033.33" height="1021.98" transform="scale(1 -1)" fill="url(#paint10_diamond_110_960)" opacity="1" shape-rendering="crispEdges"/><rect x="0" y="0" width="1033.33" height="1021.98" transform="scale(-1 1)" fill="url(#paint10_diamond_110_960)" opacity="1" shape-rendering="crispEdges"/><rect x="0" y="0" width="1033.33" height="1021.98" transform="scale(-1)" fill="url(#paint10_diamond_110_960)" opacity="1" shape-rendering="crispEdges"/></g></g><path d="M451 572.958C451 572.958 414.834 577 405.5 613C398.5 576.625 360 572.958 360 572.958C360 556.551 372.056 553 405.5 553C440.889 553 451 556.551 451 572.958Z" data-figma-gradient-fill="{&#34;type&#34;:&#34;GRADIENT_DIAMOND&#34;,&#34;stops&#34;:[{&#34;color&#34;:{&#34;r&#34;:0.99519228935241699,&#34;g&#34;:0.77988630533218384,&#34;b&#34;:0.87318551540374756,&#34;a&#34;:1.0},&#34;position&#34;:0.0},{&#34;color&#34;:{&#34;r&#34;:0.81250,&#34;g&#34;:0.63281250,&#34;b&#34;:0.71067708730697632,&#34;a&#34;:1.0},&#34;position&#34;:1.0}],&#34;stopsVar&#34;:[{&#34;color&#34;:{&#34;r&#34;:0.99519228935241699,&#34;g&#34;:0.77988630533218384,&#34;b&#34;:0.87318551540374756,&#34;a&#34;:1.0},&#34;position&#34;:0.0},{&#34;color&#34;:{&#34;r&#34;:0.81250,&#34;g&#34;:0.63281250,&#34;b&#34;:0.71067708730697632,&#34;a&#34;:1.0},&#34;position&#34;:1.0}],&#34;transform&#34;:{&#34;m00&#34;:5.5721431395578443e-15,&#34;m01&#34;:-91.0,&#34;m02&#34;:451.0,&#34;m10&#34;:60.0,&#34;m11&#34;:3.6739406106950628e-15,&#34;m12&#34;:553.0},&#34;opacity&#34;:1.0,&#34;blendMode&#34;:&#34;NORMAL&#34;,&#34;visible&#34;:true}"/>
<path d="M536.197 434.873C609.271 434.135 607.793 434.775 584.032 485.443C572.512 510.007 544.882 528.939 511.698 526.24C451.614 521.354 451.614 521.354 463.864 475.67C470.629 450.44 502.438 435.214 536.197 434.873Z" fill="url(#paint11_linear_110_960)"/>
<ellipse cx="41.9038" cy="43.8677" rx="41.9038" ry="43.8677" transform="matrix(0.987997 -0.15447 0.146348 0.989233 470.254 445.238)" fill="url(#paint12_linear_110_960)"/>
<ellipse cx="12.3247" cy="43.8677" rx="12.3247" ry="43.8677" transform="matrix(0.987997 -0.15447 0.146348 0.989233 492.984 441.685)" fill="url(#paint13_linear_110_960)"/>
<path d="M285.831 434.873C212.757 434.135 214.235 434.775 237.996 485.443C249.516 510.007 277.146 528.939 310.33 526.24C370.414 521.354 370.414 521.354 358.164 475.67C351.399 450.44 319.59 435.214 285.831 434.873Z" fill="url(#paint14_linear_110_960)"/>
<ellipse cx="41.9038" cy="43.8677" rx="41.9038" ry="43.8677" transform="matrix(-0.987997 -0.15447 -0.146348 0.989233 351.774 445.238)" fill="url(#paint15_linear_110_960)"/>
<ellipse cx="12.3247" cy="43.8677" rx="12.3247" ry="43.8677" transform="matrix(-0.987997 -0.15447 -0.146348 0.989233 329.044 441.685)" fill="url(#paint16_linear_110_960)"/>
<defs>
<clipPath id="paint9_diamond_110_960_clip_path"><rect x="144" y="218" width="523" height="523" rx="118"/></clipPath><clipPath id="paint10_diamond_110_960_clip_path"><path d="M451 572.958C451 572.958 414.834 577 405.5 613C398.5 576.625 360 572.958 360 572.958C360 556.551 372.056 553 405.5 553C440.889 553 451 556.551 451 572.958Z"/></clipPath><linearGradient id="paint0_linear_110_960" x1="407.5" y1="642" x2="407.5" y2="1185" gradientUnits="userSpaceOnUse">
<stop/>
<stop offset="1" stop-color="#5D5B57"/>
</linearGradient>
<linearGradient id="paint1_linear_110_960" x1="291.518" y1="910.215" x2="373.576" y2="1446.88" gradientUnits="userSpaceOnUse">
<stop offset="0.264423"/>
<stop offset="1" stop-color="#595856"/>
</linearGradient>
<linearGradient id="paint2_linear_110_960" x1="523.666" y1="910.215" x2="441.608" y2="1446.88" gradientUnits="userSpaceOnUse">
<stop offset="0.264423"/>
<stop offset="1" stop-color="#585550"/>
</linearGradient>
<linearGradient id="paint3_linear_110_960" x1="141.888" y1="124.968" x2="262.977" y2="346.394" gradientUnits="userSpaceOnUse">
<stop stop-color="#DAAABF"/>
<stop offset="1" stop-color="#FAD6E6"/>
</linearGradient>
<linearGradient id="paint4_linear_110_960" x1="666.819" y1="121.592" x2="545.73" y2="343.017" gradientUnits="userSpaceOnUse">
<stop stop-color="#DAAABF"/>
<stop offset="1" stop-color="#FAD6E6"/>
</linearGradient>
<linearGradient id="paint5_linear_110_960" x1="794.023" y1="553.342" x2="570.264" y2="561.716" gradientUnits="userSpaceOnUse">
<stop stop-color="#979797"/>
<stop offset="0.793269"/>
</linearGradient>
<linearGradient id="paint6_linear_110_960" x1="790.409" y1="620.664" x2="571.776" y2="570.924" gradientUnits="userSpaceOnUse">
<stop stop-color="#979797"/>
<stop offset="0.793269"/>
</linearGradient>
<linearGradient id="paint7_linear_110_960" x1="33.2718" y1="565.159" x2="257.031" y2="573.534" gradientUnits="userSpaceOnUse">
<stop stop-color="#979797"/>
<stop offset="0.793269"/>
</linearGradient>
<linearGradient id="paint8_linear_110_960" x1="36.8863" y1="632.482" x2="255.519" y2="582.741" gradientUnits="userSpaceOnUse">
<stop stop-color="#979797"/>
<stop offset="0.793269"/>
</linearGradient>
<linearGradient id="paint9_diamond_110_960" x1="0" y1="0" x2="500" y2="500" gradientUnits="userSpaceOnUse">
<stop stop-color="#666666"/>
<stop offset="1" stop-color="#111111"/>
</linearGradient>
<linearGradient id="paint10_diamond_110_960" x1="0" y1="0" x2="500" y2="500" gradientUnits="userSpaceOnUse">
<stop stop-color="#FEC7DF"/>
<stop offset="1" stop-color="#CFA1B5"/>
</linearGradient>
<linearGradient id="paint11_linear_110_960" x1="490.594" y1="409.314" x2="512.408" y2="526.765" gradientUnits="userSpaceOnUse">
<stop stop-color="#D6D6D6"/>
<stop offset="1" stop-color="white"/>
</linearGradient>
<linearGradient id="paint12_linear_110_960" x1="41.9038" y1="0" x2="41.9038" y2="87.7353" gradientUnits="userSpaceOnUse">
<stop stop-color="#FF8C19"/>
<stop offset="0.432692" stop-color="#FEC855"/>
<stop offset="1" stop-color="#FF9D00"/>
</linearGradient>
<linearGradient id="paint13_linear_110_960" x1="33.4526" y1="21.7209" x2="-23.7143" y2="40.2564" gradientUnits="userSpaceOnUse">
<stop offset="0.168269"/>
<stop offset="0.355769"/>
</linearGradient>
<linearGradient id="paint14_linear_110_960" x1="331.434" y1="409.314" x2="309.62" y2="526.765" gradientUnits="userSpaceOnUse">
<stop stop-color="#D6D6D6"/>
<stop offset="1" stop-color="white"/>
</linearGradient>
<linearGradient id="paint15_linear_110_960" x1="41.9038" y1="0" x2="41.9038" y2="87.7353" gradientUnits="userSpaceOnUse">
<stop stop-color="#FF8C19"/>
<stop offset="0.432692" stop-color="#FEC855"/>
<stop offset="1" stop-color="#FF9D00"/>
</linearGradient>
<linearGradient id="paint16_linear_110_960" x1="33.4526" y1="21.7209" x2="-23.7143" y2="40.2564" gradientUnits="userSpaceOnUse">
<stop offset="0.168269"/>
<stop offset="0.355769"/>
</linearGradient>
</defs>
</svg>
