<svg width="1127" height="1920" viewBox="0 0 1127 1920" fill="none" xmlns="http://www.w3.org/2000/svg">
<rect x="262" y="836" width="570" height="709" rx="94" fill="url(#paint0_linear_110_958)"/>
<path d="M714.828 1350.54C696.788 1340.99 687.953 1320.44 691.301 1300.46C697.708 1262.23 743.786 1246.51 780.241 1260.37C858.991 1290.33 935.17 1257.83 1024.45 1163.58C1058.3 1127.84 1123.84 1151.58 1122.47 1201.14C1122.12 1213.95 1116.9 1226.12 1107.73 1234.94C958.531 1378.45 841.349 1417.45 714.828 1350.54Z" fill="black"/>
<path d="M469.635 1826.09C466.078 1850.9 436.977 1859.16 424.791 1838.12C380.327 1761.37 305.619 1603.51 271.387 1364.43C226.24 1049.14 478.441 1266.14 531.802 1315.09C538.115 1320.88 540.829 1329.42 539.568 1338.22L469.635 1826.09Z" fill="url(#paint1_linear_110_958)"/>
<path d="M623.044 1832.7C626.6 1857.51 655.702 1865.76 667.888 1844.73C712.352 1767.98 787.06 1610.11 821.292 1371.04C866.438 1055.74 614.237 1272.74 560.877 1321.69C554.564 1327.49 551.85 1336.03 553.111 1344.83L623.044 1832.7Z" fill="url(#paint2_linear_110_958)"/>
<path d="M936.704 74.9402C936.704 74.9402 824.542 91.7471 714.142 206.632C603.743 321.517 581.693 419.845 581.693 419.845L849.095 562.092C849.095 562.092 887.853 520.72 920.311 461.021C1005 305.257 949.079 80.0835 936.704 74.9402Z" fill="#4B443E"/>
<path d="M147.316 74.9402C147.316 74.9402 259.478 91.7471 369.878 206.632C480.277 321.517 502.327 419.845 502.327 419.845L234.925 562.092C234.925 562.092 196.167 520.72 163.709 461.021C79.0231 305.257 134.941 80.0835 147.316 74.9402Z" fill="black"/>
<path d="M147.316 74.9402C147.316 74.9402 259.478 91.7471 369.878 206.632C480.277 321.517 502.327 419.845 502.327 419.845L234.925 562.092C234.925 562.092 196.167 520.72 163.709 461.021C79.0231 305.257 134.941 80.0835 147.316 74.9402Z" fill="#4D453D"/>
<path d="M891.768 157.46C891.768 157.46 818.604 172.274 743.727 254.433C668.851 336.592 651.702 404.803 651.702 404.803L820.823 494.769C820.823 494.769 847.14 465.211 869.909 423.242C929.314 313.741 899.636 160.635 891.768 157.46Z" fill="url(#paint3_linear_110_958)"/>
<path d="M192.229 157.46C192.229 157.46 265.392 172.274 340.269 254.433C415.145 336.592 432.294 404.803 432.294 404.803L263.173 494.768C263.173 494.768 236.856 465.211 214.088 423.242C154.682 313.74 184.36 160.634 192.229 157.46Z" fill="url(#paint4_linear_110_958)"/>
<g clip-path="url(#paint5_diamond_110_958_clip_path)" data-figma-skip-parse="true"><g transform="matrix(-0.0165094 0.4356 -0.447097 -0.0169258 560.509 642.6)"><rect x="0" y="0" width="853.373" height="851.253" fill="url(#paint5_diamond_110_958)" opacity="1" shape-rendering="crispEdges"/><rect x="0" y="0" width="853.373" height="851.253" transform="scale(1 -1)" fill="url(#paint5_diamond_110_958)" opacity="1" shape-rendering="crispEdges"/><rect x="0" y="0" width="853.373" height="851.253" transform="scale(-1 1)" fill="url(#paint5_diamond_110_958)" opacity="1" shape-rendering="crispEdges"/><rect x="0" y="0" width="853.373" height="851.253" transform="scale(-1)" fill="url(#paint5_diamond_110_958)" opacity="1" shape-rendering="crispEdges"/></g></g><rect x="194" y="284" width="700" height="682" rx="118" data-figma-gradient-fill="{&#34;type&#34;:&#34;GRADIENT_DIAMOND&#34;,&#34;stops&#34;:[{&#34;color&#34;:{&#34;r&#34;:0.0,&#34;g&#34;:0.0,&#34;b&#34;:0.0,&#34;a&#34;:1.0},&#34;position&#34;:0.0},{&#34;color&#34;:{&#34;r&#34;:0.38942307233810425,&#34;g&#34;:0.33350595831871033,&#34;b&#34;:0.26960060000419617,&#34;a&#34;:1.0},&#34;position&#34;:1.0}],&#34;stopsVar&#34;:[{&#34;color&#34;:{&#34;r&#34;:0.0,&#34;g&#34;:0.0,&#34;b&#34;:0.0,&#34;a&#34;:1.0},&#34;position&#34;:0.0},{&#34;color&#34;:{&#34;r&#34;:0.38942307233810425,&#34;g&#34;:0.33350595831871033,&#34;b&#34;:0.26960060000419617,&#34;a&#34;:1.0},&#34;position&#34;:1.0}],&#34;transform&#34;:{&#34;m00&#34;:-33.018867492675781,&#34;m01&#34;:-894.1936035156250,&#34;m02&#34;:1024.1156005859375,&#34;m10&#34;:871.20007324218750,&#34;m11&#34;:-33.851612091064453,&#34;m12&#34;:223.92565917968750},&#34;opacity&#34;:1.0,&#34;blendMode&#34;:&#34;NORMAL&#34;,&#34;visible&#34;:true}"/>
<g clip-path="url(#paint6_diamond_110_958_clip_path)" data-figma-skip-parse="true"><g transform="matrix(0 0.0385 -0.0615 0 543.5 760.5)"><rect x="0" y="0" width="1025.97" height="1016.26" fill="url(#paint6_diamond_110_958)" opacity="1" shape-rendering="crispEdges"/><rect x="0" y="0" width="1025.97" height="1016.26" transform="scale(1 -1)" fill="url(#paint6_diamond_110_958)" opacity="1" shape-rendering="crispEdges"/><rect x="0" y="0" width="1025.97" height="1016.26" transform="scale(-1 1)" fill="url(#paint6_diamond_110_958)" opacity="1" shape-rendering="crispEdges"/><rect x="0" y="0" width="1025.97" height="1016.26" transform="scale(-1)" fill="url(#paint6_diamond_110_958)" opacity="1" shape-rendering="crispEdges"/></g></g><path d="M605 747.613C605 747.613 556.116 752.8 543.5 799C534.039 752.319 482 747.613 482 747.613C482 726.557 498.295 722 543.5 722C591.334 722 605 726.557 605 747.613Z" data-figma-gradient-fill="{&#34;type&#34;:&#34;GRADIENT_DIAMOND&#34;,&#34;stops&#34;:[{&#34;color&#34;:{&#34;r&#34;:0.81250,&#34;g&#34;:0.636718750,&#34;b&#34;:0.636718750,&#34;a&#34;:1.0},&#34;position&#34;:0.0},{&#34;color&#34;:{&#34;r&#34;:0.74519228935241699,&#34;g&#34;:0.55889421701431274,&#34;b&#34;:0.61788856983184814,&#34;a&#34;:1.0},&#34;position&#34;:1.0}],&#34;stopsVar&#34;:[{&#34;color&#34;:{&#34;r&#34;:0.81250,&#34;g&#34;:0.636718750,&#34;b&#34;:0.636718750,&#34;a&#34;:1.0},&#34;position&#34;:0.0},{&#34;color&#34;:{&#34;r&#34;:0.74519228935241699,&#34;g&#34;:0.55889421701431274,&#34;b&#34;:0.61788856983184814,&#34;a&#34;:1.0},&#34;position&#34;:1.0}],&#34;transform&#34;:{&#34;m00&#34;:7.5315781036941129e-15,&#34;m01&#34;:-123.0,&#34;m02&#34;:605.0,&#34;m10&#34;:77.0,&#34;m11&#34;:4.7148903162784472e-15,&#34;m12&#34;:721.99987792968750},&#34;opacity&#34;:1.0,&#34;blendMode&#34;:&#34;NORMAL&#34;,&#34;visible&#34;:true}"/>
<path d="M718.723 567.021C816.672 566.059 814.691 566.894 782.841 632.959C767.4 664.987 730.364 689.672 685.885 686.153C605.348 679.781 605.348 679.781 621.767 620.215C630.835 587.318 673.472 567.466 718.723 567.021Z" fill="url(#paint7_linear_110_958)"/>
<ellipse cx="693.661" cy="628.545" rx="56.1322" ry="57.2328" transform="rotate(-8.64762 693.661 628.545)" fill="url(#paint8_linear_110_958)"/>
<ellipse cx="685.726" cy="630.002" rx="16.5095" ry="57.2328" transform="rotate(-8.64762 685.726 630.002)" fill="url(#paint9_linear_110_958)"/>
<path d="M383.13 567.021C285.181 566.059 287.162 566.894 319.012 632.959C334.453 664.987 371.489 689.672 415.968 686.153C496.505 679.781 496.505 679.781 480.086 620.215C471.018 587.318 428.381 567.466 383.13 567.021Z" fill="url(#paint10_linear_110_958)"/>
<ellipse cx="56.1322" cy="57.2328" rx="56.1322" ry="57.2328" transform="matrix(-0.988632 -0.150357 -0.150357 0.988632 471.596 580.403)" fill="url(#paint11_linear_110_958)"/>
<ellipse cx="16.5095" cy="57.2328" rx="16.5095" ry="57.2328" transform="matrix(-0.988632 -0.150357 -0.150357 0.988632 441.053 575.903)" fill="url(#paint12_linear_110_958)"/>
<defs>
<clipPath id="paint5_diamond_110_958_clip_path"><rect x="194" y="284" width="700" height="682" rx="118"/></clipPath><clipPath id="paint6_diamond_110_958_clip_path"><path d="M605 747.613C605 747.613 556.116 752.8 543.5 799C534.039 752.319 482 747.613 482 747.613C482 726.557 498.295 722 543.5 722C591.334 722 605 726.557 605 747.613Z"/></clipPath><linearGradient id="paint0_linear_110_958" x1="547" y1="836" x2="547" y2="1545" gradientUnits="userSpaceOnUse">
<stop stop-color="#605243"/>
<stop offset="1"/>
</linearGradient>
<linearGradient id="paint1_linear_110_958" x1="390.753" y1="1186.81" x2="494.959" y2="1887.42" gradientUnits="userSpaceOnUse">
<stop offset="0.264423" stop-color="#635544"/>
<stop offset="1"/>
</linearGradient>
<linearGradient id="paint2_linear_110_958" x1="701.926" y1="1193.41" x2="597.72" y2="1894.02" gradientUnits="userSpaceOnUse">
<stop offset="0.264423" stop-color="#635544"/>
<stop offset="1"/>
</linearGradient>
<linearGradient id="paint3_linear_110_958" x1="893.809" y1="158.541" x2="738.302" y2="450.871" gradientUnits="userSpaceOnUse">
<stop stop-color="#CEABAC"/>
<stop offset="1" stop-color="#BC8184"/>
</linearGradient>
<linearGradient id="paint4_linear_110_958" x1="190.187" y1="158.541" x2="345.694" y2="450.87" gradientUnits="userSpaceOnUse">
<stop stop-color="#CEABAC"/>
<stop offset="1" stop-color="#BC8184"/>
</linearGradient>
<linearGradient id="paint5_diamond_110_958" x1="0" y1="0" x2="500" y2="500" gradientUnits="userSpaceOnUse">
<stop/>
<stop offset="1" stop-color="#635545"/>
</linearGradient>
<linearGradient id="paint6_diamond_110_958" x1="0" y1="0" x2="500" y2="500" gradientUnits="userSpaceOnUse">
<stop stop-color="#CFA2A2"/>
<stop offset="1" stop-color="#BE8F9E"/>
</linearGradient>
<linearGradient id="paint7_linear_110_958" x1="657.597" y1="533.695" x2="685.314" y2="687.113" gradientUnits="userSpaceOnUse">
<stop stop-color="#F2F2F2"/>
<stop offset="1" stop-color="white"/>
</linearGradient>
<linearGradient id="paint8_linear_110_958" x1="693.661" y1="571.313" x2="693.661" y2="685.778" gradientUnits="userSpaceOnUse">
<stop stop-color="#D0D8FF"/>
<stop offset="0.432692" stop-color="#DEE1FF"/>
<stop offset="1" stop-color="#C5C6FF"/>
</linearGradient>
<linearGradient id="paint9_linear_110_958" x1="714.028" y1="601.108" x2="637.843" y2="626.47" gradientUnits="userSpaceOnUse">
<stop offset="0.168269"/>
<stop offset="0.355769"/>
</linearGradient>
<linearGradient id="paint10_linear_110_958" x1="444.257" y1="533.695" x2="416.539" y2="687.113" gradientUnits="userSpaceOnUse">
<stop stop-color="#F9F9F9"/>
<stop offset="1" stop-color="white"/>
</linearGradient>
<linearGradient id="paint11_linear_110_958" x1="56.1322" y1="0" x2="56.1322" y2="114.466" gradientUnits="userSpaceOnUse">
<stop stop-color="#D0D8FF"/>
<stop offset="0.432692" stop-color="#DEE1FF"/>
<stop offset="1" stop-color="#C5C6FF"/>
</linearGradient>
<linearGradient id="paint12_linear_110_958" x1="44.8114" y1="28.3386" x2="-31.3738" y2="53.7008" gradientUnits="userSpaceOnUse">
<stop offset="0.168269"/>
<stop offset="0.355769"/>
</linearGradient>
</defs>
</svg>
