<svg width="2431" height="1894" viewBox="0 0 2431 1894" fill="none" xmlns="http://www.w3.org/2000/svg">
<path d="M686 846.793C686 803.474 715.752 765.633 757.957 755.871C1258.48 640.097 1563.94 643.936 2075.39 765.636C2095.16 770.339 2113.1 781.432 2125.67 797.394C2323.84 1048.99 2310.31 1221.32 2133.17 1523.66C2116.62 1551.9 2086.04 1569 2053.31 1569H780C728.085 1569 686 1526.91 686 1475V846.793Z" fill="url(#paint0_linear_110_1007)"/>
<path d="M713.906 1263.98C714.99 1246.45 700.617 1232.31 684.015 1236.11C628.603 1248.77 512.467 1288.1 427.197 1404.47C330.025 1537.08 583.809 1568.31 668.31 1574.94C683.042 1576.09 695.319 1564.62 696.257 1549.45L713.906 1263.98Z" fill="url(#paint1_linear_110_1007)"/>
<path d="M1457.38 1364.31C1459.78 1364.77 1461.96 1365.44 1464.14 1366.55C1498.53 1383.95 1790.11 1544.23 1068.08 1639.4C368.234 1731.66 748 1323.28 816.946 1253.82C823.33 1247.39 832.44 1244.95 841.571 1246.69L1457.38 1364.31Z" fill="url(#paint2_linear_110_1007)"/>
<path d="M1604.43 177.613C1604.43 177.613 1447.17 133.903 1236.96 216.53C1026.76 299.157 942.291 411.975 942.291 411.975L1214.46 749.126C1214.46 749.126 1288.84 718.79 1365.25 661.376C1564.62 511.575 1617.84 191.376 1604.43 177.613Z" fill="#CACACA"/>
<path d="M141.641 183.741C141.641 183.741 296.825 133.163 510.461 206.473C724.096 279.783 813.438 388.781 813.438 388.781L556.346 737.566C556.346 737.566 480.703 710.528 401.843 656.527C196.089 515.632 128.852 198.081 141.641 183.741Z" fill="#CACACA"/>
<path d="M1504.8 255.574C1504.8 255.574 1400.05 231.982 1255.09 293.44C1110.13 354.899 1049.09 432.084 1049.09 432.084L1221.23 645.318C1221.23 645.318 1272.56 622.847 1326.22 582.456C1466.2 477.072 1513.38 264.202 1504.8 255.574Z" fill="url(#paint3_linear_110_1007)"/>
<path d="M1438.26 1614.08C1398.55 1610.49 1367.96 1578.09 1364.48 1538.56C1359.45 1481.44 1411.8 1436.72 1469.03 1443.38C1744.35 1475.46 1948.35 1370.52 2156.09 1113.89C2211.54 1045.39 2325.34 1061.89 2352.79 1146.13C2364.79 1182.92 2355.74 1223.35 2328.39 1250.47C2045.86 1530.65 1782.21 1645.17 1438.26 1614.08Z" fill="#B9B9B9"/>
<path d="M250.707 258.354C250.707 258.354 354.319 230.181 501.838 285.21C649.358 340.239 713.727 414.668 713.727 414.668L551.126 635.261C551.126 635.261 498.856 615.067 443.481 577.073C299.002 477.941 242.515 267.351 250.707 258.354Z" fill="url(#paint4_linear_110_1007)"/>
<g clip-path="url(#paint5_diamond_110_1007_clip_path)" data-figma-skip-parse="true"><g transform="matrix(-0.0237736 0.608052 -0.643819 -0.0236266 908.774 790.568)"><rect x="0" y="0" width="852.697" height="850.546" fill="url(#paint5_diamond_110_1007)" opacity="1" shape-rendering="crispEdges"/><rect x="0" y="0" width="852.697" height="850.546" transform="scale(1 -1)" fill="url(#paint5_diamond_110_1007)" opacity="1" shape-rendering="crispEdges"/><rect x="0" y="0" width="852.697" height="850.546" transform="scale(-1 1)" fill="url(#paint5_diamond_110_1007)" opacity="1" shape-rendering="crispEdges"/><rect x="0" y="0" width="852.697" height="850.546" transform="scale(-1)" fill="url(#paint5_diamond_110_1007)" opacity="1" shape-rendering="crispEdges"/></g></g><rect x="381" y="290" width="1008" height="952" rx="118" data-figma-gradient-fill="{&#34;type&#34;:&#34;GRADIENT_DIAMOND&#34;,&#34;stops&#34;:[{&#34;color&#34;:{&#34;r&#34;:0.50,&#34;g&#34;:0.50,&#34;b&#34;:0.50,&#34;a&#34;:1.0},&#34;position&#34;:0.0},{&#34;color&#34;:{&#34;r&#34;:0.77884614467620850,&#34;g&#34;:0.77884614467620850,&#34;b&#34;:0.77884614467620850,&#34;a&#34;:1.0},&#34;position&#34;:1.0}],&#34;stopsVar&#34;:[{&#34;color&#34;:{&#34;r&#34;:0.50,&#34;g&#34;:0.50,&#34;b&#34;:0.50,&#34;a&#34;:1.0},&#34;position&#34;:0.0},{&#34;color&#34;:{&#34;r&#34;:0.77884614467620850,&#34;g&#34;:0.77884614467620850,&#34;b&#34;:0.77884614467620850,&#34;a&#34;:1.0},&#34;position&#34;:1.0}],&#34;transform&#34;:{&#34;m00&#34;:-47.547168731689453,&#34;m01&#34;:-1287.6387939453125,&#34;m02&#34;:1576.3665771484375,&#34;m10&#34;:1216.1032714843750,&#34;m11&#34;:-47.253273010253906,&#34;m12&#34;:206.14268493652344},&#34;opacity&#34;:1.0,&#34;blendMode&#34;:&#34;NORMAL&#34;,&#34;visible&#34;:true}"/>
<g clip-path="url(#paint6_diamond_110_1007_clip_path)" data-figma-skip-parse="true"><g transform="matrix(0 0.054 -0.089 0 885 955)"><rect x="0" y="0" width="1018.52" height="1011.24" fill="url(#paint6_diamond_110_1007)" opacity="1" shape-rendering="crispEdges"/><rect x="0" y="0" width="1018.52" height="1011.24" transform="scale(1 -1)" fill="url(#paint6_diamond_110_1007)" opacity="1" shape-rendering="crispEdges"/><rect x="0" y="0" width="1018.52" height="1011.24" transform="scale(-1 1)" fill="url(#paint6_diamond_110_1007)" opacity="1" shape-rendering="crispEdges"/><rect x="0" y="0" width="1018.52" height="1011.24" transform="scale(-1)" fill="url(#paint6_diamond_110_1007)" opacity="1" shape-rendering="crispEdges"/></g></g><path d="M974 936.925C974 936.925 903.257 944.2 885 1009C871.308 943.525 796 936.925 796 936.925C796 907.392 819.582 901 885 901C954.223 901 974 907.392 974 936.925Z" data-figma-gradient-fill="{&#34;type&#34;:&#34;GRADIENT_DIAMOND&#34;,&#34;stops&#34;:[{&#34;color&#34;:{&#34;r&#34;:0.81250,&#34;g&#34;:0.636718750,&#34;b&#34;:0.636718750,&#34;a&#34;:1.0},&#34;position&#34;:0.0},{&#34;color&#34;:{&#34;r&#34;:0.74519228935241699,&#34;g&#34;:0.55889421701431274,&#34;b&#34;:0.61788856983184814,&#34;a&#34;:1.0},&#34;position&#34;:1.0}],&#34;stopsVar&#34;:[{&#34;color&#34;:{&#34;r&#34;:0.81250,&#34;g&#34;:0.636718750,&#34;b&#34;:0.636718750,&#34;a&#34;:1.0},&#34;position&#34;:0.0},{&#34;color&#34;:{&#34;r&#34;:0.74519228935241699,&#34;g&#34;:0.55889421701431274,&#34;b&#34;:0.61788856983184814,&#34;a&#34;:1.0},&#34;position&#34;:1.0}],&#34;transform&#34;:{&#34;m00&#34;:1.0899357385054688e-14,&#34;m01&#34;:-178.0,&#34;m02&#34;:974.0,&#34;m10&#34;:108.0,&#34;m11&#34;:6.6130928451412288e-15,&#34;m12&#34;:901.0},&#34;opacity&#34;:1.0,&#34;blendMode&#34;:&#34;NORMAL&#34;,&#34;visible&#34;:true}"/>
<path d="M551.169 765.57C550.485 722.132 552.135 826.928 673.912 823.775C795.689 820.623 794.078 718.297 794.762 761.736C795.446 805.175 741.47 841.247 674.203 842.306C606.937 843.365 551.853 809.009 551.169 765.57Z" fill="#6C6C6C"/>
<path d="M973.169 761.57C972.485 718.132 974.135 822.928 1095.91 819.775C1217.69 816.623 1216.08 714.297 1216.76 757.736C1217.45 801.175 1163.47 837.247 1096.2 838.306C1028.94 839.365 973.853 805.009 973.169 761.57Z" fill="#6C6C6C"/>
<defs>
<clipPath id="paint5_diamond_110_1007_clip_path"><rect x="381" y="290" width="1008" height="952" rx="118"/></clipPath><clipPath id="paint6_diamond_110_1007_clip_path"><path d="M974 936.925C974 936.925 903.257 944.2 885 1009C871.308 943.525 796 936.925 796 936.925C796 907.392 819.582 901 885 901C954.223 901 974 907.392 974 936.925Z"/></clipPath><linearGradient id="paint0_linear_110_1007" x1="1794" y1="1171" x2="998" y2="1171" gradientUnits="userSpaceOnUse">
<stop stop-color="#C9C9C9"/>
<stop offset="1" stop-color="#686868"/>
</linearGradient>
<linearGradient id="paint1_linear_110_1007" x1="516.002" y1="1565.07" x2="726.874" y2="1237.47" gradientUnits="userSpaceOnUse">
<stop offset="0.442308" stop-color="#8F8F8F"/>
<stop offset="1" stop-color="#494949"/>
</linearGradient>
<linearGradient id="paint2_linear_110_1007" x1="650.819" y1="1513.41" x2="1296.71" y2="1119.7" gradientUnits="userSpaceOnUse">
<stop offset="0.442308" stop-color="#8F8F8F"/>
<stop offset="1" stop-color="#494949"/>
</linearGradient>
<linearGradient id="paint3_linear_110_1007" x1="1506.88" y1="258.141" x2="1144.7" y2="550.515" gradientUnits="userSpaceOnUse">
<stop stop-color="#CEABAC"/>
<stop offset="1" stop-color="#BC8184"/>
</linearGradient>
<linearGradient id="paint4_linear_110_1007" x1="248.74" y1="261.01" x2="623.418" y2="537.187" gradientUnits="userSpaceOnUse">
<stop stop-color="#CEABAC"/>
<stop offset="1" stop-color="#BC8184"/>
</linearGradient>
<linearGradient id="paint5_diamond_110_1007" x1="0" y1="0" x2="500" y2="500" gradientUnits="userSpaceOnUse">
<stop stop-color="#808080"/>
<stop offset="1" stop-color="#C7C7C7"/>
</linearGradient>
<linearGradient id="paint6_diamond_110_1007" x1="0" y1="0" x2="500" y2="500" gradientUnits="userSpaceOnUse">
<stop stop-color="#CFA2A2"/>
<stop offset="1" stop-color="#BE8F9E"/>
</linearGradient>
</defs>
</svg>
